<?xml version="1.0" encoding="utf-8"?>
<!-- Generator: Adobe Illustrator 19.1.0, SVG Export Plug-In . SVG Version: 6.00 Build 0)  -->
<svg version="1.1" id="Layer_1" xmlns="http://www.w3.org/2000/svg" xmlns:xlink="http://www.w3.org/1999/xlink" x="0px" y="0px"
	 viewBox="214 36.9 1024 768" style="enable-background:new 214 36.9 1024 768;" xml:space="preserve">
<style type="text/css">
	.st0{display:none;}
	.st1{display:inline;}
	.st2{fill:#EEB886;}
	.st3{fill:#010101;}
	.st4{fill:#B77F53;}
	.st5{fill:#753F1A;}
	.st6{display:inline;fill:#502B13;}
	.st7{fill:#9E9E9E;}
	.st8{display:inline;fill:#D3D3D3;}
	.st9{fill:#454545;}
	.st10{display:inline;fill:#282828;}
	.st11{display:inline;fill:#753F1A;}
	.st12{display:inline;fill:#737373;}
	.st13{fill:#4E2A12;}
	.st14{display:inline;fill:#010101;}
	.st15{display:inline;fill:#B77F53;}
	.st16{fill:#EAB632;}
	.st17{display:inline;fill:#C0912D;}
	.st18{display:inline;fill:#A5792B;}
	.st19{display:inline;fill:#C5952C;}
	.st20{fill:#C0912D;}
	.st21{display:inline;fill:#F0CA89;}
	.st22{fill:#E0E1E0;}
	.st23{display:inline;fill:#FFFFFF;}
	.st24{fill:#916527;}
	.st25{display:inline;fill:#482F14;}
	.st26{fill:#482F14;}
	.st27{display:inline;fill:#67441A;}
	.st28{fill:#9E8869;}
	.st29{stroke:#000000;stroke-width:3;stroke-linejoin:round;stroke-miterlimit:10;}
	.st30{fill:#4C4C4C;}
	.st31{fill:#6B6B6B;}
	.st32{fill:#303030;}
	.st33{fill:#FEFCDE;}
	.st34{fill:#D3CFA5;}
	.st35{fill:#3A3621;}
	.st36{fill:#AFA97E;}
	.st37{fill:#2D2D2D;}
	.st38{fill:#BABABA;}
	.st39{fill:#A8A37B;}
	.st40{fill:#A8A8A8;}
	.st41{fill:#FFFFFF;}
	.st42{fill:#7F7F7F;}
	.st43{fill:#3F3F3F;}
	.st44{fill:#5E5E5E;}
	.st45{fill:#353535;}
</style>
<g id="body_3_" class="st0">
	<g class="st1">
		<path class="st2" d="M587.5,585.8c-2.3,0-3.7-0.1-4-0.1l-1.5-0.1l1.6-22.8l1.5,0.1c0.2,0,1.1,0.1,2.7,0.1c11.6,0,51.2-3,72.3-41.1
			l0.7-1.3l20,11.1l-0.7,1.3C652.9,581.9,602.4,585.8,587.5,585.8z"/>
		<g>
			<path class="st3" d="M661.4,522.4l17.4,9.6c-26.8,48.5-76.8,52.2-91.2,52.2c-2.2,0-3.6-0.1-3.9-0.1l1.4-19.9
				c0.3,0,1.2,0.1,2.8,0.1C598.9,564.4,639.7,561.6,661.4,522.4 M660.2,518.4l-1.5,2.6c-20.7,37.5-59.6,40.4-71,40.4
				c-1.6,0-2.5-0.1-2.6-0.1l-3-0.2l-0.2,3l-1.4,19.9l-0.2,3l3,0.2c0.4,0,1.8,0.1,4.1,0.1c15.1,0,66.3-3.9,93.9-53.7l1.5-2.6
				l-2.6-1.5l-17.4-9.6L660.2,518.4L660.2,518.4z"/>
		</g>
	</g>
	<g class="st1">
		<path class="st4" d="M673.2,529c-27.3,44.6-74.8,48.1-88.9,48.1c-0.1,0-0.2,0-0.3,0l-0.5,7c0.3,0,1.7,0.1,3.9,0.1
			c14.5,0,64.4-3.7,91.2-52.2L673.2,529z"/>
	</g>
	<g class="st1">
		<path class="st5" d="M591.4,594.2c-0.8,0-1.5-0.7-1.5-1.5v-36c0-0.7,0.4-1.2,1.1-1.4c0.1,0,12.9-3.9,18-10
			c0.3-0.4,0.7-0.5,1.1-0.5c0.3,0,0.6,0.1,0.8,0.2c6.2,3.9,20,22.7,6.8,45.5c-0.2,0.3-0.4,0.5-0.7,0.6
			C609.8,594.1,592.2,594.2,591.4,594.2z"/>
		<path class="st3" d="M610.2,546.2c6.4,4,18.8,22,6.3,43.5c-7,3-25,3-25,3v-36C591.4,556.6,604.8,552.7,610.2,546.2 M610.2,543.2
			c-0.9,0-1.7,0.4-2.3,1.1c-4,4.7-13.8,8.5-17.3,9.5c-1.3,0.4-2.1,1.5-2.1,2.9v36c0,1.7,1.3,3,3,3c1.9,0,18.8-0.1,26.2-3.2
			c0.6-0.3,1.1-0.7,1.4-1.3c7.3-12.6,6.3-23.6,4.2-30.7c-2.5-8.2-7.6-14.4-11.5-16.9C611.3,543.4,610.7,543.2,610.2,543.2
			L610.2,543.2z"/>
	</g>
	<path class="st6" d="M621.1,578.1c-10.3,3.8-21.6,3.8-21.6,3.8l-8,8.1v2.6c0,0,18,0,25-3C618.8,585.7,620.3,581.8,621.1,578.1z"/>
	<g class="st1">
		<path class="st2" d="M785.8,620.6l0.7-1.3c9.6-16.9,12.1-31.5,7.6-43.3c-6.5-17.2-26.5-24.5-26.7-24.5L766,551l0.5-1.4l7.3-21.3
			l1.4,0.5c1.2,0.4,30.7,10.8,41.4,38.7c7.1,18.8,4.1,40.2-9.2,63.6l-0.7,1.3L785.8,620.6z"/>
		<g>
			<path class="st3" d="M774.7,530.2c1.2,0.4,30.1,10.5,40.4,37.8c7,18.3,3.9,39.3-9.1,62.3L787.7,620c9.8-17.3,12.4-32.3,7.7-44.5
				c-6.8-17.9-27.4-25.3-27.6-25.4L774.7,530.2 M772.9,526.4l-1,2.8l-6.8,19.9l-1,2.8l2.9,1c0.2,0.1,19.5,7.1,25.8,23.6
				c4.3,11.4,1.8,25.5-7.5,42l-1.5,2.6l2.6,1.5l18.3,10.3l2.6,1.5l1.5-2.6c13.5-23.8,16.6-45.7,9.3-64.9
				c-10.9-28.5-41-39.1-42.3-39.6L772.9,526.4L772.9,526.4z"/>
		</g>
	</g>
	<g class="st1">
		<path class="st4" d="M810.3,622.3c9.4-19.9,11-38.1,4.9-54.2c-6.8-17.8-21.4-28.3-31.1-33.6l-4.1,12c0.2,0.1,20.8,7.5,27.6,25.4
			c4.7,12.2,2.1,27.2-7.7,44.5L810.3,622.3z"/>
	</g>
	<g class="st1">
		<path class="st7" d="M657,661c-0.8,0-1.5-0.7-1.5-1.5v-58.7l-9.8-67.1c-0.1-0.5,0.1-1,0.5-1.4l15.8-12.9
			c6.3-8.4,15.9-13.3,26.4-13.3h61.3c10.4,0,20.2,5,26.4,13.3l15.8,12.9c0.4,0.3,0.6,0.9,0.5,1.4l-9.7,66.9v58.9
			c0,0.8-0.7,1.5-1.5,1.5H657z"/>
		<path class="st3" d="M749.8,507.6c10.4,0,19.6,5.1,25.4,12.9l15.9,13l-9.7,67.1v59c-22.2,0-95.3,0-124.3,0v-58.9l-9.8-67.2l16-13
			c5.7-7.8,14.9-12.8,25.3-12.8L749.8,507.6 M749.8,504.6h-61.3c-10.9,0-20.9,5-27.5,13.7l-15.7,12.8c-0.8,0.7-1.2,1.7-1.1,2.8
			l9.7,67v58.6c0,1.7,1.3,3,3,3h124.3c1.7,0,3-1.3,3-3v-58.8l9.7-66.8c0.2-1-0.3-2.1-1.1-2.8l-15.6-12.8
			C770.9,509.8,760.6,504.6,749.8,504.6L749.8,504.6z"/>
	</g>
	<ellipse class="st8" cx="725.8" cy="744.3" rx="175.3" ry="28.1"/>
	<g class="st1">
		<path class="st9" d="M734.5,750.7c-0.8,0-1.5-0.7-1.5-1.5v-46.5c0-7.6-6.2-13.8-13.8-13.8c-7.6,0-13.8,6.2-13.8,13.8v46.5
			c0,0.8-0.7,1.5-1.5,1.5h-36.3c-0.8,0-1.4-0.6-1.5-1.3l-10.5-89.6c0-0.4,0.1-0.9,0.4-1.2c0.3-0.3,0.7-0.5,1.1-0.5h124.3
			c0.4,0,0.8,0.2,1.1,0.5s0.4,0.7,0.4,1.2l-10.5,89.6c-0.1,0.8-0.7,1.3-1.5,1.3H734.5z"/>
		<g>
			<path class="st3" d="M781.4,659.5l-10.5,89.6h-36.3v-46.5c0-8.5-6.9-15.3-15.3-15.3c-8.5,0-15.3,6.9-15.3,15.3v46.5h-36.3
				L657,659.5H781.4 M781.4,656.5H657c-0.9,0-1.7,0.4-2.2,1c-0.6,0.6-0.8,1.5-0.7,2.3l10.5,89.6c0.2,1.5,1.5,2.7,3,2.7h36.3
				c1.7,0,3-1.3,3-3v-46.5c0-6.8,5.5-12.3,12.3-12.3s12.3,5.5,12.3,12.3v46.5c0,1.7,1.3,3,3,3h36.3c1.5,0,2.8-1.1,3-2.7l10.5-89.6
				c0.1-0.9-0.2-1.7-0.7-2.3S782.2,656.5,781.4,656.5L781.4,656.5z"/>
		</g>
	</g>
	<path class="st10" d="M767.4,673.6c0,13.2-8.6,27.8-28.2,30.8c11.1,7.5,23.3,11.3,35.5,12.6l6.7-57.5h-23.5
		C763.1,663.5,767.4,668.4,767.4,673.6z"/>
	<polygon class="st11" points="662.8,708.8 667.5,749.2 703.9,749.2 703.9,708.8 	"/>
	<g class="st1">
		<path class="st5" d="M659.1,720.5c-6,0-10.9-4.9-10.9-10.9s4.9-10.9,10.9-10.9h50.7c6,0,10.9,4.9,10.9,10.9s-4.9,10.9-10.9,10.9
			H659.1z"/>
		<path class="st3" d="M709.8,700.2c5.2,0,9.4,4.2,9.4,9.4s-4.2,9.4-9.4,9.4h-50.7c-5.2,0-9.4-4.2-9.4-9.4s4.2-9.4,9.4-9.4H709.8
			 M709.8,697.2h-50.7c-6.8,0-12.4,5.6-12.4,12.4c0,6.8,5.6,12.4,12.4,12.4h50.7c6.8,0,12.4-5.6,12.4-12.4
			C722.2,702.8,716.6,697.2,709.8,697.2L709.8,697.2z"/>
	</g>
	<polygon class="st11" points="775.6,708.8 770.9,749.2 734.5,749.2 734.5,708.8 	"/>
	<g class="st1">
		<path class="st5" d="M661,750.7c-0.8,0-1.5-0.7-1.5-1.5c0-11.7,7.6-21.3,17-21.3H695c9.4,0,17,9.5,17,21.3c0,0.8-0.7,1.5-1.5,1.5
			H661z"/>
		<path class="st3" d="M695,729.4c8.6,0,15.5,8.8,15.5,19.8H661c0-10.9,6.9-19.8,15.5-19.8H695 M695,726.4h-18.6
			c-10.2,0-18.5,10.2-18.5,22.8c0,1.7,1.3,3,3,3h49.5c1.7,0,3-1.3,3-3C713.5,736.6,705.2,726.4,695,726.4L695,726.4z"/>
	</g>
	<g class="st1">
		<path class="st5" d="M727.8,750.7c-0.8,0-1.5-0.7-1.5-1.5c0-11.7,7.6-21.3,17-21.3h18.6c9.4,0,17,9.5,17,21.3
			c0,0.8-0.7,1.5-1.5,1.5H727.8z"/>
		<path class="st3" d="M761.9,729.4c8.6,0,15.5,8.8,15.5,19.8h-49.5c0-10.9,6.9-19.8,15.5-19.8H761.9 M761.9,726.4h-18.6
			c-10.2,0-18.5,10.2-18.5,22.8c0,1.7,1.3,3,3,3h49.5c1.7,0,3-1.3,3-3C780.3,736.6,772.1,726.4,761.9,726.4L761.9,726.4z"/>
	</g>
	<path class="st6" d="M709.8,700.2h-22.6c4.4,2.3,8.6,5.3,9.1,8.8c0.5,3.7-1.4,7.1-5.6,10h19c5.2,0,9.4-4.2,9.4-9.4
		C719.2,704.5,715,700.2,709.8,700.2z"/>
	<g class="st1">
		<path class="st5" d="M728.6,720.5c-6,0-10.9-4.9-10.9-10.9s4.9-10.9,10.9-10.9h50.7c6,0,10.9,4.9,10.9,10.9s-4.9,10.9-10.9,10.9
			H728.6z"/>
		<path class="st3" d="M779.3,700.2c5.2,0,9.4,4.2,9.4,9.4s-4.2,9.4-9.4,9.4h-50.7c-5.2,0-9.4-4.2-9.4-9.4s4.2-9.4,9.4-9.4H779.3
			 M779.3,697.2h-50.7c-6.8,0-12.4,5.6-12.4,12.4c0,6.8,5.6,12.4,12.4,12.4h50.7c6.8,0,12.4-5.6,12.4-12.4
			C791.7,702.8,786.2,697.2,779.3,697.2L779.3,697.2z"/>
	</g>
	<path class="st6" d="M779.3,700.2h-22.6c4.4,2.3,8.6,5.3,9.1,8.8c0.5,3.7-1.4,7.1-5.6,10h19c5.2,0,9.4-4.2,9.4-9.4
		C788.7,704.5,784.5,700.2,779.3,700.2z"/>
	<path class="st6" d="M710.5,749.2c0-10.9-6.9-19.8-15.5-19.8h-4.5c5.8,1.3,8.7,4.5,9.8,7.8c1.2,3.7,1,8.1-1.3,12H710.5z"/>
	<path class="st6" d="M777.3,749.2c0-10.9-6.9-19.8-15.5-19.8h-4.5c5.8,1.3,8.7,4.5,9.8,7.8c1.2,3.7,1,8.1-1.3,12H777.3z"/>
	<path class="st6" d="M740.9,659.5h40.4v-20.8H741c4.9,2.8,8.3,5.8,8.4,8.7C749.5,651.2,746.3,655.4,740.9,659.5z"/>
	<path class="st12" d="M791.1,533.5l-15.9-13c-5.7-7.8-14.9-12.9-25.4-12.9h-25l-1.3,21.8c0,0,60.9-16.6,37.6,107.8
		c7.3,0.5,14,0,20.2-1.3v-35.4L791.1,533.5z"/>
	<g class="st1">
		<path class="st5" d="M667.6,626.3c-0.8,0-1.5-0.7-1.5-1.5V505.2c0-0.8,0.7-1.5,1.5-1.5h24.5c0.8,0,1.5,0.7,1.5,1.5v119.7
			c0,0.8-0.7,1.5-1.5,1.5L667.6,626.3L667.6,626.3z"/>
		<path class="st3" d="M692.1,505.2v119.7h-24.5V505.2H692.1 M692.1,502.2h-24.5c-1.7,0-3,1.3-3,3v119.7c0,1.7,1.3,3,3,3h24.5
			c1.7,0,3-1.3,3-3V505.2C695.1,503.5,693.8,502.2,692.1,502.2L692.1,502.2z"/>
	</g>
	<g class="st1">
		<rect x="687.2" y="505.2" class="st13" width="4.9" height="119.7"/>
	</g>
	<g class="st1">
		<path class="st5" d="M657,640c-0.8,0-1.5-0.7-1.5-1.5v-20.8c0-0.8,0.7-1.5,1.5-1.5h124.3c0.8,0,1.5,0.7,1.5,1.5v20.8
			c0,0.8-0.7,1.5-1.5,1.5H657z"/>
		<g>
			<path class="st3" d="M781.4,617.8v20.8H657v-20.8H781.4 M781.4,614.8H657c-1.7,0-3,1.3-3,3v20.8c0,1.7,1.3,3,3,3h124.3
				c1.7,0,3-1.3,3-3v-20.8C784.4,616.1,783,614.8,781.4,614.8L781.4,614.8z"/>
		</g>
	</g>
	<g class="st1">
		<path class="st5" d="M713.6,633.4c-4.7,0-8.6-3.9-8.6-8.6c0-4.7,3.9-8.6,8.6-8.6h15.7c4.7,0,8.6,3.9,8.6,8.6
			c0,4.7-3.9,8.6-8.6,8.6H713.6z"/>
		<g>
			<path class="st3" d="M729.3,617.8c3.9,0,7.1,3.2,7.1,7.1c0,3.9-3.2,7.1-7.1,7.1h-15.7c-3.9,0-7.1-3.2-7.1-7.1
				c0-3.9,3.2-7.1,7.1-7.1H729.3 M729.3,614.8h-15.7c-5.6,0-10.1,4.5-10.1,10.1S708,635,713.6,635h15.7c5.6,0,10.1-4.5,10.1-10.1
				C739.3,619.3,734.8,614.8,729.3,614.8L729.3,614.8z"/>
		</g>
	</g>
	<path class="st14" d="M712.3,625.8c0,1.8-1.5,3.3-3.3,3.3h-11.1c-1.8,0-3.3-1.5-3.3-3.3l0,0c0-1.8,1.5-3.3,3.3-3.3H709
		C710.8,622.5,712.3,624,712.3,625.8L712.3,625.8z"/>
	<g class="st1">
		<path class="st7" d="M657,682.4c-0.8,0-1.5-0.7-1.5-1.5v-42.1c0-0.8,0.7-1.5,1.5-1.5h124.5c0.8,0,1.5,0.7,1.5,1.5v42.1
			c0,0.8-0.7,1.5-1.5,1.5H657z"/>
		<g>
			<path class="st3" d="M781.5,638.8v42.1H657v-42.1H781.5 M781.5,635.8H657c-1.7,0-3,1.3-3,3v42.1c0,1.7,1.3,3,3,3h124.5
				c1.7,0,3-1.3,3-3v-42.1C784.5,637.1,783.2,635.8,781.5,635.8L781.5,635.8z"/>
		</g>
	</g>
	<path class="st12" d="M764.9,680.9h16.6v-42.1h-65.2C716.4,638.8,754.5,633.2,764.9,680.9z"/>
	<g class="st1">
		<path class="st5" d="M680.9,590.4c-11.4,0-20.8-9.3-20.8-20.8s9.3-20.8,20.8-20.8s20.8,9.3,20.8,20.8S692.3,590.4,680.9,590.4z"/>
		<path class="st3" d="M680.9,550.4c10.6,0,19.3,8.6,19.3,19.3c0,10.6-8.6,19.3-19.3,19.3c-10.6,0-19.3-8.6-19.3-19.3
			C661.6,559.1,670.2,550.4,680.9,550.4 M680.9,547.4c-12.3,0-22.3,10-22.3,22.3s10,22.3,22.3,22.3c12.3,0,22.3-10,22.3-22.3
			C703.1,557.4,693.2,547.4,680.9,547.4L680.9,547.4z"/>
	</g>
	<g class="st1">
		<path class="st13" d="M680.9,550.4c-0.8,0-1.5,0.1-2.3,0.1c9.6,1.1,17,9.3,17,19.1c0,9.9-7.4,18-17,19.1c0.8,0.1,1.5,0.1,2.3,0.1
			c10.6,0,19.3-8.6,19.3-19.3C700.1,559.1,691.5,550.4,680.9,550.4z"/>
	</g>
	<path class="st12" d="M657,646.4c5.5-6.2,20.6-7.4,28.5-7.6H657V646.4z"/>
</g>
<g id="head_3_" class="st0">
	<g class="st1">
		<path class="st2" d="M719.2,535c-44.2,0-85.8-23.5-117-66.1c-31.1-42.5-48.2-99-48.2-159c0-83.7,74.1-151.8,165.2-151.8
			s165.2,68.1,165.2,151.8c0,60-17.1,116.5-48.2,159C804.9,511.5,763.4,535,719.2,535z"/>
		<path class="st3" d="M719.2,159.5c90.4,0,163.7,67.3,163.7,150.3c0,123.5-73.3,223.6-163.7,223.6S555.5,433.3,555.5,309.8
			C555.5,226.8,628.8,159.5,719.2,159.5 M719.2,156.5c-44.5,0-86.3,15.9-117.8,44.8c-31.5,29-48.9,67.5-48.9,108.5
			c0,60.4,17.2,117.1,48.5,159.9c15.3,20.9,33.1,37.3,53,48.7c20.6,11.9,42.6,18,65.2,18s44.6-6,65.2-18
			c19.9-11.5,37.7-27.9,53-48.7c31.3-42.7,48.5-99.5,48.5-159.9c0-41-17.4-79.5-48.9-108.5C805.5,172.5,763.7,156.5,719.2,156.5
			L719.2,156.5z"/>
	</g>
	<path class="st15" d="M833.3,292.7c0,0,29.9,206.3-123.4,240.4c3.1,0.2,6.2,0.4,9.4,0.4c90.4,0,163.7-100.1,163.7-223.6
		c0-3.6-0.2-7.2-0.5-10.8l-21.1-26.9L833.3,292.7z"/>
	<path class="st14" d="M628.6,353.5c0-8.3,6.7-15,15-15c8.3,0,15,6.7,15,15s-6.7,15-15,15C635.3,368.5,628.6,361.8,628.6,353.5z"/>
	<path class="st14" d="M783.1,353.5c0-8.3,6.7-15,15-15s15,6.7,15,15s-6.7,15-15,15S783.1,361.8,783.1,353.5z"/>
	<path class="st15" d="M561.3,373.6c0,0,7.1-65.9,15.7-69.5c16.6,24.8,36.3,31.2,36.3,31.2c-7.4-10.3-7.5-72.7-7.5-72.7
		c23.9,36.1,47.8,48.9,47.8,48.9c-7.4-10.6-6.3-53.8-6.3-53.8c14.2,24.1,48.6,51.1,91.3,57.9c-16.7-27-19.4-35.4-19.4-35.4
		c26.2,28.5,55.4,42.3,100.7,46.9c-13.6-14.5-16-18.4-16-18.4c27.5,24.1,79,51.1,79,51.1c-25-104.1-106-137.5-106-137.5l-125.2-11.2
		L598.2,238l-36.8,40.8l-16.7,36.8L561.3,373.6z"/>
	<g class="st1">
		<path class="st16" d="M873.4,379c1.6-6.9,3.1-14.1,4.3-21.6c-21.4-17.2-56.7-46.6-73.9-67.2c3.3,9.1,9.3,23.7,17.4,36.1l2.2,3.4
			l-3.9-1.1c-28.6-8.4-70.5-30.8-95.2-57c2.2,8.7,7,25.9,13.5,39.2l2,4.1l-4.1-2.2c-31.7-16.8-54.4-33.2-73-52.9
			c0.3,7.8,1.1,25,1.7,36.8l0.2,2.9l-2.4-1.5c-21.7-13.5-35.4-33.3-40.9-42.2c0.2,15.3,5.2,37.2,16.9,54.8l2,3l-3.5-0.7
			c-1.3-0.3-30.5-6.1-51.1-26c0.7,8.7,3.5,30.2,13.9,50.8l1.5,3l-3.2-0.9c-14.6-3.9-28.2-12.5-40.5-25.8c0.3,22.2,3,44,8,64.9
			l2.1,8.6l-4.8-7.4c-21-32.7-32.2-70.9-32.2-110.5c0-109.1,84.8-197.9,189-197.9s189,88.8,189,197.9c0,39.6-11.1,77.8-32.2,110.5
			l-4.8,7.4L873.4,379z"/>
		<path class="st3" d="M719.2,73.3c103.6,0,187.5,87.9,187.5,196.4c0,40.6-11.8,78.3-31.9,109.6c1.8-7.4,3.2-14.9,4.4-22.6
			c-23-18.5-66.1-54.3-79.9-74.7c0,0,7.6,25.2,20.5,45.2c-32.2-9.5-76-34.7-98.5-60.9c0,0,5.7,26.3,14.9,45.2
			c-31.7-16.8-55.5-33.6-75.4-55.6c0,0,1,25.1,1.8,40.9c-28.6-17.9-43-46.2-43-46.2c-1.2,16.8,4.4,42,17,61c0,0-32.6-6.3-53.2-28.4
			c0,0,0.6,28.4,14.3,55.4c-17.8-4.7-32-16.4-42.4-28.3c0,24.2,2.9,47.4,8.1,69.2c-20.1-31.3-31.9-69-31.9-109.6
			C531.7,161.2,615.6,73.3,719.2,73.3 M719.2,70.3c-25.7,0-50.7,5.3-74.2,15.7c-22.7,10.1-43.1,24.4-60.6,42.8
			c-17.5,18.3-31.2,39.6-40.8,63.4c-9.9,24.6-15,50.7-15,77.6c0,39.9,11.2,78.3,32.4,111.3l9.5,14.8l-4.1-17.2
			c-4.7-19.6-7.3-40-7.9-60.8c11.8,11.9,24.7,19.8,38.5,23.5l6.5,1.7l-3-6c-9-17.7-12.2-36.2-13.3-46.4c20.7,18,47.7,23.4,49,23.7
			l7,1.4l-4-6c-10.2-15.3-15.2-33.9-16.4-48.4c6.8,10.1,19.5,26.1,38.4,37.9l4.9,3.1l-0.3-5.8c-0.5-10.1-1.1-24.1-1.5-32.8
			c18.2,18.5,40.3,34.3,70.7,50.3l8.1,4.3l-4-8.3c-5.3-10.8-9.4-24.2-11.9-33.5c25.3,24.6,64.6,45.4,91.9,53.4l7.8,2.3l-4.4-6.8
			c-6-9.2-10.8-19.7-14.3-28.1c18.3,19.8,48.5,45,67.9,60.5c-1.2,7.1-2.5,14.1-4.1,20.6l-4.1,17.2l9.5-14.8
			c21.2-32.9,32.4-71.4,32.4-111.3c0-26.9-5-53-15-77.6c-9.6-23.7-23.3-45.1-40.8-63.4s-37.9-32.7-60.6-42.8
			C769.9,75.6,744.9,70.3,719.2,70.3L719.2,70.3z"/>
	</g>
	<path class="st17" d="M736.4,74.1c38.8,18,87.4,50.1,101.7,101.5c17.8,64,10.9,112.4,0.5,147.1c14.5,12.9,29.8,25.5,40.6,34.1
		c-1.2,7.7-2.7,15.2-4.4,22.6c20.1-31.3,31.9-69,31.9-109.6C906.7,167.3,831.9,83.2,736.4,74.1z"/>
	<path class="st18" d="M616.3,114.5c0,0,1.6-0.3,4.7-0.8s7.6-1.3,13.4-1.9c11.5-1.3,28.1-2.9,48.1-2.6c10,0.1,20.8,0.6,32.2,1.8
		c11.4,1.2,23.4,3.1,35.6,6.2c12.2,3.1,24.6,7.1,36.7,12.8c12,5.7,23.6,12.9,33.9,21.8c2.7,2.1,5,4.6,7.4,7l1.8,1.8
		c0.7,0.7,1.1,1.3,1.7,1.9l3.3,3.7c2.2,2.4,4.2,5.2,6.4,7.8c2.1,2.6,3.9,5.4,5.9,8.1c7.6,10.9,13.6,22.5,18.5,34.1
		c5,11.6,8.6,23.2,11.4,34.4c2.8,11.2,4.6,21.9,5.8,31.8c2.4,19.9,2.1,36.6,1.6,48.2c-0.3,5.8-0.8,10.4-1.1,13.4
		c-0.4,3.1-0.6,4.7-0.6,4.7s0.2-1.7,0.3-4.8c0.2-3.1,0.2-7.7,0.2-13.5c0-11.6-0.9-28.1-3.9-47.7c-1.6-9.8-3.8-20.2-6.8-31.1
		c-3-10.9-7-22.1-11.9-33.3c-5-11.2-11.1-22.3-18.5-32.9c-1.9-2.6-3.7-5.3-5.7-7.8l-3-3.7c-1-1.3-2-2.5-3.1-3.7l-3.3-3.7
		c-0.5-0.6-1.2-1.3-1.6-1.8L824,163c-2.3-2.3-4.5-4.6-7.1-6.6c-9.7-8.5-20.8-15.5-32.4-21c-11.6-5.5-23.5-9.8-35.4-12.9
		c-23.8-6.3-46.8-8.8-66.6-9.8c-19.8-0.9-36.3-0.5-47.9,0.3c-5.8,0.4-10.3,0.7-13.4,1C617.9,114.3,616.3,114.5,616.3,114.5z"/>
	<path class="st19" d="M605.8,121.8c0,0-1.3,2.9-3.2,8.1c-1,2.6-2.1,5.7-3.3,9.4c-1.3,3.6-2.5,7.8-3.9,12.3
		c-1.3,4.5-2.6,9.5-3.8,14.7c-1.3,5.2-2.2,10.8-3.2,16.6c-0.8,5.8-1.6,11.8-1.9,17.9c-0.5,6.1-0.4,12.3-0.1,18.5
		c0.3,3.1,0.3,6.2,0.8,9.2c0.2,1.5,0.4,3,0.6,4.6c0.2,1.5,0.6,3,0.8,4.5c1.1,6,2.7,11.7,4.6,17.2c0.9,2.8,2.1,5.3,3.1,7.9
		c1.1,2.6,2.4,5,3.5,7.4c1.2,2.4,2.6,4.5,3.9,6.7c1.2,2.2,2.7,4.1,4,6.1c0.7,1,1.3,1.9,2,2.8c0.7,0.9,1.4,1.7,2.1,2.6
		c1.4,1.7,2.5,3.3,3.8,4.7c2.6,2.7,4.8,5.3,6.8,7.2c4,3.8,6.3,6,6.3,6s-2.6-1.8-7.1-5.1c-2.2-1.6-4.7-3.9-7.7-6.5
		c-1.5-1.3-2.8-2.8-4.4-4.4c-0.8-0.8-1.5-1.6-2.3-2.4c-0.8-0.8-1.5-1.8-2.3-2.7c-1.5-1.9-3.2-3.8-4.7-5.9c-1.4-2.2-3-4.4-4.5-6.8
		c-1.3-2.4-2.8-4.9-4.1-7.5c-0.6-1.3-1.2-2.7-1.8-4c-0.6-1.4-1.3-2.7-1.8-4.2c-0.5-1.4-1-2.9-1.6-4.3l-0.8-2.2L585,248
		c-0.4-1.5-0.9-3-1.3-4.5c-0.4-1.5-0.7-3.1-1-4.7c-0.3-1.6-0.7-3.1-0.9-4.7c-0.2-1.6-0.4-3.2-0.7-4.8c-0.5-3.2-0.6-6.4-0.9-9.7
		c-0.2-6.5-0.2-12.9,0.3-19.3c0.4-6.3,1.5-12.5,2.5-18.4c1.2-5.9,2.5-11.6,4.1-16.8c1.5-5.3,3.2-10.2,4.9-14.7
		c3.4-8.9,6.9-16.1,9.5-21C604,124.5,605.8,121.8,605.8,121.8z"/>
	<path class="st17" d="M563.6,379.4c-3.2-13.4-5.5-27.3-6.8-41.7c-9.6-9.9-16.8-21.5-22.1-33.1C539.3,331.9,549.3,357.2,563.6,379.4
		z"/>
	<g class="st1">
		<path class="st20" d="M819.9,327.2c-4.6-7.1-8.6-15-11.7-22.1c-43.1-7.8-86.7-38.9-86.7-38.9C743.9,292.5,787.7,317.8,819.9,327.2
			z"/>
	</g>
	<g class="st1">
		<path class="st20" d="M726.6,285.7c-22.8,4.9-65.6-29.8-65.6-29.8c19.9,21.9,43.7,38.8,75.4,55.6
			C732.4,303.3,729.1,293.8,726.6,285.7z"/>
	</g>
	<path class="st17" d="M661.9,278.5c-18.8,0.9-42.2-28-42.2-28l0.7,1.3c3.2,5.8,17.4,29.3,42.3,44.9
		C662.5,291.3,662.2,284.8,661.9,278.5z"/>
	<path class="st17" d="M721.4,266.3c0,0-65.2-55.7-97.3-121.9c39.4,52,116.4,140.2,184,160.7c-19.2,0.1-43.8-8.4-43.8-8.4
		L721.4,266.3z"/>
	<path class="st18" d="M610.5,118.2c0,0,2.8,3.5,7.7,9.6c2.5,3,5.4,6.7,8.9,10.9s7.4,8.9,11.6,14.1c4.3,5.1,8.9,10.7,13.9,16.5
		c5,5.8,10.2,11.9,15.7,18.2c2.8,3.1,5.5,6.3,8.4,9.5s5.8,6.4,8.7,9.6c5.8,6.6,12,12.9,18.1,19.4c6.1,6.5,12.4,12.7,18.5,19
		c6.3,6,12.4,12.1,18.4,17.8c6.2,5.5,12.1,11.1,17.8,16.1c5.9,4.9,11.3,9.6,16.4,13.9c5.3,4.1,10.1,7.8,14.4,11.1
		c1.1,0.8,2.1,1.6,3.1,2.4s2,1.4,3,2.1c1.9,1.3,3.7,2.5,5.3,3.6c6.4,4.4,10.1,7,10.1,7s-3.9-2.2-10.8-5.9c-1.7-1-3.6-2-5.7-3.2
		c-1-0.6-2.1-1.1-3.2-1.8c-1.1-0.7-2.2-1.4-3.3-2.2c-4.5-3-9.7-6.4-15.2-10.2c-5.4-4-11.2-8.4-17.3-13.1c-6-4.8-12.1-10.1-18.5-15.6
		c-6.2-5.6-12.6-11.5-19-17.6c-6.2-6.3-12.6-12.5-18.8-19c-6-6.6-12.3-13-18-19.7c-5.9-6.6-11.5-13.1-16.8-19.6
		c-5.4-6.4-10.4-12.8-15.2-18.8s-9.1-11.9-13.1-17.2c-7.9-10.8-14.3-19.9-18.7-26.5c-2.2-3.2-3.8-5.8-5-7.6
		C611.1,119.1,610.5,118.2,610.5,118.2z"/>
	<path class="st17" d="M616.3,118.2c0,0,175,44.1,229.1,200.6c4.5,12.9,21-35.8,24.8-21.5C870.2,260.5,824.1,118.2,616.3,118.2z"/>
	<path class="st17" d="M625.8,289c-19.6,12.9-42.2-5.9-42.2-5.9c20.6,22.1,53.2,28.4,53.2,28.4C632.2,304.6,628.5,296.8,625.8,289z"
		/>
	<path class="st17" d="M589.6,317.4c-18.8,5.2-34.1-7.2-34.1-7.2c10.4,11.9,24.6,23.6,42.4,28.3
		C594.3,331.3,591.6,324.1,589.6,317.4z"/>
	<path class="st21" d="M610.5,118.2c0,0,4.5,13.4,12.5,32.8c2,4.9,4.3,10.1,6.7,15.6c2.5,5.5,5.2,11.2,8,17.1c2.8,5.9,6,11.9,9.2,18
		c1.6,3,3.3,6,5,9.1c1.8,3,3.5,6,5.3,9c3.6,6,7.2,11.9,11.1,17.6c1.9,2.9,3.8,5.6,5.8,8.4c1.9,2.8,3.9,5.4,5.9,8
		c1.9,2.6,4,5.1,5.9,7.6c1.9,2.5,3.9,4.8,5.9,7.1c1.9,2.3,3.9,4.4,5.8,6.5s3.7,4.1,5.6,5.9c3.6,3.8,7.1,7,10.2,10
		c3.2,2.9,6,5.3,8.3,7.3c4.8,3.9,7.5,6.1,7.5,6.1s-3-1.8-8.3-5.1c-2.5-1.8-5.7-3.9-9.1-6.5c-1.7-1.3-3.5-2.8-5.4-4.2
		c-1.9-1.5-3.8-3.2-5.8-5c-2-1.7-4-3.6-6.1-5.6c-2.1-2-4.2-4.1-6.3-6.3c-4.2-4.4-8.5-9.2-12.7-14.4c-2.1-2.6-4.2-5.2-6.3-8
		c-1-1.4-2.1-2.7-3.1-4.1c-1-1.4-2-2.8-3-4.3c-4-5.7-7.8-11.7-11.5-17.8c-1.8-3-3.5-6.1-5.3-9.2c-1.7-3.1-3.4-6.2-5-9.3
		s-3.2-6.2-4.6-9.3c-1.5-3.1-2.9-6.1-4.2-9.2c-2.7-6-5.1-12-7.3-17.7c-2.2-5.7-4.1-11.1-5.7-16.1c-1.7-5-3.1-9.7-4.2-13.8
		c-1.2-4.1-2.1-7.8-2.8-10.8C611.1,121.6,610.5,118.2,610.5,118.2z"/>
	<path class="st21" d="M597.9,127.6c0,0-0.5,0.7-1.5,2c-0.9,1.3-2.2,3.3-3.9,5.8c-1.6,2.5-3.5,5.6-5.6,9.3c-2,3.7-4.3,7.8-6.5,12.4
		c-2.2,4.6-4.5,9.7-6.6,15.2c-2.2,5.4-4,11.3-5.9,17.5c-1.7,6.2-3.2,12.6-4.3,19.2c-0.7,3.3-1,6.6-1.4,10s-0.6,6.8-0.8,10.1
		c-0.3,6.8-0.3,13.6,0.3,20.2c0.1,1.7,0.3,3.3,0.4,5c0.2,1.6,0.4,3.3,0.7,4.9c0.2,1.6,0.4,3.2,0.7,4.8c0.3,1.6,0.6,3.2,0.9,4.7
		c0.3,1.6,0.6,3.1,1,4.6s0.8,3,1.2,4.5c0.4,1.5,0.8,3,1.1,4.4c0.5,1.4,0.9,2.8,1.4,4.2c1.7,5.6,3.8,10.7,5.6,15.5
		c1.1,2.3,2.1,4.6,3,6.7c0.5,1.1,0.9,2.1,1.4,3.1s1,1.9,1.5,2.9c2,3.7,3.5,7,5.1,9.5c3.1,5.2,4.8,8.2,4.8,8.2s-2-2.8-5.5-7.7
		c-1.8-2.4-3.6-5.6-5.8-9.2c-0.5-0.9-1.1-1.8-1.7-2.8c-0.5-1-1.1-2-1.6-3.1c-1.1-2.1-2.2-4.3-3.4-6.6c-2.1-4.7-4.5-9.8-6.4-15.5
		c-0.5-1.4-1-2.8-1.5-4.3c-0.4-1.5-0.9-3-1.3-4.5s-0.9-3-1.3-4.6c-0.4-1.5-0.7-3.1-1.1-4.7c-0.3-1.6-0.7-3.2-1.1-4.8
		c-0.3-1.6-0.5-3.3-0.8-4.9c-0.3-1.7-0.5-3.3-0.8-5c-0.2-1.7-0.3-3.4-0.5-5.1c-0.7-6.8-0.7-13.8-0.5-20.8c0.2-3.5,0.5-7,0.9-10.4
		c0.5-3.4,0.8-6.9,1.5-10.2c1.1-6.8,3-13.3,4.8-19.5c2-6.2,4.1-12.1,6.5-17.6c1.1-2.8,2.4-5.4,3.6-7.9c1.3-2.5,2.5-4.9,3.7-7.2
		c2.4-4.6,5-8.6,7.3-12.1s4.4-6.5,6.3-8.9c1.8-2.4,3.3-4.2,4.4-5.5C597.3,128.3,597.9,127.6,597.9,127.6z"/>
	<path class="st21" d="M620.6,119.4c0,0,1.4,0.1,4,0.3c2.6,0.2,6.4,0.6,11.3,1.2c4.8,0.7,10.7,1.6,17.4,2.9
		c3.4,0.6,6.9,1.4,10.7,2.1c3.7,0.8,7.7,1.8,11.7,2.8c8.1,2.1,16.9,4.6,26,7.8c4.6,1.5,9.2,3.3,14,5c2.3,1,4.7,1.9,7.1,2.9
		c2.4,1,4.8,2,7.2,3.1c2.4,1.1,4.8,2.2,7.3,3.3c2.4,1.2,4.8,2.4,7.2,3.6c4.9,2.3,9.7,5.1,14.5,7.8c2.4,1.3,4.7,2.9,7.1,4.3
		c2.4,1.5,4.8,2.9,7.1,4.5c4.6,3.2,9.4,6.2,13.8,9.8l6.7,5.2l6.4,5.5c4.3,3.6,8.3,7.6,12.3,11.4c2,1.9,3.9,3.9,5.8,6
		c1.9,2,3.7,4.1,5.5,6.1c3.5,4.2,6.8,8.4,10.1,12.6c3,4.4,6,8.6,8.8,12.9c2.6,4.4,5.1,8.7,7.5,12.9c2.1,4.3,4.2,8.6,6.3,12.7
		c1.9,4.1,3.4,8.3,5,12.2c1.7,3.9,2.8,7.8,3.9,11.4c0.6,1.8,1.1,3.6,1.7,5.4c0.5,1.7,1.1,3.4,1.4,5.1c0.8,3.3,1.5,6.4,2.2,9.3
		c0.6,2.9,1.4,5.5,1.6,7.9c0.8,4.8,1.3,8.6,1.7,11.2s0.6,4,0.6,4s-0.3-1.4-0.9-3.9c-0.6-2.6-1.5-6.3-2.5-11c-0.4-2.4-1.3-5-2.1-7.8
		s-1.7-5.8-2.7-9.1c-0.4-1.6-1.1-3.3-1.7-4.9c-0.6-1.7-1.3-3.4-2-5.2c-1.4-3.5-2.6-7.3-4.4-11.1c-1.8-3.8-3.4-7.7-5.4-11.7
		c-2.1-3.9-4.3-8-6.6-12.2c-2.5-4-5.1-8.1-7.8-12.3c-2.9-4-5.9-8.1-8.9-12.3c-3.3-4-6.6-8.1-10.1-12c-1.8-1.9-3.7-3.9-5.5-5.8
		c-1.8-2-3.6-4-5.7-5.8c-3.9-3.7-7.8-7.6-12.1-11l-6.3-5.3l-6.6-5c-4.3-3.5-8.9-6.4-13.4-9.6c-2.2-1.6-4.6-3-6.9-4.4
		c-2.3-1.4-4.6-3-7-4.3c-4.7-2.6-9.4-5.5-14.1-7.9c-2.4-1.2-4.7-2.5-7-3.7c-2.4-1.1-4.7-2.3-7.1-3.4c-4.6-2.3-9.4-4.2-13.9-6.3
		c-4.6-1.9-9.1-3.8-13.6-5.4c-4.5-1.7-8.8-3.3-13.1-4.7c-4.2-1.5-8.4-2.8-12.3-4c-8-2.4-15.3-4.5-21.9-6.2s-12.3-2.9-17.1-3.9
		c-4.8-0.9-8.5-1.7-11.1-2.1C622,119.6,620.6,119.4,620.6,119.4z"/>
</g>
<g id="weapon_1_" class="st0">
	<g class="st1">
		<path class="st22" d="M501.7,525.3c0,0-59.8-107.7-74.1-133.5c-14.4-25.9-14.5-56.7-0.2-64.6c2.4-1.3,5.2-2,8.4-2
			c15.1,0,34.6,15.3,46.3,36.4l74.8,134.9l-27.2,15.1l-27.2,15.1L501.7,525.3z"/>
		<path class="st3" d="M435.7,326.7c13.8,0,33.1,14.2,45,35.6c14.3,25.8,74.1,133.5,74.1,133.5l-25.9,14.4L503,524.6
			c0,0-59.8-107.7-74.1-133.5s-14-55.2-0.8-62.5C430.3,327.3,432.9,326.7,435.7,326.7 M435.7,323.7c-3.4,0-6.4,0.7-9.1,2.2
			c-15.2,8.4-15.3,39.5-0.3,66.6c14.3,25.8,74.1,133.5,74.1,133.5l1.5,2.6l2.6-1.5l25.9-14.4l25.9-14.4l2.6-1.5l-1.5-2.6
			l-74.1-133.5C471.3,339.3,451.3,323.7,435.7,323.7L435.7,323.7z"/>
	</g>
	<path class="st23" d="M428.9,391c14.3,25.8,74.1,133.5,74.1,133.5l25.9-14.4L428,328.5C414.8,335.8,414.6,365.2,428.9,391z"/>
	<g class="st1">
		<path class="st24" d="M587,635.3c-0.5,0-1-0.2-1.3-0.7l-67.1-104.3c-0.2-0.3-0.3-0.8-0.2-1.2s0.4-0.7,0.7-0.9l30.4-16.9
			c0.2-0.1,0.5-0.2,0.7-0.2s0.3,0,0.5,0.1c0.4,0.1,0.7,0.4,0.9,0.8l53,112.1c0.3,0.7,0.1,1.6-0.6,2l-16.3,9.1
			C587.5,635.3,587.2,635.3,587,635.3z"/>
		<path class="st3" d="M550.3,512.7l53,112.1l-16.3,9.1l-67.1-104.3L550.3,512.7 M550.3,509.7c-0.5,0-1,0.1-1.5,0.4l-30.4,16.8
			c-0.7,0.4-1.3,1.1-1.5,1.9c-0.2,0.8-0.1,1.7,0.4,2.4l67.1,104.3c0.6,0.9,1.5,1.4,2.5,1.4c0.5,0,1-0.1,1.5-0.4l16.3-9.1
			c1.4-0.8,1.9-2.5,1.3-3.9l-53-112.1c-0.4-0.7-1-1.3-1.8-1.6C550.9,509.7,550.6,509.7,550.3,509.7L550.3,509.7z"/>
	</g>
	<polygon class="st25" points="598.8,627.3 603.3,624.8 556,525.3 547.4,531.8 	"/>
	<g class="st1">
		<path class="st24" d="M595.1,642.3c-4.7,0-9.1-2.6-11.4-6.7c-1.7-3-2.1-6.6-1.1-9.9c1-3.3,3.2-6.1,6.2-7.8
			c1.9-1.1,4.1-1.6,6.3-1.6c4.7,0,9.1,2.6,11.4,6.7c3.5,6.3,1.2,14.2-5.1,17.7C599.5,641.8,597.3,642.3,595.1,642.3z"/>
		<path class="st3" d="M595.1,617.8c4.1,0,8,2.1,10.1,5.9c3.1,5.6,1.1,12.6-4.5,15.7c-1.8,1-3.7,1.4-5.6,1.4c-4.1,0-8-2.1-10.1-5.9
			c-3.1-5.6-1.1-12.6,4.5-15.7C591.3,618.3,593.2,617.8,595.1,617.8 M595.1,614.8L595.1,614.8c-2.5,0-4.9,0.6-7,1.8
			c-3.4,1.9-5.8,5-6.9,8.7s-0.6,7.7,1.3,11c2.6,4.6,7.4,7.5,12.7,7.5c2.4,0,4.9-0.6,7-1.8c7-3.9,9.5-12.7,5.7-19.7
			C605.3,617.7,600.4,614.8,595.1,614.8L595.1,614.8z"/>
	</g>
	<g class="st1">
		<path class="st26" d="M594.6,617.8c0.9,0.8,1.6,1.7,2.2,2.8c3.1,5.6,1.1,12.6-4.5,15.7c-1.6,0.9-3.3,1.3-5.1,1.4
			c3.6,3.3,9,4.2,13.5,1.7c5.6-3.1,7.6-10.1,4.5-15.7C603,619.8,598.8,617.6,594.6,617.8z"/>
	</g>
	<g class="st1">
		<path class="st24" d="M499.8,555.7c-4.9,0-9.5-2.7-11.9-7c-1.8-3.2-2.2-6.8-1.2-10.3s3.3-6.4,6.5-8.1l71.9-39.8
			c2-1.1,4.3-1.7,6.6-1.7c4.9,0,9.5,2.7,11.9,7c3.6,6.6,1.3,14.8-5.3,18.5l-71.9,39.8C504.3,555.1,502.1,555.7,499.8,555.7z"/>
		<g>
			<path class="st3" d="M571.6,490.2c4.2,0,8.4,2.2,10.6,6.2c3.2,5.8,1.1,13.2-4.7,16.4l-71.9,39.8c-1.9,1-3.9,1.5-5.9,1.5
				c-4.2,0-8.4-2.2-10.6-6.2c-3.2-5.8-1.1-13.2,4.7-16.4l71.9-39.8C567.6,490.7,569.6,490.2,571.6,490.2 M571.6,487.2L571.6,487.2
				c-2.5,0-5.1,0.7-7.3,1.9l-71.9,39.8c-3.5,2-6.1,5.2-7.2,9c-1.1,3.9-0.6,7.9,1.3,11.5c2.7,4.8,7.7,7.8,13.2,7.8
				c2.5,0,5.1-0.7,7.3-1.9l71.9-39.8c7.3-4,9.9-13.2,5.9-20.5C582.1,490.2,577.1,487.2,571.6,487.2L571.6,487.2z"/>
		</g>
	</g>
	<path class="st27" d="M565.8,491.7L547.2,502c6.6-0.3,13.4,13,13,20.4l17.3-9.6c5.8-3.2,7.9-10.6,4.7-16.4
		C578.9,490.6,571.6,488.5,565.8,491.7z"/>
</g>
<g id="hand_1_" class="st0">
	<g class="st1">
		<path class="st5" d="M781.5,658.2c-22,0-39.8-17.9-39.8-39.8c0-22,17.9-39.8,39.8-39.8s39.8,17.9,39.8,39.8
			C821.4,640.4,803.5,658.2,781.5,658.2z"/>
		<g>
			<path class="st3" d="M781.5,580.1c21.2,0,38.3,17.2,38.3,38.3s-17.2,38.3-38.3,38.3c-21.2,0-38.3-17.2-38.3-38.3
				S760.4,580.1,781.5,580.1 M781.5,577.1c-22.8,0-41.3,18.5-41.3,41.3s18.5,41.3,41.3,41.3s41.3-18.5,41.3-41.3
				C822.9,595.6,804.3,577.1,781.5,577.1L781.5,577.1z"/>
		</g>
	</g>
	<path class="st6" d="M819.9,618.4c0-0.1,0-0.1,0-0.2c-12.4,18.8-34.1,20.1-48,11.7c-14.8-8.9-18.6-25.6-16.4-39.5
		c-7.5,7-12.2,16.9-12.2,28c0,21.2,17.2,38.3,38.3,38.3C802.7,656.7,819.9,639.6,819.9,618.4z"/>
	<g class="st1">
		<path class="st5" d="M565.6,614.1c-22,0-39.8-17.9-39.8-39.8c0-22,17.9-39.8,39.8-39.8c22,0,39.8,17.9,39.8,39.8
			C605.5,596.2,587.6,614.1,565.6,614.1z"/>
		<g>
			<path class="st3" d="M565.6,535.9c21.2,0,38.3,17.2,38.3,38.3c0,21.2-17.2,38.3-38.3,38.3c-21.2,0-38.3-17.2-38.3-38.3
				C527.3,553,544.5,535.9,565.6,535.9 M565.6,532.9c-22.8,0-41.3,18.5-41.3,41.3s18.5,41.3,41.3,41.3c22.8,0,41.3-18.5,41.3-41.3
				C607,551.4,588.4,532.9,565.6,532.9L565.6,532.9z"/>
		</g>
	</g>
	<path class="st6" d="M604,574.2c0-0.1,0-0.1,0-0.2c-12.4,18.8-34.1,20.1-48,11.7c-14.8-8.9-18.6-25.6-16.4-39.5
		c-7.5,7-12.2,16.9-12.2,28c0,21.2,17.2,38.3,38.3,38.3C586.8,612.6,604,595.4,604,574.2z"/>
</g>
<g id="body_16_">
	<ellipse class="st28" cx="719.5" cy="750.9" rx="145.6" ry="23.3"/>
	<path class="st29" d="M572.6,532.4c0,0,162.2,42.7,282.6,0c-32.3,28.8-35.8,38.1-36.6,51.2c-0.9,13.1-8.7,39.5-27.9,53.5
		s-42,16-50.6,41.9c-10.5,31.4-64.7,41.1-20.6,72c-32.6-10.1-45.7-32.7-37.9-59.8c7.8-27-36.9-18.6-46.2-55.8
		c-9.1-36.4-17-39.9-31.4-48.8C578.7,570.8,597,547.2,572.6,532.4z"/>
	<path class="st30" d="M628,595.6c0,0,30.1,47.1,69.3,37.9s54.5-34.5,102.9-31.4c-14-4.8-48-7.4-74.6,10.5
		C699.1,630.5,655,621.3,628,595.6z"/>
	<path class="st31" d="M677.3,646.9c0,0,26.2,14.5,54.7-7c28.5-21.5,56.4-16.9,56.4-16.9c-15.1,2.9-40.1,10.5-52.3,25.6
		C723.8,663.8,689.5,663.8,677.3,646.9z"/>
	<path class="st32" d="M673.1,583.3c0,0,13,18.4,32.6,6.6c19.6-11.8,30.5-9.1,37.5-1.4c-1.9-7.4-15.1-18-28.1-11.5
		C702,583.7,684.2,592,673.1,583.3z"/>
	<rect x="621.5" y="462.6" class="st29" width="187.5" height="102.9"/>
</g>
<g id="head_16_">
	<g>
		<path d="M563.9,383.9c-0.2,0-0.3,0-0.5-0.1c-0.4-0.1-0.7-0.4-0.9-0.8c-0.1-0.2-9.1-19.9-11-43.8c-2.6-31.8,8.3-56.5,31.6-71.5
			c23.6-15.1,36.3-29,38.9-42.6c2.2-11.4-3.2-20.7-8-28.9l-0.9-1.6c-3.4-5.8-3.4-13.5-0.1-21.7c5.8-14.3,23-32.7,54.2-41.6
			c20.7-5.9,34.4-18.1,37.7-33.6c2.2-10.1-0.8-19.9-7.7-25.7c-6.5-5.5-9.2-9.9-7.9-13.2c0.7-1.8,2.8-4,9.2-4
			c4.7,0,10.8,1.2,17.6,3.3c16,5.1,42.8,23.1,49.7,45.6c3.7,12,1.3,23.5-7.1,34.3c-9.3,11.9-12.5,22.1-9.8,31.3
			c4.2,14.5,23.2,27,61.4,40.5c46.8,16.5,77.4,47.2,82,82.2c3.9,29.8-11.6,58.9-42.4,80c-0.3,0.2-0.6,0.3-0.8,0.3
			c-0.3,0-0.6-0.1-0.9-0.3c-49.4-35.4-109.1-42.8-150.4-42.8c-23.8,0-40.4,2.5-42.7,2.9l-90.5,51.3
			C564.4,383.8,564.2,383.9,563.9,383.9z"/>
		<path d="M698.5,56.4c4.4,0,10.3,1.1,17.2,3.3c21.8,7,69.8,41.9,41.9,77.6s0,55.7,52.3,74.1C901.4,243.7,918,323.9,849.1,371
			c-50.3-36-111.2-43.1-151.3-43.1c-25.9,0-43.2,3-43.2,3l-90.7,51.5c0,0-35.8-77.6,20.1-113.4c55.8-35.8,40.1-58.4,30.5-75
			c-9.6-16.6,10.5-48.8,53.2-61.1c42.7-12.2,47.1-48,30.5-61.9C686.9,61.4,689,56.4,698.5,56.4 M698.5,53.4c-7.3,0-9.8,2.7-10.6,5
			c-1.5,4,1.3,8.9,8.4,14.9c6.5,5.5,9.3,14.8,7.2,24.3c-3.2,14.9-16.5,26.7-36.7,32.5c-31.7,9.1-49.3,27.9-55.2,42.4
			c-3.5,8.6-3.4,16.8,0.2,23c0.3,0.5,0.6,1,0.9,1.6c9.4,16.2,21.2,36.3-30.5,69.4c-13.3,8.5-22.7,20.1-27.9,34.3
			c-4.1,11.3-5.6,24.3-4.5,38.6c2,24.1,10.8,43.5,11.2,44.3c0.4,0.8,1,1.3,1.8,1.6c0.3,0.1,0.6,0.1,0.9,0.1c0.5,0,1-0.1,1.5-0.4
			l90.2-51.2c3-0.5,19.2-2.8,42.2-2.8c41.1,0,100.5,7.4,149.6,42.5c0.5,0.4,1.1,0.6,1.7,0.6c0.6,0,1.2-0.2,1.7-0.5
			c31.3-21.4,47-51.1,43.1-81.5c-2.2-17.1-10.7-33.6-24.5-47.9c-14.6-15.1-34.3-27-58.5-35.6c-37.7-13.3-56.4-25.5-60.5-39.5
			c-2.5-8.7,0.6-18.5,9.5-30c8.8-11.2,11.2-23.2,7.4-35.7c-7.1-23-34.5-41.4-50.7-46.6C709.6,54.6,703.3,53.4,698.5,53.4L698.5,53.4
			z"/>
	</g>
	<path class="st31" d="M654.3,137.7c-33.4,14.4-48.3,41.5-39.8,56.3c9.6,16.6,25.3,39.2-30.5,75s-20.1,113.4-20.1,113.4l3.1-1.8
		l5-16.8c0,0-23.8-44.8,9.3-75s60.5-75,50-99.4C624.8,174.1,638,154,654.3,137.7z"/>
	<path class="st31" d="M725.8,91.1c26.3,40.3-46.9,60-39.3,74.6c7.6,14.6,10.6,32.4-31.5,80.9c-37.6,43.4,1.3,79.2,10,86.4
		c1,0.9,1.6,1.3,1.6,1.3l45-29.8c-26.3-15.8-21.6-49.1-2.9-91.2c18.7-42.1-8.8-43.8,15.2-66.1C748,125,735.7,100.4,725.8,91.1z"/>
	<path class="st31" d="M776.5,293.9c0,0,39.5-24.3,7-53c-32.4-28.7-48.1-32.4-50.3-74.6c5.4,19.5,11.4,32.4,31.4,39.5
		c20,7,56.2,27.6,46,41.6c-10.3,14.1-8.1,26,8.7,49.2C779.8,307.4,776.5,293.9,776.5,293.9z"/>
	<path class="st31" d="M826,328.6c0,0,56.1-10.4,10.4-81.7c29.4,28.3,62.7,82.3-3.3,100.8C829.3,334.1,826,328.6,826,328.6z"/>
	<g>
		<path class="st33" d="M691.8,577.4c-20.1,0-36.4-16.3-36.4-36.4v-9.1c-49.7-22.9-81.8-73-81.8-127.7
			c0-77.5,63.1-140.6,140.6-140.6c77.5,0,140.6,63.1,140.6,140.6c0,55.1-32.4,105.3-82.5,128v8.8c0,20.1-16.3,36.4-36.4,36.4H691.8z
			"/>
		<path d="M714.2,265.1c76.8,0,139.1,62.3,139.1,139.1c0,56.7-33.9,105.4-82.5,127.1v9.7c0,19.3-15.6,34.9-34.9,34.9h-44.1
			c-19.3,0-34.9-15.6-34.9-34.9v-10.1c-48.2-21.8-81.8-70.4-81.8-126.7C575.1,327.3,637.4,265.1,714.2,265.1 M714.2,262.1
			c-38,0-73.6,14.8-100.5,41.6c-26.8,26.8-41.6,62.5-41.6,100.5c0,27.8,8.1,54.8,23.3,78c14.5,22,34.7,39.5,58.5,50.7v8.1
			c0,20.9,17,37.9,37.9,37.9h44.1c20.9,0,37.9-17,37.9-37.9v-7.8c24-11.1,44.4-28.6,59-50.7c15.4-23.2,23.5-50.3,23.5-78.3
			c0-38-14.8-73.6-41.6-100.5C787.9,276.8,752.2,262.1,714.2,262.1L714.2,262.1z"/>
	</g>
	<g>
		<path class="st34" d="M714.2,265.1c-3.7,0-7.4,0.2-11,0.5c71.7,5.6,128.1,65.5,128.1,138.6c0,56.7-33.9,105.4-82.5,127.1v9.7
			c0,19.3-15.6,34.9-34.9,34.9h22.1c19.3,0,34.9-15.6,34.9-34.9v-9.7c48.6-21.7,82.5-70.4,82.5-127.1
			C853.3,327.3,791,265.1,714.2,265.1z"/>
	</g>
	<polygon class="st34" points="715.8,475.7 715.8,451.4 738.6,489.1 	"/>
	<g>
		<path class="st35" d="M689.3,500.8c-0.5,0-1-0.3-1.3-0.7c-0.4-0.6-0.3-1.4,0.3-1.9l26.3-23.4c0.1-0.2,0.3-0.3,0.5-0.4
			c0.2-0.1,0.4-0.1,0.6-0.1c0,0,0,0,0.1,0c0.2,0,0.4,0,0.6,0.1c0.2,0.1,0.4,0.3,0.6,0.5l26.3,23.4c0.5,0.5,0.7,1.3,0.3,1.9
			c-0.3,0.5-0.8,0.7-1.3,0.7c-0.2,0-0.4,0-0.6-0.1l-25.9-10.5l-25.9,10.5C689.7,500.7,689.5,500.8,689.3,500.8z"/>
		<g>
			<path d="M715.8,475.7L715.8,475.7l26.4,23.6l-26.5-10.7l-26.5,10.7L715.8,475.7L715.8,475.7L715.8,475.7L715.8,475.7
				 M715.8,472.7c-0.3,0-0.6,0-0.9,0.1c-0.1,0-0.2,0.1-0.3,0.1c-0.4,0.2-0.8,0.5-1.1,0.8L687.3,497c-1.1,1-1.3,2.6-0.6,3.8
				c0.6,0.9,1.5,1.4,2.5,1.4c0.4,0,0.8-0.1,1.1-0.2l25.3-10.3l25.3,10.3c0.4,0.1,0.7,0.2,1.1,0.2c1,0,2-0.5,2.5-1.4
				c0.8-1.2,0.5-2.9-0.6-3.8l-26.1-23.2c-0.3-0.4-0.7-0.7-1.1-0.8C716.6,472.8,716.2,472.7,715.8,472.7L715.8,472.7z"/>
		</g>
	</g>
	<g>
		<path class="st36" d="M783.4,510.6v14.2c41.8-24,69.9-69,69.9-120.6c0-32.7-11.3-62.7-30.2-86.5c-16.5-16.3-36.2-30.6-57.6-42.6
			c-0.4-0.2-0.7-0.4-1.1-0.6c-15.6-6.1-32.5-9.4-50.3-9.4c-18.4,0-36,3.6-52.1,10.1c-20.2,11.4-38.9,24.8-54.9,40.1
			c-20,24.1-32.1,55.1-32.1,88.9c0,51.4,27.9,96.2,69.3,120.3v-13.8c-19.2-5.7-51.7-19.8-51.7-68.3c0-48.4,82.7-81.6,121.1-64.6v0.1
			c0,0,0.1,0,0.1,0c0,0,0.1,0,0.1,0v-0.1c38.4-17.1,121.1,16.1,121.1,64.6C835.1,490.8,802.6,504.9,783.4,510.6z"/>
	</g>
	<g>
		<path class="st37" d="M786,567.9c-0.3,0-0.5-0.1-0.8-0.2c-0.5-0.3-0.7-0.8-0.7-1.3v-64.2c0-0.7,0.4-1.2,1.1-1.4
			c35.3-10.6,52.5-33.3,52.5-69.4c0-18.3-11.9-36-33.4-50c-19.2-12.4-44.2-20.1-65.3-20.1c-9.5,0-17.7,1.5-24.5,4.5
			c0,0-0.1,0-0.1,0.1c-0.3,0.2-0.6,0.3-0.9,0.3c0,0-0.1,0-0.1,0c-0.3,0-0.6-0.1-0.8-0.3c0,0-0.1,0-0.1-0.1c-6.8-2.9-15-4.4-24.5-4.4
			c-21.1,0-46.1,7.7-65.3,20.1c-21.5,13.9-33.4,31.7-33.4,50c0,36.1,17.2,58.8,52.5,69.4c0.6,0.2,1.1,0.8,1.1,1.4v64.2
			c0,0.5-0.3,1-0.7,1.3c-0.2,0.1-0.5,0.2-0.8,0.2c-0.2,0-0.5-0.1-0.7-0.2c-0.2-0.1-24-12.8-47.4-37.5
			c-21.6-22.8-47.4-60.9-47.4-112.7c0-32.9,11-64.2,32.7-93.1c19.2-25.5,47-48.9,80.5-67.7c36.5-20.5,50.3-37.5,52.7-40.7
			c0.1-0.5,0.5-1,1-1.2c0.1,0,0.3-0.1,0.4-0.1c0,0,0.1,0,0.2,0c0.2,0,0.3,0,0.5,0.1c0.5,0.2,0.9,0.6,1,1.2
			c2.4,3.2,16.2,20.1,52.7,40.7c33.5,18.8,61.4,42.3,80.5,67.7c21.7,28.8,32.7,60.1,32.7,93.1c0,51.8-25.8,89.9-47.4,112.7
			c-23.4,24.7-47.1,37.4-47.4,37.5C786.4,567.9,786.2,567.9,786,567.9z"/>
		<path d="M714,216.4v0.3c1.6,2.3,15.1,19.9,53.4,41.4c63.5,35.7,112.5,90.7,112.5,159.5c0,99.3-94,148.9-94,148.9v-64.2
			c19.9-6,53.6-20.5,53.6-70.8c0-41.1-57.5-71.6-100.2-71.6c-9.4,0-18.2,1.5-25.4,4.7v0.1c0,0-0.1,0-0.1,0c0,0-0.1,0-0.1,0v-0.1
			c-7.2-3.2-15.9-4.7-25.4-4.7c-42.7,0-100.2,30.5-100.2,71.6c0,50.3,33.7,64.9,53.6,70.8v64.2c0,0-94-49.6-94-148.9
			c0-68.8,49-123.7,112.5-159.5c38.3-21.6,51.8-39.2,53.4-41.4v-0.3c0,0,0,0.1,0.1,0.1C714,216.4,714,216.4,714,216.4 M714,213.4
			C714,213.4,714,213.4,714,213.4c-0.1,0-0.1,0-0.2,0c-0.3,0-0.6,0-0.9,0.1c-0.9,0.3-1.6,1-1.9,1.9c-2.7,3.6-16.5,20.1-52.1,40
			c-33.7,18.9-61.7,42.5-81,68.1c-21.9,29.1-33,60.7-33,94c0,23.1,5,45.4,15,66.4c7.9,16.8,19,32.7,32.8,47.3
			c23.6,24.9,46.8,37.3,47.8,37.8c0.4,0.2,0.9,0.3,1.4,0.3c0.5,0,1.1-0.1,1.5-0.4c0.9-0.5,1.5-1.5,1.5-2.6v-64.2
			c0-1.3-0.9-2.5-2.1-2.9c-9-2.7-22.2-7.5-33-18c-12.2-12-18.5-28.8-18.5-49.9c0-17.7,11.6-35,32.7-48.7
			c19-12.3,43.7-19.9,64.5-19.9c9.2,0,17.1,1.4,23.6,4.2c0,0,0.1,0.1,0.2,0.1c0.5,0.3,1,0.5,1.6,0.5c0,0,0.1,0,0.1,0
			c0,0,0.1,0,0.1,0c0.6,0,1.1-0.2,1.6-0.5c0.1,0,0.1-0.1,0.2-0.1c6.5-2.8,14.5-4.2,23.6-4.2c20.8,0,45.5,7.6,64.5,19.9
			c21.1,13.7,32.7,31,32.7,48.7c0,21.1-6.2,37.9-18.5,49.9c-10.8,10.5-24,15.3-33,18c-1.3,0.4-2.1,1.5-2.1,2.9v64.2
			c0,1.1,0.6,2,1.5,2.6c0.5,0.3,1,0.4,1.5,0.4c0.5,0,1-0.1,1.4-0.3c1-0.5,24.2-12.9,47.8-37.8C849,516.6,860,500.7,868,484
			c9.9-21,15-43.3,15-66.4c0-33.2-11.1-64.9-33-94c-19.3-25.6-47.3-49.2-81-68.1c-35.5-20-49.3-36.4-52.1-40c-0.3-0.9-1-1.6-1.9-1.9
			C714.6,213.4,714.3,213.4,714,213.4L714,213.4z"/>
	</g>
	<g>
		<path class="st37" d="M786,567.9c-0.3,0-0.5-0.1-0.8-0.2c-0.5-0.3-0.7-0.8-0.7-1.3v-64.2c0-0.7,0.4-1.2,1.1-1.4
			c35.3-10.6,52.5-33.3,52.5-69.4c0-18.3-11.9-36-33.4-50c-19.2-12.4-44.2-20.1-65.3-20.1c-9.5,0-17.7,1.5-24.5,4.5
			c0,0-0.1,0-0.1,0.1c-0.3,0.2-0.6,0.3-0.9,0.3c0,0-0.1,0-0.1,0c-0.3,0-0.6-0.1-0.8-0.3c0,0-0.1,0-0.1-0.1c-6.8-2.9-15-4.4-24.5-4.4
			c-21.1,0-46.1,7.7-65.3,20.1c-21.5,13.9-33.4,31.7-33.4,50c0,36.1,17.2,58.8,52.5,69.4c0.6,0.2,1.1,0.8,1.1,1.4v64.2
			c0,0.5-0.3,1-0.7,1.3c-0.2,0.1-0.5,0.2-0.8,0.2c-0.2,0-0.5-0.1-0.7-0.2c-0.2-0.1-24-12.8-47.4-37.5
			c-21.6-22.8-47.4-60.9-47.4-112.7c0-32.9,11-64.2,32.7-93.1c19.2-25.5,47-48.9,80.5-67.7c36.5-20.5,50.3-37.5,52.7-40.7
			c0.1-0.5,0.5-1,1-1.2c0.1,0,0.3-0.1,0.4-0.1c0,0,0.1,0,0.2,0c0.2,0,0.3,0,0.5,0.1c0.5,0.2,0.9,0.6,1,1.2
			c2.4,3.2,16.2,20.1,52.7,40.7c33.5,18.8,61.4,42.3,80.5,67.7c21.7,28.8,32.7,60.1,32.7,93.1c0,51.8-25.8,89.9-47.4,112.7
			c-23.4,24.7-47.1,37.4-47.4,37.5C786.4,567.9,786.2,567.9,786,567.9z"/>
		<path d="M714,216.4v0.3c1.6,2.3,15.1,19.9,53.4,41.4c63.5,35.7,112.5,90.7,112.5,159.5c0,99.3-94,148.9-94,148.9v-64.2
			c19.9-6,53.6-20.5,53.6-70.8c0-41.1-57.5-71.6-100.2-71.6c-9.4,0-18.2,1.5-25.4,4.7v0.1c0,0-0.1,0-0.1,0c0,0-0.1,0-0.1,0v-0.1
			c-7.2-3.2-15.9-4.7-25.4-4.7c-42.7,0-100.2,30.5-100.2,71.6c0,50.3,33.7,64.9,53.6,70.8v64.2c0,0-94-49.6-94-148.9
			c0-68.8,49-123.7,112.5-159.5c38.3-21.6,51.8-39.2,53.4-41.4v-0.3c0,0,0,0.1,0.1,0.1C714,216.4,714,216.4,714,216.4 M714,213.4
			C714,213.4,714,213.4,714,213.4c-0.1,0-0.1,0-0.2,0c-0.3,0-0.6,0-0.9,0.1c-0.9,0.3-1.6,1-1.9,1.9c-2.7,3.6-16.5,20.1-52.1,40
			c-33.7,18.9-61.7,42.5-81,68.1c-21.9,29.1-33,60.7-33,94c0,23.1,5,45.4,15,66.4c7.9,16.8,19,32.7,32.8,47.3
			c23.6,24.9,46.8,37.3,47.8,37.8c0.4,0.2,0.9,0.3,1.4,0.3c0.5,0,1.1-0.1,1.5-0.4c0.9-0.5,1.5-1.5,1.5-2.6v-64.2
			c0-1.3-0.9-2.5-2.1-2.9c-9-2.7-22.2-7.5-33-18c-12.2-12-18.5-28.8-18.5-49.9c0-17.7,11.6-35,32.7-48.7
			c19-12.3,43.7-19.9,64.5-19.9c9.2,0,17.1,1.4,23.6,4.2c0,0,0.1,0.1,0.2,0.1c0.5,0.3,1,0.5,1.6,0.5c0,0,0.1,0,0.1,0
			c0,0,0.1,0,0.1,0c0.6,0,1.1-0.2,1.6-0.5c0.1,0,0.1-0.1,0.2-0.1c6.5-2.8,14.5-4.2,23.6-4.2c20.8,0,45.5,7.6,64.5,19.9
			c21.1,13.7,32.7,31,32.7,48.7c0,21.1-6.2,37.9-18.5,49.9c-10.8,10.5-24,15.3-33,18c-1.3,0.4-2.1,1.5-2.1,2.9v64.2
			c0,1.1,0.6,2,1.5,2.6c0.5,0.3,1,0.4,1.5,0.4c0.5,0,1-0.1,1.4-0.3c1-0.5,24.2-12.9,47.8-37.8C849,516.6,860,500.7,868,484
			c9.9-21,15-43.3,15-66.4c0-33.2-11.1-64.9-33-94c-19.3-25.6-47.3-49.2-81-68.1c-35.5-20-49.3-36.4-52.1-40c-0.3-0.9-1-1.6-1.9-1.9
			C714.6,213.4,714.3,213.4,714,213.4L714,213.4z"/>
	</g>
	<path class="st31" d="M713.9,364.6V216.5c0-0.1-0.1-0.1-0.1-0.1v0.3c-1.6,2.3-15.1,19.9-53.4,41.4
		c-63.5,35.7-112.5,90.7-112.5,159.5c0,99.3,94,148.9,94,148.9v-64.2c-19.9-6-53.6-20.5-53.6-70.8
		C588.3,381.2,674.1,346.8,713.9,364.6L713.9,364.6C713.9,364.6,713.9,364.6,713.9,364.6z"/>
	<path class="st31" d="M713.9,364.6V216.5c0-0.1-0.1-0.1-0.1-0.1v0.3c-1.6,2.3-15.1,19.9-53.4,41.4
		c-63.5,35.7-112.5,90.7-112.5,159.5c0,99.3,94,148.9,94,148.9v-64.2c-19.9-6-53.6-20.5-53.6-70.8
		C588.3,381.2,674.1,346.8,713.9,364.6L713.9,364.6C713.9,364.6,713.9,364.6,713.9,364.6z"/>
	<path class="st38" d="M706.7,267.1l-0.3-13.5c-0.1-4.5-0.3-9-0.5-13.5l0-0.1c0-0.9-0.4-1.7-1.1-2.3c-1.4-1.2-3.5-1.2-4.7,0.2
		l-4.1,4.4l-1,1.1l-1.1,1l-2.2,2.1l-2.2,2.1c-0.7,0.7-1.6,1.3-2.4,2l-4.8,4l-4.9,3.9c-1.6,1.3-3.4,2.5-5,3.8
		c-1.7,1.3-3.4,2.5-5.1,3.7c-1.7,1.3-3.4,2.4-5.2,3.7c3.9-1.6,7.7-3.4,11.5-5.4c1.9-1,3.8-1.9,5.6-3l5.5-3.2
		c1.8-1.1,3.6-2.3,5.4-3.5c0.9-0.6,1.8-1.2,2.7-1.8l2.6-1.9l2.6-2c0.4-0.3,0.8-0.6,1.2-0.9c-0.1,1.9-0.1,3.7-0.2,5.6l-0.3,13.5
		c-0.2,9-0.2,18-0.3,26.9c0,9,0.1,18,0.2,26.9c0.1,4.5,0.2,9,0.3,13.5c0.1,3.2,0.2,6.4,0.3,9.6c-0.8-0.1-1.6-0.2-2.4-0.2l-3.3-0.2
		c-1.1-0.1-2.2,0-3.3,0l-3.3,0.1c-1.1,0-2.2,0.2-3.3,0.3l-3.2,0.4c-1.1,0.1-2.1,0.4-3.2,0.6l-3.2,0.7c-1.1,0.2-2.1,0.5-3.1,0.8
		l-3.1,0.9c-1,0.3-2.1,0.6-3.1,1l-3,1.1c-1,0.4-2,0.7-3,1.2c-1.9,0.9-3.9,1.8-5.8,2.8l6.2-1.6c1-0.3,2.1-0.5,3.1-0.7l3.1-0.6
		c1-0.2,2.1-0.4,3.1-0.5l3.1-0.4c1-0.1,2.1-0.3,3.1-0.4l3.1-0.2c1,0,2.1-0.2,3.1-0.2l3.1,0c1,0,2.1-0.1,3.1,0l3.1,0.2
		c1,0.1,2,0.1,3,0.3l3,0.4c1,0.1,2,0.4,2.9,0.6l2.9,0.7c0.2,0,0.4,0.1,0.6,0.1c1.9,0.1,3.4-1.4,3.5-3.2l0-0.1
		c0.2-4.5,0.4-9,0.5-13.5c0.1-4.5,0.2-9,0.3-13.5c0.2-9,0.2-18,0.2-26.9C706.9,285.1,706.9,276.1,706.7,267.1z"/>
	<path class="st38" d="M645.8,303.9c-1,0.5-2.1,1-3.1,1.5l-2.9,1.6c-1.9,1.2-3.8,2.3-5.5,3.6c-1.8,1.2-3.5,2.6-5.3,3.9
		c-1.7,1.3-3.4,2.8-5.1,4.2l-4.8,4.4l-4.6,4.6l-4.4,4.8c-1.5,1.6-2.8,3.3-4.2,4.9c-1.4,1.6-2.7,3.4-4,5.1c-0.7,0.9-1.3,1.7-2,2.6
		l-1.8,2.7c-1.2,1.8-2.5,3.5-3.6,5.4c-1.1,1.8-2.3,3.7-3.4,5.5l-3.1,5.7c-1.1,1.9-1.9,3.9-2.8,5.8c-0.9,2-1.8,3.9-2.5,5.9l-2.3,6
		l2.8-5.8c0.9-2,2-3.8,3-5.7c1.1-1.9,2-3.8,3.2-5.6l3.4-5.4l3.7-5.3c1.2-1.8,2.5-3.4,3.8-5.1l2-2.5c0.7-0.8,1.4-1.6,2.1-2.4
		c1.4-1.6,2.7-3.3,4.2-4.8c1.5-1.5,2.9-3.1,4.4-4.6l4.5-4.5l4.7-4.3l4.9-4.1c1.7-1.3,3.3-2.6,5-3.8c1.7-1.2,3.4-2.5,5.2-3.6
		c1.7-1.2,3.6-2.2,5.3-3.3l0.6-0.3c-0.1,0.4-0.2,0.9-0.3,1.3c-0.5,2.2-0.9,4.5-1.3,6.8c-0.4,2.3-0.8,4.5-1.1,6.8
		c-0.3,2.3-0.7,4.5-1,6.8l-0.9,6.8c-0.3,2.3-0.4,4.6-0.7,6.9l-0.3,3.4c-0.1,1.1-0.1,2.3-0.2,3.5l-0.2,4.5l-2,0.7
		c-1.5,0.4-2.9,1-4.3,1.6c-1.4,0.6-2.8,1.1-4.2,1.8l-4.1,2c-1.4,0.7-2.7,1.5-4,2.2c-1.3,0.7-2.6,1.5-3.9,2.4
		c-1.3,0.8-2.6,1.6-3.8,2.5c-1.2,0.9-2.5,1.7-3.7,2.7c-1.2,1-2.4,1.9-3.5,2.9c-1.1,1-2.3,2-3.4,3.1c-1.1,1.1-2.2,2.2-3.2,3.3
		c-1,1.2-2.1,2.3-3,3.5c-1,1.2-2,2.4-2.8,3.6c-0.9,1.2-1.8,2.5-2.6,3.8c-0.9,1.3-1.6,2.7-2.4,4l-0.4,0.9c-3.6-2-7.3-3.9-11-5.7
		c-1.2-0.6-2.4-1.1-3.7-1.7c-1.2-0.6-2.5-1.1-3.7-1.6l-1.9-0.8c-0.6-0.2-1.2-0.5-1.9-0.7l-0.7-0.2l2-5.4c1.1-2.8,2-5.7,3.3-8.4
		l3.8-8.2c1.2-2.8,2.7-5.4,4.1-8c1.5-2.6,2.8-5.3,4.4-7.9l4.8-7.6c1.5-2.6,3.4-5,5.2-7.4c1.8-2.4,3.4-5,5.4-7.2l5.8-7l6.1-6.7
		c2-2.2,4.3-4.3,6.4-6.4c2.1-2.2,4.5-4.1,6.7-6.1c2.2-2.1,4.7-3.9,7-5.8c2.3-2,4.8-3.7,7.3-5.5c2.5-1.7,5-3.5,7.6-5.1
		c2.6-1.7,5.2-3.2,7.9-4.6c-2.8,1.2-5.6,2.5-8.3,3.9c-2.7,1.4-5.3,3-8,4.5c-2.6,1.7-5.2,3.2-7.7,5.1c-2.5,1.8-5.1,3.5-7.4,5.5
		c-2.4,1.9-4.9,3.7-7.2,5.8c-2.3,2.1-4.7,4-6.9,6.2l-6.6,6.5l-6.2,6.9c-2.1,2.2-3.9,4.8-5.9,7.2c-1.9,2.5-3.9,4.8-5.5,7.4l-5.2,7.7
		c-1.7,2.6-3.2,5.3-4.7,8c-1.5,2.7-3.2,5.3-4.5,8.1l-4,8.4c-1.4,2.7-2.4,5.7-3.6,8.6l-3.4,8.7c0,0,0,0.1,0,0.1
		c-0.6,1.6,0.3,3.4,1.9,3.9l0.3,0.1l3.5,1.3c0.6,0.2,1.2,0.5,1.8,0.7l1.8,0.8c1.2,0.5,2.4,1.1,3.5,1.6c1.2,0.6,2.4,1.1,3.5,1.7
		c2.3,1.2,4.7,2.3,7,3.6c2.3,1.2,4.6,2.5,6.9,3.8c0.1,0.1,0.2,0.1,0.3,0.2c1.7,0.8,3.7,0,4.5-1.8l0.1-0.1l0.8-1.8l0.9-1.8
		c0.7-1.2,1.3-2.4,2.1-3.5c0.7-1.2,1.5-2.3,2.4-3.4c0.8-1.1,1.7-2.2,2.6-3.3c0.9-1.1,1.9-2.1,2.8-3.2c1-1,2-2,3-3
		c1-1,2.1-1.9,3.1-2.9c1.1-0.9,2.2-1.8,3.3-2.7c1.1-0.9,2.3-1.7,3.4-2.5c1.1-0.9,2.3-1.6,3.5-2.4c1.2-0.8,2.4-1.5,3.6-2.2
		c1.2-0.7,2.4-1.4,3.7-2.1l3.8-1.9c1.3-0.6,2.6-1.1,3.9-1.7c1.3-0.6,2.6-1.1,4-1.5l4-1.4l0.1,0c1.3-0.5,2.3-1.7,2.3-3.2l0.1-6.7
		c0-1.1,0-2.2,0.1-3.3l0.2-3.4c0.2-2.2,0.2-4.5,0.5-6.7l0.7-6.7c0.3-2.2,0.6-4.5,0.9-6.7c0.3-2.2,0.7-4.5,1-6.7
		c0.7-4.4,1.4-8.9,2.3-13.3l0-0.3c0.1-0.5,0-1.1-0.2-1.6C648.7,303.9,647.1,303.3,645.8,303.9z"/>
	<path class="st38" d="M584,416.4c-4.8-1.7-9.7-3.4-14.5-5.1c-4.8-1.7-9.6-3.5-14.4-5.3l2-1l-0.7,3.3c-0.2,1.1-0.3,2.3-0.5,3.4
		c-0.2,1.1-0.3,2.3-0.3,3.4l-0.2,3.4c-0.1,1.1,0,2.3,0,3.4l0.1,3.4c0.1,1.1,0.2,2.3,0.3,3.4l0.4,3.4c0.1,1.1,0.4,2.2,0.6,3.4
		l0.6,3.4c0.2,1.1,0.4,2.2,0.8,3.3l0.9,3.3l0.9,3.3c0.3,1.1,0.8,2.1,1.2,3.2l2.4,6.4l-3.4-1.8l11.7-2.1l2.9-0.5
		c1-0.2,1.9-0.4,2.9-0.5l5.9-0.7l2.7-0.3l0.8,2.8c0.4,1.5,0.8,2.9,1.3,4.3c0.5,1.4,0.9,2.8,1.5,4.2c0.5,1.4,1.1,2.7,1.7,4.1
		c0.6,1.4,1.3,2.6,1.9,3.9c0.7,1.3,1.5,2.5,2.2,3.8l2.4,3.6l2.7,3.4l2.9,3.2c1,1,2.1,2,3.2,3c1,1,2.3,1.8,3.4,2.7
		c1.1,0.9,2.3,1.7,3.6,2.5c1.2,0.8,2.4,1.6,3.7,2.3l3.9,2.1l4,1.8c0.7,0.3,1.3,0.6,2,0.9l2.1,0.7l4.2,1.5l2.3,0.8l0,2.2
		c-0.1,7.3-0.2,14.5-0.3,21.8l-0.5,21.8l-0.1,3.9l-3.1-1.7l-3.1-1.7c-1.1-0.6-1.9-1.3-2.9-1.9c-0.9-0.7-1.9-1.3-2.8-1.9l-2.7-2.1
		c-0.9-0.7-1.8-1.4-2.7-2.1l-2.6-2.2l-2.6-2.2l-2.5-2.3l-2.5-2.3c-0.8-0.7-1.6-1.6-2.4-2.4c-1.6-1.6-3.2-3.2-4.7-4.8
		c-1.5-1.7-3-3.3-4.5-5l-4.1-5.3l4.7,4.8c0.8,0.8,1.7,1.5,2.5,2.3l2.5,2.2c1.6,1.5,3.4,2.9,5.1,4.3c0.9,0.7,1.7,1.4,2.6,2.1l2.6,2
		l2.6,2l2.7,1.9l2.7,1.9c0.9,0.7,1.8,1.2,2.7,1.9l2.7,1.8c0.9,0.6,1.9,1.1,2.8,1.7c0.9,0.5,1.9,1.2,2.8,1.6l2.8,1.3l-3.2,2.1
		L630,528c-0.2-7.3-0.2-14.5-0.3-21.8l2.3,3.1l-4.5-1.5l-2.3-0.7c-0.7-0.3-1.5-0.6-2.2-0.9l-4.4-1.9l-4.2-2.3
		c-1.4-0.7-2.8-1.6-4.1-2.5c-1.4-0.9-2.7-1.7-4-2.7c-1.3-1-2.6-1.9-3.8-3c-1.2-1.1-2.4-2.2-3.6-3.3l-3.3-3.6l-3-3.8l-2.7-4
		c-0.8-1.4-1.6-2.8-2.4-4.2c-0.7-1.5-1.5-2.9-2.1-4.4c-0.7-1.5-1.3-3-1.8-4.5c-0.6-1.5-1-3-1.5-4.5c-0.5-1.5-0.9-3-1.3-4.5l3.5,2.4
		l-5.7,0.6c-0.9,0.1-1.9,0.2-2.8,0.4l-2.8,0.4l-11.4,1.7l-2.7,0.4l-0.8-2.2l-2.3-6.8c-0.4-1.1-0.8-2.3-1.1-3.4l-0.8-3.5l-0.8-3.5
		c-0.3-1.2-0.5-2.4-0.6-3.5l-0.5-3.6c-0.1-1.2-0.4-2.4-0.4-3.6l-0.2-3.6c0-1.2-0.1-2.4-0.1-3.6l0.1-3.6c0.1-1.2,0-2.4,0.2-3.6
		l0.4-3.6c0.1-1.2,0.3-2.4,0.6-3.6c0.2-1.2,0.4-2.4,0.8-3.5l1-3.5l0.5-1.7l1.6,0.7c4.6,2.2,9.3,4.3,13.9,6.5
		C574.8,411.9,579.4,414.1,584,416.4z"/>
	<path class="st31" d="M721.1,267.1l0.3-13.5c0.1-4.5,0.3-9,0.5-13.5l0-0.1c0-0.9,0.4-1.7,1.1-2.3c1.4-1.2,3.5-1.2,4.7,0.2l4.1,4.4
		l1,1.1l1.1,1l2.2,2.1l2.2,2.1c0.7,0.7,1.6,1.3,2.4,2l4.8,4l4.9,3.9c1.6,1.3,3.4,2.5,5,3.8c1.7,1.3,3.4,2.5,5.1,3.7
		c1.7,1.3,3.4,2.4,5.2,3.7c-3.9-1.6-7.7-3.4-11.5-5.4c-1.9-1-3.8-1.9-5.6-3l-5.5-3.2c-1.8-1.1-3.6-2.3-5.4-3.5
		c-0.9-0.6-1.8-1.2-2.7-1.8l-2.6-1.9l-2.6-2c-0.4-0.3-0.8-0.6-1.2-0.9c0.1,1.9,0.1,3.7,0.2,5.6l0.3,13.5c0.2,9,0.2,18,0.3,26.9
		c0,9-0.1,18-0.2,26.9c-0.1,4.5-0.2,9-0.3,13.5c-0.1,3.2-0.2,6.4-0.3,9.6c0.8-0.1,1.6-0.2,2.4-0.2l3.3-0.2c1.1-0.1,2.2,0,3.3,0
		l3.3,0.1c1.1,0,2.2,0.2,3.3,0.3l3.2,0.4c1.1,0.1,2.1,0.4,3.2,0.6l3.2,0.7c1.1,0.2,2.1,0.5,3.1,0.8l3.1,0.9c1,0.3,2.1,0.6,3.1,1
		l3,1.1c1,0.4,2,0.7,3,1.2c1.9,0.9,3.9,1.8,5.8,2.8l-6.2-1.6c-1-0.3-2.1-0.5-3.1-0.7l-3.1-0.6c-1-0.2-2.1-0.4-3.1-0.5l-3.1-0.4
		c-1-0.1-2.1-0.3-3.1-0.4l-3.1-0.2c-1,0-2.1-0.2-3.1-0.2l-3.1,0c-1,0-2.1-0.1-3.1,0l-3.1,0.2c-1,0.1-2,0.1-3,0.3l-3,0.4
		c-1,0.1-2,0.4-2.9,0.6l-2.9,0.7c-0.2,0-0.4,0.1-0.6,0.1c-1.9,0.1-3.4-1.4-3.5-3.2l0-0.1c-0.2-4.5-0.4-9-0.5-13.5
		c-0.1-4.5-0.2-9-0.3-13.5c-0.2-9-0.2-18-0.2-26.9C720.9,285.1,720.9,276.1,721.1,267.1z"/>
	<path class="st31" d="M782,303.9c1,0.5,2.1,1,3.1,1.5l2.9,1.6c1.9,1.2,3.8,2.3,5.5,3.6c1.8,1.2,3.5,2.6,5.3,3.9
		c1.7,1.3,3.4,2.8,5.1,4.2l4.8,4.4l4.6,4.6l4.4,4.8c1.5,1.6,2.8,3.3,4.2,4.9c1.4,1.6,2.7,3.4,4,5.1c0.7,0.9,1.3,1.7,2,2.6l1.8,2.7
		c1.2,1.8,2.5,3.5,3.6,5.4c1.1,1.8,2.3,3.7,3.4,5.5l3.1,5.7c1.1,1.9,1.9,3.9,2.8,5.8c0.9,2,1.8,3.9,2.5,5.9l2.3,6l-2.8-5.8
		c-0.9-2-2-3.8-3-5.7c-1.1-1.9-2-3.8-3.2-5.6l-3.4-5.4l-3.7-5.3c-1.2-1.8-2.5-3.4-3.8-5.1l-2-2.5c-0.7-0.8-1.4-1.6-2.1-2.4
		c-1.4-1.6-2.7-3.3-4.2-4.8c-1.5-1.5-2.9-3.1-4.4-4.6l-4.5-4.5l-4.7-4.3l-4.9-4.1c-1.7-1.3-3.3-2.6-5-3.8c-1.7-1.2-3.4-2.5-5.2-3.6
		c-1.7-1.2-3.6-2.2-5.3-3.3l-0.6-0.3c0.1,0.4,0.2,0.9,0.3,1.3c0.5,2.2,0.9,4.5,1.3,6.8c0.4,2.3,0.8,4.5,1.1,6.8
		c0.3,2.3,0.7,4.5,1,6.8l0.9,6.8c0.3,2.3,0.4,4.6,0.7,6.9l0.3,3.4c0.1,1.1,0.1,2.3,0.2,3.5l0.2,4.5l2,0.7c1.5,0.4,2.9,1,4.3,1.6
		c1.4,0.6,2.8,1.1,4.2,1.8l4.1,2c1.4,0.7,2.7,1.5,4,2.2c1.3,0.7,2.6,1.5,3.9,2.4c1.3,0.8,2.6,1.6,3.8,2.5c1.2,0.9,2.5,1.7,3.7,2.7
		c1.2,1,2.4,1.9,3.5,2.9c1.1,1,2.3,2,3.4,3.1c1.1,1.1,2.2,2.2,3.2,3.3c1,1.2,2.1,2.3,3,3.5c1,1.2,2,2.4,2.8,3.6
		c0.9,1.2,1.8,2.5,2.6,3.8c0.9,1.3,1.6,2.7,2.4,4l0.4,0.9c3.6-2,7.3-3.9,11-5.7c1.2-0.6,2.4-1.1,3.7-1.7c1.2-0.6,2.5-1.1,3.7-1.6
		l1.9-0.8c0.6-0.2,1.2-0.5,1.9-0.7l0.7-0.2l-2-5.4c-1.1-2.8-2-5.7-3.3-8.4l-3.8-8.2c-1.2-2.8-2.7-5.4-4.1-8
		c-1.5-2.6-2.8-5.3-4.4-7.9l-4.8-7.6c-1.5-2.6-3.4-5-5.2-7.4c-1.8-2.4-3.4-5-5.4-7.2l-5.8-7l-6.1-6.7c-2-2.2-4.3-4.3-6.4-6.4
		c-2.1-2.2-4.5-4.1-6.7-6.1c-2.2-2.1-4.7-3.9-7-5.8c-2.3-2-4.8-3.7-7.3-5.5c-2.5-1.7-5-3.5-7.6-5.1c-2.6-1.7-5.2-3.2-7.9-4.6
		c2.8,1.2,5.6,2.5,8.3,3.9c2.7,1.4,5.3,3,8,4.5c2.6,1.7,5.2,3.2,7.7,5.1c2.5,1.8,5.1,3.5,7.4,5.5c2.4,1.9,4.9,3.7,7.2,5.8
		c2.3,2.1,4.7,4,6.9,6.2l6.6,6.5l6.2,6.9c2.1,2.2,3.9,4.8,5.9,7.2c1.9,2.5,3.9,4.8,5.5,7.4l5.2,7.7c1.7,2.6,3.2,5.3,4.7,8
		c1.5,2.7,3.2,5.3,4.5,8.1l4,8.4c1.4,2.7,2.4,5.7,3.6,8.6l3.4,8.7c0,0,0,0.1,0,0.1c0.6,1.6-0.3,3.4-1.9,3.9l-0.3,0.1l-3.5,1.3
		c-0.6,0.2-1.2,0.5-1.8,0.7l-1.8,0.8c-1.2,0.5-2.4,1.1-3.5,1.6c-1.2,0.6-2.4,1.1-3.5,1.7c-2.3,1.2-4.7,2.3-7,3.6
		c-2.3,1.2-4.6,2.5-6.9,3.8c-0.1,0.1-0.2,0.1-0.3,0.2c-1.7,0.8-3.7,0-4.5-1.8l-0.1-0.1l-0.8-1.8l-0.9-1.8c-0.7-1.2-1.3-2.4-2.1-3.5
		c-0.7-1.2-1.5-2.3-2.4-3.4c-0.8-1.1-1.7-2.2-2.6-3.3c-0.9-1.1-1.9-2.1-2.8-3.2c-1-1-2-2-3-3c-1-1-2.1-1.9-3.1-2.9
		c-1.1-0.9-2.2-1.8-3.3-2.7c-1.1-0.9-2.3-1.7-3.4-2.5c-1.1-0.9-2.3-1.6-3.5-2.4c-1.2-0.8-2.4-1.5-3.6-2.2c-1.2-0.7-2.4-1.4-3.7-2.1
		l-3.8-1.9c-1.3-0.6-2.6-1.1-3.9-1.7c-1.3-0.6-2.6-1.1-4-1.5l-4-1.4l-0.1,0c-1.3-0.5-2.3-1.7-2.3-3.2l-0.1-6.7c0-1.1,0-2.2-0.1-3.3
		l-0.2-3.4c-0.2-2.2-0.2-4.5-0.5-6.7l-0.7-6.7c-0.3-2.2-0.6-4.5-0.9-6.7c-0.3-2.2-0.7-4.5-1-6.7c-0.7-4.4-1.4-8.9-2.3-13.3l0-0.3
		c-0.1-0.5,0-1.1,0.2-1.6C779.1,303.9,780.7,303.3,782,303.9z"/>
	<path class="st31" d="M843.8,416.4c4.8-1.7,9.7-3.4,14.5-5.1c4.8-1.7,9.6-3.5,14.4-5.3l-2-1l0.7,3.3c0.2,1.1,0.3,2.3,0.5,3.4
		c0.2,1.1,0.3,2.3,0.3,3.4l0.2,3.4c0.1,1.1,0,2.3,0,3.4l-0.1,3.4c-0.1,1.1-0.2,2.3-0.3,3.4l-0.4,3.4c-0.1,1.1-0.4,2.2-0.6,3.4
		l-0.6,3.4c-0.2,1.1-0.4,2.2-0.8,3.3l-0.9,3.3l-0.9,3.3c-0.3,1.1-0.8,2.1-1.2,3.2l-2.4,6.4l3.4-1.8l-11.7-2.1l-2.9-0.5
		c-1-0.2-1.9-0.4-2.9-0.5l-5.9-0.7l-2.7-0.3l-0.8,2.8c-0.4,1.5-0.8,2.9-1.3,4.3c-0.5,1.4-0.9,2.8-1.5,4.2c-0.5,1.4-1.1,2.7-1.7,4.1
		c-0.6,1.4-1.3,2.6-1.9,3.9c-0.7,1.3-1.5,2.5-2.2,3.8l-2.4,3.6l-2.7,3.4l-2.9,3.2c-1,1-2.1,2-3.2,3c-1,1-2.3,1.8-3.4,2.7
		c-1.1,0.9-2.3,1.7-3.6,2.5c-1.2,0.8-2.4,1.6-3.7,2.3l-3.9,2.1l-4,1.8c-0.7,0.3-1.3,0.6-2,0.9l-2.1,0.7l-4.2,1.5l-2.3,0.8l0,2.2
		c0.1,7.3,0.2,14.5,0.3,21.8l0.5,21.8l0.1,3.9l3.1-1.7l3.1-1.7c1.1-0.6,1.9-1.3,2.9-1.9c0.9-0.7,1.9-1.3,2.8-1.9l2.7-2.1
		c0.9-0.7,1.8-1.4,2.7-2.1l2.6-2.2l2.6-2.2l2.5-2.3l2.5-2.3c0.8-0.7,1.6-1.6,2.4-2.4c1.6-1.6,3.2-3.2,4.7-4.8c1.5-1.7,3-3.3,4.5-5
		l4.1-5.3l-4.7,4.8c-0.8,0.8-1.7,1.5-2.5,2.3l-2.5,2.2c-1.6,1.5-3.4,2.9-5.1,4.3c-0.9,0.7-1.7,1.4-2.6,2.1l-2.6,2l-2.6,2l-2.7,1.9
		l-2.7,1.9c-0.9,0.7-1.8,1.2-2.7,1.9l-2.7,1.8c-0.9,0.6-1.9,1.1-2.8,1.7c-0.9,0.5-1.9,1.2-2.8,1.6l-2.8,1.3l3.2,2.1l0.5-21.8
		c0.2-7.3,0.2-14.5,0.3-21.8l-2.3,3.1l4.5-1.5l2.3-0.7c0.7-0.3,1.5-0.6,2.2-0.9l4.4-1.9l4.2-2.3c1.4-0.7,2.8-1.6,4.1-2.5
		c1.4-0.9,2.7-1.7,4-2.7c1.3-1,2.6-1.9,3.8-3c1.2-1.1,2.4-2.2,3.6-3.3l3.3-3.6l3-3.8l2.7-4c0.8-1.4,1.6-2.8,2.4-4.2
		c0.7-1.5,1.5-2.9,2.1-4.4c0.7-1.5,1.3-3,1.8-4.5c0.6-1.5,1-3,1.5-4.5c0.5-1.5,0.9-3,1.3-4.5l-3.5,2.4l5.7,0.6
		c0.9,0.1,1.9,0.2,2.8,0.4l2.8,0.4l11.4,1.7l2.7,0.4l0.8-2.2l2.3-6.8c0.4-1.1,0.8-2.3,1.1-3.4l0.8-3.5l0.8-3.5
		c0.3-1.2,0.5-2.4,0.6-3.5l0.5-3.6c0.1-1.2,0.4-2.4,0.4-3.6l0.2-3.6c0-1.2,0.1-2.4,0.1-3.6l-0.1-3.6c-0.1-1.2,0-2.4-0.2-3.6
		l-0.4-3.6c-0.1-1.2-0.3-2.4-0.6-3.6c-0.2-1.2-0.4-2.4-0.8-3.5l-1-3.5l-0.5-1.7l-1.6,0.7c-4.6,2.2-9.3,4.3-13.9,6.5
		C853.1,411.9,848.4,414.1,843.8,416.4z"/>
	<g>
		<path class="st35" d="M645.2,482.2c-24.8,0-45-20.2-45-45c0-9.9,3.2-19.3,9.2-27.2l0.6-0.8l79.9,22.7l0.1,1
			c0.1,1.5,0.2,2.9,0.2,4.3C690.2,462,670,482.2,645.2,482.2z"/>
		<g>
			<path d="M610.5,410.9l78,22.2c0.1,1.4,0.2,2.7,0.2,4.1c0,24-19.5,43.5-43.5,43.5c-24,0-43.5-19.5-43.5-43.5
				C601.7,427.3,605,418.2,610.5,410.9 M609.4,407.4l-1.2,1.6c-6.2,8.1-9.5,17.9-9.5,28.1c0,25.6,20.9,46.5,46.5,46.5
				c25.6,0,46.5-20.9,46.5-46.5c0-1.4-0.1-2.9-0.2-4.4l-0.2-2l-2-0.6l-78-22.2L609.4,407.4L609.4,407.4z"/>
		</g>
	</g>
	<path class="st39" d="M613.8,437.2c0-8.6,2.5-16.7,6.8-23.4l-10.1-2.9c-5.6,7.3-8.9,16.4-8.9,26.3c0,24,19.5,43.5,43.5,43.5
		c2.1,0,4.1-0.2,6.1-0.4C630.1,477.3,613.8,459.1,613.8,437.2z"/>
	<g>
		<path class="st35" d="M783.5,482.2c-24.8,0-45-20.2-45-45c0-1.4,0.1-2.8,0.2-4.3l0.1-1l79.9-22.7l0.6,0.8c6,7.9,9.2,17.3,9.2,27.2
			C828.5,462,808.3,482.2,783.5,482.2z"/>
		<g>
			<path d="M818.2,410.9c5.6,7.3,8.9,16.4,8.9,26.3c0,24-19.5,43.5-43.5,43.5c-24,0-43.5-19.5-43.5-43.5c0-1.4,0.1-2.8,0.2-4.1
				L818.2,410.9 M819.3,407.4l-2,0.6l-78,22.2l-2,0.6l-0.2,2c-0.1,1.5-0.2,3-0.2,4.4c0,25.6,20.9,46.5,46.5,46.5
				c25.6,0,46.5-20.9,46.5-46.5c0-10.2-3.3-20-9.5-28.1L819.3,407.4L819.3,407.4z"/>
		</g>
	</g>
	<path class="st39" d="M814.9,437.2c0-8.6-2.5-16.7-6.8-23.4l10.1-2.9c5.6,7.3,8.9,16.4,8.9,26.3c0,24-19.5,43.5-43.5,43.5
		c-2.1,0-4.1-0.2-6.1-0.4C798.6,477.3,814.9,459.1,814.9,437.2z"/>
</g>
<g id="weapon_13_">
	<g>
		<path class="st40" d="M391.9,679.5c-11.2-6.9-21.1-15.4-29.4-25.2c-30.6-36.3-38.3-88.2-21.5-146.3
			c16.6-57.8,55.5-115,109.5-161.1l1.1-1l50.7,60.1l-1.1,1c-46,39.2-81.8,88.1-101.1,137.5c-18.9,48.7-21,96-6,133.2l1.7,4.2
			L391.9,679.5z"/>
		<g>
			<path d="M451.4,348l48.7,57.8c-96.2,82.1-138.6,195.4-107.5,272.5c-10.9-6.7-20.7-15-29.1-24.9C301,579.1,340.3,442.8,451.4,348
				 M451.7,343.7l-2.3,2c-54.2,46.2-93.2,103.7-110,161.8c-8.2,28.4-10.6,55.5-7.2,80.5c3.6,26,13.3,48.6,29,67.2
				c8.4,9.9,18.4,18.5,29.8,25.6l7.8,4.8l-3.4-8.5c-7.5-18.6-10.8-39.5-9.7-62.3c1.1-22.4,6.3-45.9,15.7-69.9
				c9.4-24.2,22.6-48.1,39.4-71.1c17.3-23.8,37.9-45.9,61.3-65.9l2.3-1.9l-1.9-2.3L453.7,346L451.7,343.7L451.7,343.7z"/>
		</g>
	</g>
	<g>
		<path class="st41" d="M491.1,395.1l9,10.7c-96.2,82.1-138.6,195.4-107.5,272.5c-8.4-5.2-16-11.2-22.9-18.3
			C350.4,582.7,396.8,475.5,491.1,395.1z"/>
	</g>
	<g>
		<path class="st42" d="M785.6,750.1c-2.8,0-5.5-1.2-7.4-3.4l-354-419.5c-3.4-4.1-2.9-10.2,1.1-13.6c1.7-1.5,3.9-2.3,6.2-2.3
			c2.8,0,5.5,1.2,7.4,3.4l354,419.5c3.4,4.1,2.9,10.2-1.2,13.6C790.1,749.3,787.9,750.1,785.6,750.1
			C785.6,750.1,785.6,750.1,785.6,750.1z"/>
		<path d="M431.6,312.8c2.3,0,4.6,1,6.2,2.9l354,419.5c2.9,3.4,2.5,8.6-1,11.5c-1.5,1.3-3.4,1.9-5.2,1.9c-2.3,0-4.6-1-6.2-2.9
			l-354-419.5c-2.9-3.4-2.5-8.6,1-11.5C427.9,313.5,429.8,312.8,431.6,312.8 M431.6,309.8c-2.6,0-5.2,0.9-7.2,2.6
			c-4.7,4-5.3,11-1.3,15.7l354,419.5c2.1,2.5,5.2,4,8.5,4c2.6,0,5.2-0.9,7.2-2.6c4.7-4,5.3-11,1.3-15.7l-354-419.5
			C438,311.3,434.9,309.8,431.6,309.8L431.6,309.8z"/>
	</g>
	<g>
		<path class="st43" d="M426.4,314.7c0.5-0.4,1.1-0.8,1.7-1.1c-2.1,3-2.1,7.1,0.4,10l354,419.5c2.5,2.9,6.5,3.6,9.8,2
			c-0.4,0.5-0.8,1.1-1.3,1.5c-3.4,2.9-8.6,2.5-11.5-1l-354-419.5C422.5,322.8,423,317.6,426.4,314.7z"/>
	</g>
	<g>
		<path class="st44" d="M495.8,432.7c-1.5,0-2.9-0.6-3.8-1.8l-66-78.2c-0.9-1-1.3-2.3-1.2-3.6c0.1-1.3,0.7-2.5,1.8-3.4l30.2-25.5
			c0.9-0.8,2-1.2,3.2-1.2c1.5,0,2.9,0.6,3.8,1.8l66,78.2c0.9,1,1.3,2.3,1.2,3.6c-0.1,1.3-0.7,2.5-1.8,3.4L499,431.5
			C498.1,432.3,496.9,432.7,495.8,432.7L495.8,432.7z"/>
		<path d="M460,320.6c1,0,2,0.4,2.7,1.2l66,78.2c1.2,1.5,1.1,3.7-0.4,4.9L498,430.4c-0.7,0.6-1.5,0.8-2.2,0.8c-1,0-2-0.4-2.7-1.2
			l-66-78.2c-1.2-1.5-1.1-3.7,0.4-4.9l30.2-25.5C458.4,320.8,459.2,320.6,460,320.6 M460,317.6c-1.5,0-3,0.5-4.2,1.5l-30.2,25.5
			c-2.7,2.3-3.1,6.4-0.8,9.1l66,78.2c1.2,1.5,3,2.3,5,2.3c1.5,0,3-0.5,4.2-1.5l30.2-25.5c2.7-2.3,3.1-6.4,0.8-9.1l-66-78.2
			C463.7,318.4,461.9,317.6,460,317.6L460,317.6z"/>
	</g>
	<g>
		<path class="st45" d="M427.5,346.9l8.1-6.8c-1.5,1.2-1.7,3.4-0.4,4.9l66,78.2c1.2,1.5,3.4,1.7,4.9,0.4l-8.1,6.8
			c-1.5,1.2-3.7,1.1-4.9-0.4l-66-78.2C425.9,350.3,426.1,348.1,427.5,346.9z"/>
	</g>
</g>
<g id="hand_12_">
	<g>
		<path class="st33" d="M602.7,577c-9.6,0-18.7-4.1-25-11.3c-5.9-6.7-8.8-15.3-8.3-24.1c0.6-8.9,4.6-17,11.2-22.9
			c6.1-5.4,13.9-8.3,22-8.3c9.6,0,18.7,4.1,25,11.3c5.9,6.7,8.8,15.3,8.3,24.1c-0.6,8.9-4.6,17-11.2,22.9
			C618.7,574.1,610.8,577,602.7,577z"/>
		<g>
			<path d="M602.7,511.8c8.8,0,17.6,3.6,23.9,10.8c11.6,13.2,10.3,33.3-2.8,44.9c-6,5.3-13.6,7.9-21,7.9c-8.8,0-17.6-3.6-23.9-10.8
				c-11.6-13.2-10.3-33.3,2.8-44.9C587.7,514.5,595.2,511.8,602.7,511.8 M602.7,508.8v3V508.8L602.7,508.8c-8.5,0-16.7,3.1-23,8.7
				c-14.4,12.7-15.8,34.8-3.1,49.2c6.6,7.5,16.1,11.8,26.2,11.8c8.5,0,16.6-3.1,23-8.7c7-6.1,11.2-14.7,11.7-23.9
				c0.6-9.3-2.5-18.2-8.6-25.2C622.2,513.1,612.7,508.8,602.7,508.8L602.7,508.8z"/>
		</g>
	</g>
	<path class="st34" d="M623.8,567.6c0,0,0.1-0.1,0.1-0.1c-18.5,2.6-31.2-10.2-33.7-23.5c-2.6-14.1,5.8-25.7,15.6-31.9
		c-8.5-0.8-17.3,1.7-24.2,7.8c-13.2,11.6-14.5,31.7-2.8,44.9C590.4,577.9,610.6,579.2,623.8,567.6z"/>
	<g>
		<path class="st33" d="M715.4,700.3c-9.6,0-18.7-4.1-25-11.3c-5.9-6.7-8.8-15.3-8.3-24.1c0.6-8.9,4.6-17,11.2-22.9
			c6.1-5.4,13.9-8.3,22-8.3c9.6,0,18.7,4.1,25,11.3c5.9,6.7,8.8,15.3,8.3,24.1c-0.6,8.9-4.6,17-11.2,22.9
			C731.3,697.3,723.5,700.3,715.4,700.3z"/>
		<g>
			<path d="M715.4,635.1c8.8,0,17.6,3.6,23.9,10.8c11.6,13.2,10.3,33.3-2.8,44.9c-6,5.3-13.6,7.9-21,7.9c-8.8,0-17.6-3.6-23.9-10.8
				c-11.6-13.2-10.3-33.3,2.8-44.9C700.4,637.7,707.9,635.1,715.4,635.1 M715.4,632.1v3V632.1L715.4,632.1c-8.5,0-16.7,3.1-23,8.7
				c-14.4,12.7-15.8,34.8-3.1,49.2c6.6,7.5,16.1,11.8,26.2,11.8c8.5,0,16.6-3.1,23-8.7c7-6.1,11.2-14.7,11.7-23.9
				c0.6-9.3-2.5-18.2-8.6-25.2C734.9,636.4,725.4,632.1,715.4,632.1L715.4,632.1z"/>
		</g>
	</g>
	<path class="st34" d="M736.4,690.8c0,0,0.1-0.1,0.1-0.1c-18.5,2.6-31.2-10.2-33.7-23.5c-2.6-14.1,5.8-25.7,15.6-31.9
		c-8.5-0.8-17.3,1.7-24.2,7.8c-13.2,11.6-14.5,31.7-2.8,44.9C703.1,701.2,723.3,702.5,736.4,690.8z"/>
</g>
</svg>
