<?xml version="1.0" encoding="utf-8"?>
<!-- Generator: Adobe Illustrator 19.1.0, SVG Export Plug-In . SVG Version: 6.00 Build 0)  -->
<svg version="1.1" id="Layer_1" xmlns="http://www.w3.org/2000/svg" xmlns:xlink="http://www.w3.org/1999/xlink" x="0px" y="0px"
	 viewBox="0 0 1024 768" style="enable-background:new 0 0 1024 768;" xml:space="preserve">
<style type="text/css">
	.st0{fill:#EEB886;}
	.st1{fill:#010101;}
	.st2{fill:#B77F53;}
	.st3{fill:#753F1A;}
	.st4{fill:#502B13;}
	.st5{fill:#9E9E9E;}
	.st6{fill:#9E8869;}
	.st7{fill:#454545;}
	.st8{fill:#282828;}
	.st9{fill:#737373;}
	.st10{fill:#4E2A12;}
	.st11{fill:#EAB632;}
	.st12{fill:#C0912D;}
	.st13{fill:#A5792B;}
	.st14{fill:#C5952C;}
	.st15{fill:#F0CA89;}
	.st16{fill:#E0E1E0;}
	.st17{fill:#FFFFFF;}
	.st18{fill:#916527;}
	.st19{fill:#482F14;}
	.st20{fill:#67441A;}
</style>
<g id="body_3_">
	<g>
		<path class="st0" d="M373.5,548.9c-2.3,0-3.7-0.1-4-0.1l-1.5-0.1l1.6-22.8l1.5,0.1c0.2,0,1.1,0.1,2.7,0.1c11.6,0,51.2-3,72.3-41.1
			l0.7-1.3l20,11.1l-0.7,1.3C438.9,545,388.4,548.9,373.5,548.9z"/>
		<g>
			<path class="st1" d="M447.4,485.5l17.4,9.6c-26.8,48.5-76.8,52.2-91.2,52.2c-2.2,0-3.6-0.1-3.9-0.1l1.4-19.9
				c0.3,0,1.2,0.1,2.8,0.1C384.9,527.5,425.7,524.7,447.4,485.5 M446.2,481.5l-1.5,2.6c-20.7,37.5-59.6,40.4-71,40.4
				c-1.6,0-2.5-0.1-2.6-0.1l-3-0.2l-0.2,3l-1.4,19.9l-0.2,3l3,0.2c0.4,0,1.8,0.1,4.1,0.1c15.1,0,66.3-3.9,93.9-53.7l1.5-2.6
				l-2.6-1.5l-17.4-9.6L446.2,481.5L446.2,481.5z"/>
		</g>
	</g>
	<g>
		<path class="st2" d="M459.2,492.1c-27.3,44.6-74.8,48.1-88.9,48.1c-0.1,0-0.2,0-0.3,0l-0.5,7c0.3,0,1.7,0.1,3.9,0.1
			c14.5,0,64.4-3.7,91.2-52.2L459.2,492.1z"/>
	</g>
	<g>
		<path class="st3" d="M377.4,557.3c-0.8,0-1.5-0.7-1.5-1.5v-36c0-0.7,0.4-1.2,1.1-1.4c0.1,0,12.9-3.9,18-10
			c0.3-0.4,0.7-0.5,1.1-0.5c0.3,0,0.6,0.1,0.8,0.2c6.2,3.9,20,22.7,6.8,45.5c-0.2,0.3-0.4,0.5-0.7,0.6
			C395.8,557.2,378.2,557.3,377.4,557.3z"/>
		<path class="st1" d="M396.2,509.3c6.4,4,18.8,22,6.3,43.5c-7,3-25,3-25,3v-36C377.4,519.7,390.8,515.8,396.2,509.3 M396.2,506.3
			c-0.9,0-1.7,0.4-2.3,1.1c-4,4.7-13.8,8.5-17.3,9.5c-1.3,0.4-2.1,1.5-2.1,2.9v36c0,1.7,1.3,3,3,3c1.9,0,18.8-0.1,26.2-3.2
			c0.6-0.3,1.1-0.7,1.4-1.3c7.3-12.6,6.3-23.6,4.2-30.7c-2.5-8.2-7.6-14.4-11.5-16.9C397.3,506.5,396.7,506.3,396.2,506.3
			L396.2,506.3z"/>
	</g>
	<path class="st4" d="M407.1,541.2c-10.3,3.8-21.6,3.8-21.6,3.8l-8,8.1v2.6c0,0,18,0,25-3C404.8,548.8,406.3,544.9,407.1,541.2z"/>
	<g>
		<path class="st0" d="M571.8,583.7l0.7-1.3c9.6-16.9,12.1-31.5,7.6-43.3c-6.5-17.2-26.5-24.5-26.7-24.5l-1.4-0.5l0.5-1.4l7.3-21.3
			l1.4,0.5c1.2,0.4,30.7,10.8,41.4,38.7c7.1,18.8,4.1,40.2-9.2,63.6l-0.7,1.3L571.8,583.7z"/>
		<g>
			<path class="st1" d="M560.7,493.3c1.2,0.4,30.1,10.5,40.4,37.8c7,18.3,3.9,39.3-9.1,62.3l-18.3-10.3c9.8-17.3,12.4-32.3,7.7-44.5
				c-6.8-17.9-27.4-25.3-27.6-25.4L560.7,493.3 M558.9,489.5l-1,2.8l-6.8,19.9l-1,2.8l2.9,1c0.2,0.1,19.5,7.1,25.8,23.6
				c4.3,11.4,1.8,25.5-7.5,42l-1.5,2.6l2.6,1.5l18.3,10.3l2.6,1.5l1.5-2.6c13.5-23.8,16.6-45.7,9.3-64.9
				c-10.9-28.5-41-39.1-42.3-39.6L558.9,489.5L558.9,489.5z"/>
		</g>
	</g>
	<g>
		<path class="st2" d="M596.3,585.4c9.4-19.9,11-38.1,4.9-54.2c-6.8-17.8-21.4-28.3-31.1-33.6l-4.1,12c0.2,0.1,20.8,7.5,27.6,25.4
			c4.7,12.2,2.1,27.2-7.7,44.5L596.3,585.4z"/>
	</g>
	<g>
		<path class="st5" d="M443,624.1c-0.8,0-1.5-0.7-1.5-1.5v-58.7l-9.8-67.1c-0.1-0.5,0.1-1,0.5-1.4l15.8-12.9
			c6.3-8.4,15.9-13.3,26.4-13.3h61.3c10.4,0,20.2,5,26.4,13.3l15.8,12.9c0.4,0.3,0.6,0.9,0.5,1.4l-9.7,66.9v58.9
			c0,0.8-0.7,1.5-1.5,1.5H443z"/>
		<path class="st1" d="M535.8,470.7c10.4,0,19.6,5.1,25.4,12.9l15.9,13l-9.7,67.1v59c-22.2,0-95.3,0-124.3,0v-58.9l-9.8-67.2l16-13
			c5.7-7.8,14.9-12.8,25.3-12.8H535.8 M535.8,467.7h-61.3c-10.9,0-20.9,5-27.5,13.7l-15.7,12.8c-0.8,0.7-1.2,1.7-1.1,2.8l9.7,67
			v58.6c0,1.7,1.3,3,3,3h124.3c1.7,0,3-1.3,3-3v-58.8l9.7-66.8c0.2-1-0.3-2.1-1.1-2.8l-15.6-12.8
			C556.9,472.9,546.6,467.7,535.8,467.7L535.8,467.7z"/>
	</g>
	<ellipse class="st6" cx="511.8" cy="707.4" rx="175.3" ry="28.1"/>
	<g>
		<path class="st7" d="M520.5,713.8c-0.8,0-1.5-0.7-1.5-1.5v-46.5c0-7.6-6.2-13.8-13.8-13.8c-7.6,0-13.8,6.2-13.8,13.8v46.5
			c0,0.8-0.7,1.5-1.5,1.5h-36.3c-0.8,0-1.4-0.6-1.5-1.3l-10.5-89.6c0-0.4,0.1-0.9,0.4-1.2c0.3-0.3,0.7-0.5,1.1-0.5h124.3
			c0.4,0,0.8,0.2,1.1,0.5c0.3,0.3,0.4,0.7,0.4,1.2l-10.5,89.6c-0.1,0.8-0.7,1.3-1.5,1.3H520.5z"/>
		<g>
			<path class="st1" d="M567.4,622.6l-10.5,89.6h-36.3v-46.5c0-8.5-6.9-15.3-15.3-15.3c-8.5,0-15.3,6.9-15.3,15.3v46.5h-36.3
				L443,622.6H567.4 M567.4,619.6H443c-0.9,0-1.7,0.4-2.2,1c-0.6,0.6-0.8,1.5-0.7,2.3l10.5,89.6c0.2,1.5,1.5,2.7,3,2.7h36.3
				c1.7,0,3-1.3,3-3v-46.5c0-6.8,5.5-12.3,12.3-12.3c6.8,0,12.3,5.5,12.3,12.3v46.5c0,1.7,1.3,3,3,3h36.3c1.5,0,2.8-1.1,3-2.7
				l10.5-89.6c0.1-0.9-0.2-1.7-0.7-2.3S568.2,619.6,567.4,619.6L567.4,619.6z"/>
		</g>
	</g>
	<path class="st8" d="M553.4,636.7c0,13.2-8.6,27.8-28.2,30.8c11.1,7.5,23.3,11.3,35.5,12.6l6.7-57.5h-23.5
		C549.1,626.6,553.4,631.5,553.4,636.7z"/>
	<polygon class="st3" points="448.8,671.9 453.5,712.3 489.9,712.3 489.9,671.9 	"/>
	<g>
		<path class="st3" d="M445.1,683.6c-6,0-10.9-4.9-10.9-10.9s4.9-10.9,10.9-10.9h50.7c6,0,10.9,4.9,10.9,10.9s-4.9,10.9-10.9,10.9
			H445.1z"/>
		<path class="st1" d="M495.8,663.3c5.2,0,9.4,4.2,9.4,9.4c0,5.2-4.2,9.4-9.4,9.4h-50.7c-5.2,0-9.4-4.2-9.4-9.4
			c0-5.2,4.2-9.4,9.4-9.4H495.8 M495.8,660.3h-50.7c-6.8,0-12.4,5.6-12.4,12.4c0,6.8,5.6,12.4,12.4,12.4h50.7
			c6.8,0,12.4-5.6,12.4-12.4C508.2,665.9,502.6,660.3,495.8,660.3L495.8,660.3z"/>
	</g>
	<polygon class="st3" points="561.6,671.9 556.9,712.3 520.5,712.3 520.5,671.9 	"/>
	<g>
		<path class="st3" d="M447,713.8c-0.8,0-1.5-0.7-1.5-1.5c0-11.7,7.6-21.3,17-21.3H481c9.4,0,17,9.5,17,21.3c0,0.8-0.7,1.5-1.5,1.5
			H447z"/>
		<path class="st1" d="M481,692.5c8.6,0,15.5,8.8,15.5,19.8H447c0-10.9,6.9-19.8,15.5-19.8H481 M481,689.5h-18.6
			c-10.2,0-18.5,10.2-18.5,22.8c0,1.7,1.3,3,3,3h49.5c1.7,0,3-1.3,3-3C499.5,699.7,491.2,689.5,481,689.5L481,689.5z"/>
	</g>
	<g>
		<path class="st3" d="M513.8,713.8c-0.8,0-1.5-0.7-1.5-1.5c0-11.7,7.6-21.3,17-21.3h18.6c9.4,0,17,9.5,17,21.3
			c0,0.8-0.7,1.5-1.5,1.5H513.8z"/>
		<path class="st1" d="M547.9,692.5c8.6,0,15.5,8.8,15.5,19.8h-49.5c0-10.9,6.9-19.8,15.5-19.8H547.9 M547.9,689.5h-18.6
			c-10.2,0-18.5,10.2-18.5,22.8c0,1.7,1.3,3,3,3h49.5c1.7,0,3-1.3,3-3C566.3,699.7,558.1,689.5,547.9,689.5L547.9,689.5z"/>
	</g>
	<path class="st4" d="M495.8,663.3h-22.6c4.4,2.3,8.6,5.3,9.1,8.8c0.5,3.7-1.4,7.1-5.6,10h19c5.2,0,9.4-4.2,9.4-9.4
		C505.2,667.6,501,663.3,495.8,663.3z"/>
	<g>
		<path class="st3" d="M514.6,683.6c-6,0-10.9-4.9-10.9-10.9s4.9-10.9,10.9-10.9h50.7c6,0,10.9,4.9,10.9,10.9s-4.9,10.9-10.9,10.9
			H514.6z"/>
		<path class="st1" d="M565.3,663.3c5.2,0,9.4,4.2,9.4,9.4c0,5.2-4.2,9.4-9.4,9.4h-50.7c-5.2,0-9.4-4.2-9.4-9.4
			c0-5.2,4.2-9.4,9.4-9.4H565.3 M565.3,660.3h-50.7c-6.8,0-12.4,5.6-12.4,12.4c0,6.8,5.6,12.4,12.4,12.4h50.7
			c6.8,0,12.4-5.6,12.4-12.4C577.7,665.9,572.2,660.3,565.3,660.3L565.3,660.3z"/>
	</g>
	<path class="st4" d="M565.3,663.3h-22.6c4.4,2.3,8.6,5.3,9.1,8.8c0.5,3.7-1.4,7.1-5.6,10h19c5.2,0,9.4-4.2,9.4-9.4
		C574.7,667.6,570.5,663.3,565.3,663.3z"/>
	<path class="st4" d="M496.5,712.3c0-10.9-6.9-19.8-15.5-19.8h-4.5c5.8,1.3,8.7,4.5,9.8,7.8c1.2,3.7,1,8.1-1.3,12H496.5z"/>
	<path class="st4" d="M563.3,712.3c0-10.9-6.9-19.8-15.5-19.8h-4.5c5.8,1.3,8.7,4.5,9.8,7.8c1.2,3.7,1,8.1-1.3,12H563.3z"/>
	<path class="st4" d="M526.9,622.6h40.4v-20.8H527c4.9,2.8,8.3,5.8,8.4,8.7C535.5,614.3,532.3,618.5,526.9,622.6z"/>
	<path class="st9" d="M577.1,496.6l-15.9-13c-5.7-7.8-14.9-12.9-25.4-12.9h-25l-1.3,21.8c0,0,60.9-16.6,37.6,107.8
		c7.3,0.5,14,0,20.2-1.3v-35.4L577.1,496.6z"/>
	<g>
		<path class="st3" d="M453.6,589.4c-0.8,0-1.5-0.7-1.5-1.5V468.3c0-0.8,0.7-1.5,1.5-1.5h24.5c0.8,0,1.5,0.7,1.5,1.5v119.7
			c0,0.8-0.7,1.5-1.5,1.5H453.6z"/>
		<path class="st1" d="M478.1,468.3v119.7h-24.5V468.3H478.1 M478.1,465.3h-24.5c-1.7,0-3,1.3-3,3v119.7c0,1.7,1.3,3,3,3h24.5
			c1.7,0,3-1.3,3-3V468.3C481.1,466.6,479.8,465.3,478.1,465.3L478.1,465.3z"/>
	</g>
	<g>
		<rect x="473.2" y="468.3" class="st10" width="4.9" height="119.7"/>
	</g>
	<g>
		<path class="st3" d="M443,603.1c-0.8,0-1.5-0.7-1.5-1.5v-20.8c0-0.8,0.7-1.5,1.5-1.5h124.3c0.8,0,1.5,0.7,1.5,1.5v20.8
			c0,0.8-0.7,1.5-1.5,1.5H443z"/>
		<g>
			<path class="st1" d="M567.4,580.9v20.8H443v-20.8H567.4 M567.4,577.9H443c-1.7,0-3,1.3-3,3v20.8c0,1.7,1.3,3,3,3h124.3
				c1.7,0,3-1.3,3-3v-20.8C570.4,579.2,569,577.9,567.4,577.9L567.4,577.9z"/>
		</g>
	</g>
	<g>
		<path class="st3" d="M499.6,596.5c-4.7,0-8.6-3.9-8.6-8.6c0-4.7,3.9-8.6,8.6-8.6h15.7c4.7,0,8.6,3.9,8.6,8.6
			c0,4.7-3.9,8.6-8.6,8.6H499.6z"/>
		<g>
			<path class="st1" d="M515.3,580.9c3.9,0,7.1,3.2,7.1,7.1c0,3.9-3.2,7.1-7.1,7.1h-15.7c-3.9,0-7.1-3.2-7.1-7.1
				c0-3.9,3.2-7.1,7.1-7.1H515.3 M515.3,577.9h-15.7c-5.6,0-10.1,4.5-10.1,10.1c0,5.6,4.5,10.1,10.1,10.1h15.7
				c5.6,0,10.1-4.5,10.1-10.1C525.3,582.4,520.8,577.9,515.3,577.9L515.3,577.9z"/>
		</g>
	</g>
	<path class="st1" d="M498.3,588.9c0,1.8-1.5,3.3-3.3,3.3h-11.1c-1.8,0-3.3-1.5-3.3-3.3l0,0c0-1.8,1.5-3.3,3.3-3.3H495
		C496.8,585.6,498.3,587.1,498.3,588.9L498.3,588.9z"/>
	<g>
		<path class="st5" d="M443,645.5c-0.8,0-1.5-0.7-1.5-1.5v-42.1c0-0.8,0.7-1.5,1.5-1.5h124.5c0.8,0,1.5,0.7,1.5,1.5V644
			c0,0.8-0.7,1.5-1.5,1.5H443z"/>
		<g>
			<path class="st1" d="M567.5,601.9V644H443v-42.1H567.5 M567.5,598.9H443c-1.7,0-3,1.3-3,3V644c0,1.7,1.3,3,3,3h124.5
				c1.7,0,3-1.3,3-3v-42.1C570.5,600.2,569.2,598.9,567.5,598.9L567.5,598.9z"/>
		</g>
	</g>
	<path class="st9" d="M550.9,644h16.6v-42.1h-65.2C502.4,601.9,540.5,596.3,550.9,644z"/>
	<g>
		<path class="st3" d="M466.9,553.5c-11.4,0-20.8-9.3-20.8-20.8s9.3-20.8,20.8-20.8s20.8,9.3,20.8,20.8S478.3,553.5,466.9,553.5z"/>
		<path class="st1" d="M466.9,513.5c10.6,0,19.3,8.6,19.3,19.3c0,10.6-8.6,19.3-19.3,19.3c-10.6,0-19.3-8.6-19.3-19.3
			C447.6,522.2,456.2,513.5,466.9,513.5 M466.9,510.5c-12.3,0-22.3,10-22.3,22.3c0,12.3,10,22.3,22.3,22.3c12.3,0,22.3-10,22.3-22.3
			C489.1,520.5,479.2,510.5,466.9,510.5L466.9,510.5z"/>
	</g>
	<g>
		<path class="st10" d="M466.9,513.5c-0.8,0-1.5,0.1-2.3,0.1c9.6,1.1,17,9.3,17,19.1c0,9.9-7.4,18-17,19.1c0.8,0.1,1.5,0.1,2.3,0.1
			c10.6,0,19.3-8.6,19.3-19.3C486.1,522.2,477.5,513.5,466.9,513.5z"/>
	</g>
	<path class="st9" d="M443,609.5c5.5-6.2,20.6-7.4,28.5-7.6H443V609.5z"/>
</g>
<g id="head_3_">
	<g>
		<path class="st0" d="M505.2,498.1c-44.2,0-85.8-23.5-117-66.1C357.1,389.5,340,333,340,273c0-83.7,74.1-151.8,165.2-151.8
			c91.1,0,165.2,68.1,165.2,151.8c0,60-17.1,116.5-48.2,159C590.9,474.6,549.4,498.1,505.2,498.1z"/>
		<path class="st1" d="M505.2,122.6c90.4,0,163.7,67.3,163.7,150.3c0,123.5-73.3,223.6-163.7,223.6c-90.4,0-163.7-100.1-163.7-223.6
			C341.5,189.9,414.8,122.6,505.2,122.6 M505.2,119.6c-44.5,0-86.3,15.9-117.8,44.8c-31.5,29-48.9,67.5-48.9,108.5
			c0,60.4,17.2,117.1,48.5,159.9c15.3,20.9,33.1,37.3,53,48.7c20.6,11.9,42.6,18,65.2,18c22.6,0,44.6-6,65.2-18
			c19.9-11.5,37.7-27.9,53-48.7c31.3-42.7,48.5-99.5,48.5-159.9c0-41-17.4-79.5-48.9-108.5C591.5,135.6,549.7,119.6,505.2,119.6
			L505.2,119.6z"/>
	</g>
	<path class="st2" d="M619.3,255.8c0,0,29.9,206.3-123.4,240.4c3.1,0.2,6.2,0.4,9.4,0.4c90.4,0,163.7-100.1,163.7-223.6
		c0-3.6-0.2-7.2-0.5-10.8l-21.1-26.9L619.3,255.8z"/>
	<path class="st1" d="M414.6,316.6c0-8.3,6.7-15,15-15s15,6.7,15,15c0,8.3-6.7,15-15,15S414.6,324.9,414.6,316.6z"/>
	<path class="st1" d="M569.1,316.6c0-8.3,6.7-15,15-15c8.3,0,15,6.7,15,15c0,8.3-6.7,15-15,15C575.8,331.6,569.1,324.9,569.1,316.6z
		"/>
	<path class="st2" d="M347.3,336.7c0,0,7.1-65.9,15.7-69.5c16.6,24.8,36.3,31.2,36.3,31.2c-7.4-10.3-7.5-72.7-7.5-72.7
		c23.9,36.1,47.8,48.9,47.8,48.9c-7.4-10.6-6.3-53.8-6.3-53.8c14.2,24.1,48.6,51.1,91.3,57.9c-16.7-27-19.4-35.4-19.4-35.4
		c26.2,28.5,55.4,42.3,100.7,46.9c-13.6-14.5-16-18.4-16-18.4c27.5,24.1,79,51.1,79,51.1c-25-104.1-106-137.5-106-137.5l-125.2-11.2
		l-53.5,26.9l-36.8,40.8l-16.7,36.8L347.3,336.7z"/>
	<g>
		<path class="st11" d="M659.4,342.1c1.6-6.9,3.1-14.1,4.3-21.6c-21.4-17.2-56.7-46.6-73.9-67.2c3.3,9.1,9.3,23.7,17.4,36.1l2.2,3.4
			l-3.9-1.1c-28.6-8.4-70.5-30.8-95.2-57c2.2,8.7,7,25.9,13.5,39.2l2,4.1l-4.1-2.2c-31.7-16.8-54.4-33.2-73-52.9
			c0.3,7.8,1.1,25,1.7,36.8l0.2,2.9l-2.4-1.5c-21.7-13.5-35.4-33.3-40.9-42.2c0.2,15.3,5.2,37.2,16.9,54.8l2,3l-3.5-0.7
			c-1.3-0.3-30.5-6.1-51.1-26c0.7,8.7,3.5,30.2,13.9,50.8l1.5,3l-3.2-0.9c-14.6-3.9-28.2-12.5-40.5-25.8c0.3,22.2,3,44,8,64.9
			l2.1,8.6l-4.8-7.4c-21-32.7-32.2-70.9-32.2-110.5c0-109.1,84.8-197.9,189-197.9c104.2,0,189,88.8,189,197.9
			c0,39.6-11.1,77.8-32.2,110.5l-4.8,7.4L659.4,342.1z"/>
		<path class="st1" d="M505.2,36.4c103.6,0,187.5,87.9,187.5,196.4c0,40.6-11.8,78.3-31.9,109.6c1.8-7.4,3.2-14.9,4.4-22.6
			c-23-18.5-66.1-54.3-79.9-74.7c0,0,7.6,25.2,20.5,45.2c-32.2-9.5-76-34.7-98.5-60.9c0,0,5.7,26.3,14.9,45.2
			c-31.7-16.8-55.5-33.6-75.4-55.6c0,0,1,25.1,1.8,40.9c-28.6-17.9-43-46.2-43-46.2c-1.2,16.8,4.4,42,17,61c0,0-32.6-6.3-53.2-28.4
			c0,0,0.6,28.4,14.3,55.4c-17.8-4.7-32-16.4-42.4-28.3c0,24.2,2.9,47.4,8.1,69.2c-20.1-31.3-31.9-69-31.9-109.6
			C317.7,124.3,401.6,36.4,505.2,36.4 M505.2,33.4c-25.7,0-50.7,5.3-74.2,15.7c-22.7,10.1-43.1,24.4-60.6,42.8
			c-17.5,18.3-31.2,39.6-40.8,63.4c-9.9,24.6-15,50.7-15,77.6c0,39.9,11.2,78.3,32.4,111.3l9.5,14.8l-4.1-17.2
			c-4.7-19.6-7.3-40-7.9-60.8c11.8,11.9,24.7,19.8,38.5,23.5l6.5,1.7l-3-6c-9-17.7-12.2-36.2-13.3-46.4c20.7,18,47.7,23.4,49,23.7
			l7,1.4l-4-6c-10.2-15.3-15.2-33.9-16.4-48.4c6.8,10.1,19.5,26.1,38.4,37.9l4.9,3.1l-0.3-5.8c-0.5-10.1-1.1-24.1-1.5-32.8
			c18.2,18.5,40.3,34.3,70.7,50.3l8.1,4.3l-4-8.3c-5.3-10.8-9.4-24.2-11.9-33.5c25.3,24.6,64.6,45.4,91.9,53.4l7.8,2.3l-4.4-6.8
			c-6-9.2-10.8-19.7-14.3-28.1c18.3,19.8,48.5,45,67.9,60.5c-1.2,7.1-2.5,14.1-4.1,20.6l-4.1,17.2l9.5-14.8
			c21.2-32.9,32.4-71.4,32.4-111.3c0-26.9-5-53-15-77.6c-9.6-23.7-23.3-45.1-40.8-63.4c-17.5-18.3-37.9-32.7-60.6-42.8
			C555.9,38.7,530.9,33.4,505.2,33.4L505.2,33.4z"/>
	</g>
	<path class="st12" d="M522.4,37.2c38.8,18,87.4,50.1,101.7,101.5c17.8,64,10.9,112.4,0.5,147.1c14.5,12.9,29.8,25.5,40.6,34.1
		c-1.2,7.7-2.7,15.2-4.4,22.6c20.1-31.3,31.9-69,31.9-109.6C692.7,130.4,617.9,46.3,522.4,37.2z"/>
	<path class="st13" d="M402.3,77.6c0,0,1.6-0.3,4.7-0.8c3.1-0.5,7.6-1.3,13.4-1.9c11.5-1.3,28.1-2.9,48.1-2.6
		c10,0.1,20.8,0.6,32.2,1.8c11.4,1.2,23.4,3.1,35.6,6.2c12.2,3.1,24.6,7.1,36.7,12.8c12,5.7,23.6,12.9,33.9,21.8
		c2.7,2.1,5,4.6,7.4,7l1.8,1.8c0.7,0.7,1.1,1.3,1.7,1.9l3.3,3.7c2.2,2.4,4.2,5.2,6.4,7.8c2.1,2.6,3.9,5.4,5.9,8.1
		c7.6,10.9,13.6,22.5,18.5,34.1c5,11.6,8.6,23.2,11.4,34.4c2.8,11.2,4.6,21.9,5.8,31.8c2.4,19.9,2.1,36.6,1.6,48.2
		c-0.3,5.8-0.8,10.4-1.1,13.4c-0.4,3.1-0.6,4.7-0.6,4.7s0.2-1.7,0.3-4.8c0.2-3.1,0.2-7.7,0.2-13.5c0-11.6-0.9-28.1-3.9-47.7
		c-1.6-9.8-3.8-20.2-6.8-31.1c-3-10.9-7-22.1-11.9-33.3c-5-11.2-11.1-22.3-18.5-32.9c-1.9-2.6-3.7-5.3-5.7-7.8l-3-3.7
		c-1-1.3-2-2.5-3.1-3.7l-3.3-3.7c-0.5-0.6-1.2-1.3-1.6-1.8l-1.7-1.7c-2.3-2.3-4.5-4.6-7.1-6.6c-9.7-8.5-20.8-15.5-32.4-21
		c-11.6-5.5-23.5-9.8-35.4-12.9c-23.8-6.3-46.8-8.8-66.6-9.8c-19.8-0.9-36.3-0.5-47.9,0.3c-5.8,0.4-10.3,0.7-13.4,1
		C403.9,77.4,402.3,77.6,402.3,77.6z"/>
	<path class="st14" d="M391.8,84.9c0,0-1.3,2.9-3.2,8.1c-1,2.6-2.1,5.7-3.3,9.4c-1.3,3.6-2.5,7.8-3.9,12.3
		c-1.3,4.5-2.6,9.5-3.8,14.7c-1.3,5.2-2.2,10.8-3.2,16.6c-0.8,5.8-1.6,11.8-1.9,17.9c-0.5,6.1-0.4,12.3-0.1,18.5
		c0.3,3.1,0.3,6.2,0.8,9.2c0.2,1.5,0.4,3,0.6,4.6c0.2,1.5,0.6,3,0.8,4.5c1.1,6,2.7,11.7,4.6,17.2c0.9,2.8,2.1,5.3,3.1,7.9
		c1.1,2.6,2.4,5,3.5,7.4c1.2,2.4,2.6,4.5,3.9,6.7c1.2,2.2,2.7,4.1,4,6.1c0.7,1,1.3,1.9,2,2.8c0.7,0.9,1.4,1.7,2.1,2.6
		c1.4,1.7,2.5,3.3,3.8,4.7c2.6,2.7,4.8,5.3,6.8,7.2c4,3.8,6.3,6,6.3,6s-2.6-1.8-7.1-5.1c-2.2-1.6-4.7-3.9-7.7-6.5
		c-1.5-1.3-2.8-2.8-4.4-4.4c-0.8-0.8-1.5-1.6-2.3-2.4c-0.8-0.8-1.5-1.8-2.3-2.7c-1.5-1.9-3.2-3.8-4.7-5.9c-1.4-2.2-3-4.4-4.5-6.8
		c-1.3-2.4-2.8-4.9-4.1-7.5c-0.6-1.3-1.2-2.7-1.8-4c-0.6-1.4-1.3-2.7-1.8-4.2c-0.5-1.4-1-2.9-1.6-4.3l-0.8-2.2l-0.6-2.2
		c-0.4-1.5-0.9-3-1.3-4.5c-0.4-1.5-0.7-3.1-1-4.7c-0.3-1.6-0.7-3.1-0.9-4.7c-0.2-1.6-0.4-3.2-0.7-4.8c-0.5-3.2-0.6-6.4-0.9-9.7
		c-0.2-6.5-0.2-12.9,0.3-19.3c0.4-6.3,1.5-12.5,2.5-18.4c1.2-5.9,2.5-11.6,4.1-16.8c1.5-5.3,3.2-10.2,4.9-14.7
		c3.4-8.9,6.9-16.1,9.5-21C390,87.6,391.8,84.9,391.8,84.9z"/>
	<path class="st12" d="M349.6,342.5c-3.2-13.4-5.5-27.3-6.8-41.7c-9.6-9.9-16.8-21.5-22.1-33.1C325.3,295,335.3,320.3,349.6,342.5z"
		/>
	<g>
		<path class="st12" d="M605.9,290.3c-4.6-7.1-8.6-15-11.7-22.1c-43.1-7.8-86.7-38.9-86.7-38.9C529.9,255.6,573.7,280.9,605.9,290.3
			z"/>
	</g>
	<g>
		<path class="st12" d="M512.6,248.8C489.8,253.7,447,219,447,219c19.9,21.9,43.7,38.8,75.4,55.6
			C518.4,266.4,515.1,256.9,512.6,248.8z"/>
	</g>
	<path class="st12" d="M447.9,241.6c-18.8,0.9-42.2-28-42.2-28l0.7,1.3c3.2,5.8,17.4,29.3,42.3,44.9
		C448.5,254.4,448.2,247.9,447.9,241.6z"/>
	<path class="st12" d="M507.4,229.4c0,0-65.2-55.7-97.3-121.9c39.4,52,116.4,140.2,184,160.7c-19.2,0.1-43.8-8.4-43.8-8.4
		L507.4,229.4z"/>
	<path class="st13" d="M396.5,81.3c0,0,2.8,3.5,7.7,9.6c2.5,3,5.4,6.7,8.9,10.9c3.5,4.2,7.4,8.9,11.6,14.1
		c4.3,5.1,8.9,10.7,13.9,16.5c5,5.8,10.2,11.9,15.7,18.2c2.8,3.1,5.5,6.3,8.4,9.5c2.9,3.2,5.8,6.4,8.7,9.6
		c5.8,6.6,12,12.9,18.1,19.4c6.1,6.5,12.4,12.7,18.5,19c6.3,6,12.4,12.1,18.4,17.8c6.2,5.5,12.1,11.1,17.8,16.1
		c5.9,4.9,11.3,9.6,16.4,13.9c5.3,4.1,10.1,7.8,14.4,11.1c1.1,0.8,2.1,1.6,3.1,2.4c1,0.8,2,1.4,3,2.1c1.9,1.3,3.7,2.5,5.3,3.6
		c6.4,4.4,10.1,7,10.1,7s-3.9-2.2-10.8-5.9c-1.7-1-3.6-2-5.7-3.2c-1-0.6-2.1-1.1-3.2-1.8c-1.1-0.7-2.2-1.4-3.3-2.2
		c-4.5-3-9.7-6.4-15.2-10.2c-5.4-4-11.2-8.4-17.3-13.1c-6-4.8-12.1-10.1-18.5-15.6c-6.2-5.6-12.6-11.5-19-17.6
		c-6.2-6.3-12.6-12.5-18.8-19c-6-6.6-12.3-13-18-19.7c-5.9-6.6-11.5-13.1-16.8-19.6c-5.4-6.4-10.4-12.8-15.2-18.8
		c-4.8-6-9.1-11.9-13.1-17.2c-7.9-10.8-14.3-19.9-18.7-26.5c-2.2-3.2-3.8-5.8-5-7.6C397.1,82.2,396.5,81.3,396.5,81.3z"/>
	<path class="st12" d="M402.3,81.3c0,0,175,44.1,229.1,200.6c4.5,12.9,21-35.8,24.8-21.5C656.2,223.6,610.1,81.3,402.3,81.3z"/>
	<path class="st12" d="M411.8,252.1c-19.6,12.9-42.2-5.9-42.2-5.9c20.6,22.1,53.2,28.4,53.2,28.4
		C418.2,267.7,414.5,259.9,411.8,252.1z"/>
	<path class="st12" d="M375.6,280.5c-18.8,5.2-34.1-7.2-34.1-7.2c10.4,11.9,24.6,23.6,42.4,28.3
		C380.3,294.4,377.6,287.2,375.6,280.5z"/>
	<path class="st15" d="M396.5,81.3c0,0,4.5,13.4,12.5,32.8c2,4.9,4.3,10.1,6.7,15.6c2.5,5.5,5.2,11.2,8,17.1c2.8,5.9,6,11.9,9.2,18
		c1.6,3,3.3,6,5,9.1c1.8,3,3.5,6,5.3,9c3.6,6,7.2,11.9,11.1,17.6c1.9,2.9,3.8,5.6,5.8,8.4c1.9,2.8,3.9,5.4,5.9,8
		c1.9,2.6,4,5.1,5.9,7.6c1.9,2.5,3.9,4.8,5.9,7.1c1.9,2.3,3.9,4.4,5.8,6.5c1.9,2.1,3.7,4.1,5.6,5.9c3.6,3.8,7.1,7,10.2,10
		c3.2,2.9,6,5.3,8.3,7.3c4.8,3.9,7.5,6.1,7.5,6.1s-3-1.8-8.3-5.1c-2.5-1.8-5.7-3.9-9.1-6.5c-1.7-1.3-3.5-2.8-5.4-4.2
		c-1.9-1.5-3.8-3.2-5.8-5c-2-1.7-4-3.6-6.1-5.6c-2.1-2-4.2-4.1-6.3-6.3c-4.2-4.4-8.5-9.2-12.7-14.4c-2.1-2.6-4.2-5.2-6.3-8
		c-1-1.4-2.1-2.7-3.1-4.1c-1-1.4-2-2.8-3-4.3c-4-5.7-7.8-11.7-11.5-17.8c-1.8-3-3.5-6.1-5.3-9.2c-1.7-3.1-3.4-6.2-5-9.3
		c-1.6-3.1-3.2-6.2-4.6-9.3c-1.5-3.1-2.9-6.1-4.2-9.2c-2.7-6-5.1-12-7.3-17.7c-2.2-5.7-4.1-11.1-5.7-16.1c-1.7-5-3.1-9.7-4.2-13.8
		c-1.2-4.1-2.1-7.8-2.8-10.8C397.1,84.7,396.5,81.3,396.5,81.3z"/>
	<path class="st15" d="M383.9,90.7c0,0-0.5,0.7-1.5,2c-0.9,1.3-2.2,3.3-3.9,5.8c-1.6,2.5-3.5,5.6-5.6,9.3c-2,3.7-4.3,7.8-6.5,12.4
		c-2.2,4.6-4.5,9.7-6.6,15.2c-2.2,5.4-4,11.3-5.9,17.5c-1.7,6.2-3.2,12.6-4.3,19.2c-0.7,3.3-1,6.6-1.4,10c-0.4,3.4-0.6,6.8-0.8,10.1
		c-0.3,6.8-0.3,13.6,0.3,20.2c0.1,1.7,0.3,3.3,0.4,5c0.2,1.6,0.4,3.3,0.7,4.9c0.2,1.6,0.4,3.2,0.7,4.8c0.3,1.6,0.6,3.2,0.9,4.7
		c0.3,1.6,0.6,3.1,1,4.6c0.4,1.5,0.8,3,1.2,4.5c0.4,1.5,0.8,3,1.1,4.4c0.5,1.4,0.9,2.8,1.4,4.2c1.7,5.6,3.8,10.7,5.6,15.5
		c1.1,2.3,2.1,4.6,3,6.7c0.5,1.1,0.9,2.1,1.4,3.1c0.5,1,1,1.9,1.5,2.9c2,3.7,3.5,7,5.1,9.5c3.1,5.2,4.8,8.2,4.8,8.2s-2-2.8-5.5-7.7
		c-1.8-2.4-3.6-5.6-5.8-9.2c-0.5-0.9-1.1-1.8-1.7-2.8c-0.5-1-1.1-2-1.6-3.1c-1.1-2.1-2.2-4.3-3.4-6.6c-2.1-4.7-4.5-9.8-6.4-15.5
		c-0.5-1.4-1-2.8-1.5-4.3c-0.4-1.5-0.9-3-1.3-4.5c-0.4-1.5-0.9-3-1.3-4.6c-0.4-1.5-0.7-3.1-1.1-4.7c-0.3-1.6-0.7-3.2-1.1-4.8
		c-0.3-1.6-0.5-3.3-0.8-4.9c-0.3-1.7-0.5-3.3-0.8-5c-0.2-1.7-0.3-3.4-0.5-5.1c-0.7-6.8-0.7-13.8-0.5-20.8c0.2-3.5,0.5-7,0.9-10.4
		c0.5-3.4,0.8-6.9,1.5-10.2c1.1-6.8,3-13.3,4.8-19.5c2-6.2,4.1-12.1,6.5-17.6c1.1-2.8,2.4-5.4,3.6-7.9c1.3-2.5,2.5-4.9,3.7-7.2
		c2.4-4.6,5-8.6,7.3-12.1c2.3-3.5,4.4-6.5,6.3-8.9c1.8-2.4,3.3-4.2,4.4-5.5C383.3,91.4,383.9,90.7,383.9,90.7z"/>
	<path class="st15" d="M406.6,82.5c0,0,1.4,0.1,4,0.3c2.6,0.2,6.4,0.6,11.3,1.2c4.8,0.7,10.7,1.6,17.4,2.9c3.4,0.6,6.9,1.4,10.7,2.1
		c3.7,0.8,7.7,1.8,11.7,2.8c8.1,2.1,16.9,4.6,26,7.8c4.6,1.5,9.2,3.3,14,5c2.3,1,4.7,1.9,7.1,2.9c2.4,1,4.8,2,7.2,3.1
		c2.4,1.1,4.8,2.2,7.3,3.3c2.4,1.2,4.8,2.4,7.2,3.6c4.9,2.3,9.7,5.1,14.5,7.8c2.4,1.3,4.7,2.9,7.1,4.3c2.4,1.5,4.8,2.9,7.1,4.5
		c4.6,3.2,9.4,6.2,13.8,9.8l6.7,5.2l6.4,5.5c4.3,3.6,8.3,7.6,12.3,11.4c2,1.9,3.9,3.9,5.8,6c1.9,2,3.7,4.1,5.5,6.1
		c3.5,4.2,6.8,8.4,10.1,12.6c3,4.4,6,8.6,8.8,12.9c2.6,4.4,5.1,8.7,7.5,12.9c2.1,4.3,4.2,8.6,6.3,12.7c1.9,4.1,3.4,8.3,5,12.2
		c1.7,3.9,2.8,7.8,3.9,11.4c0.6,1.8,1.1,3.6,1.7,5.4c0.5,1.7,1.1,3.4,1.4,5.1c0.8,3.3,1.5,6.4,2.2,9.3c0.6,2.9,1.4,5.5,1.6,7.9
		c0.8,4.8,1.3,8.6,1.7,11.2c0.4,2.6,0.6,4,0.6,4s-0.3-1.4-0.9-3.9c-0.6-2.6-1.5-6.3-2.5-11c-0.4-2.4-1.3-5-2.1-7.8
		c-0.8-2.8-1.7-5.8-2.7-9.1c-0.4-1.6-1.1-3.3-1.7-4.9c-0.6-1.7-1.3-3.4-2-5.2c-1.4-3.5-2.6-7.3-4.4-11.1c-1.8-3.8-3.4-7.7-5.4-11.7
		c-2.1-3.9-4.3-8-6.6-12.2c-2.5-4-5.1-8.1-7.8-12.3c-2.9-4-5.9-8.1-8.9-12.3c-3.3-4-6.6-8.1-10.1-12c-1.8-1.9-3.7-3.9-5.5-5.8
		c-1.8-2-3.6-4-5.7-5.8c-3.9-3.7-7.8-7.6-12.1-11l-6.3-5.3l-6.6-5c-4.3-3.5-8.9-6.4-13.4-9.6c-2.2-1.6-4.6-3-6.9-4.4
		c-2.3-1.4-4.6-3-7-4.3c-4.7-2.6-9.4-5.5-14.1-7.9c-2.4-1.2-4.7-2.5-7-3.7c-2.4-1.1-4.7-2.3-7.1-3.4c-4.6-2.3-9.4-4.2-13.9-6.3
		c-4.6-1.9-9.1-3.8-13.6-5.4c-4.5-1.7-8.8-3.3-13.1-4.7c-4.2-1.5-8.4-2.8-12.3-4c-8-2.4-15.3-4.5-21.9-6.2
		c-6.6-1.7-12.3-2.9-17.1-3.9c-4.8-0.9-8.5-1.7-11.1-2.1C408,82.7,406.6,82.5,406.6,82.5z"/>
</g>
<g id="weapon_1_">
	<g>
		<path class="st16" d="M287.7,488.4c0,0-59.8-107.7-74.1-133.5c-14.4-25.9-14.5-56.7-0.2-64.6c2.4-1.3,5.2-2,8.4-2
			c15.1,0,34.6,15.3,46.3,36.4l74.8,134.9l-27.2,15.1l-27.2,15.1L287.7,488.4z"/>
		<path class="st1" d="M221.7,289.8c13.8,0,33.1,14.2,45,35.6c14.3,25.8,74.1,133.5,74.1,133.5l-25.9,14.4L289,487.7
			c0,0-59.8-107.7-74.1-133.5c-14.3-25.8-14-55.2-0.8-62.5C216.3,290.4,218.9,289.8,221.7,289.8 M221.7,286.8
			c-3.4,0-6.4,0.7-9.1,2.2c-15.2,8.4-15.3,39.5-0.3,66.6c14.3,25.8,74.1,133.5,74.1,133.5l1.5,2.6l2.6-1.5l25.9-14.4l25.9-14.4
			l2.6-1.5l-1.5-2.6l-74.1-133.5C257.3,302.4,237.3,286.8,221.7,286.8L221.7,286.8z"/>
	</g>
	<path class="st17" d="M214.9,354.1c14.3,25.8,74.1,133.5,74.1,133.5l25.9-14.4L214,291.6C200.8,298.9,200.6,328.3,214.9,354.1z"/>
	<g>
		<path class="st18" d="M373,598.4c-0.5,0-1-0.2-1.3-0.7l-67.1-104.3c-0.2-0.3-0.3-0.8-0.2-1.2c0.1-0.4,0.4-0.7,0.7-0.9l30.4-16.9
			c0.2-0.1,0.5-0.2,0.7-0.2c0.2,0,0.3,0,0.5,0.1c0.4,0.1,0.7,0.4,0.9,0.8l53,112.1c0.3,0.7,0.1,1.6-0.6,2l-16.3,9.1
			C373.5,598.4,373.2,598.4,373,598.4z"/>
		<path class="st1" d="M336.3,475.8l53,112.1l-16.3,9.1l-67.1-104.3L336.3,475.8 M336.3,472.8c-0.5,0-1,0.1-1.5,0.4L304.4,490
			c-0.7,0.4-1.3,1.1-1.5,1.9c-0.2,0.8-0.1,1.7,0.4,2.4l67.1,104.3c0.6,0.9,1.5,1.4,2.5,1.4c0.5,0,1-0.1,1.5-0.4l16.3-9.1
			c1.4-0.8,1.9-2.5,1.3-3.9l-53-112.1c-0.4-0.7-1-1.3-1.8-1.6C336.9,472.8,336.6,472.8,336.3,472.8L336.3,472.8z"/>
	</g>
	<polygon class="st19" points="384.8,590.4 389.3,587.9 342,488.4 333.4,494.9 	"/>
	<g>
		<path class="st18" d="M381.1,605.4c-4.7,0-9.1-2.6-11.4-6.7c-1.7-3-2.1-6.6-1.1-9.9c1-3.3,3.2-6.1,6.2-7.8
			c1.9-1.1,4.1-1.6,6.3-1.6c4.7,0,9.1,2.6,11.4,6.7c3.5,6.3,1.2,14.2-5.1,17.7C385.5,604.9,383.3,605.4,381.1,605.4z"/>
		<path class="st1" d="M381.1,580.9c4.1,0,8,2.1,10.1,5.9c3.1,5.6,1.1,12.6-4.5,15.7c-1.8,1-3.7,1.4-5.6,1.4c-4.1,0-8-2.1-10.1-5.9
			c-3.1-5.6-1.1-12.6,4.5-15.7C377.3,581.4,379.2,580.9,381.1,580.9 M381.1,577.9C381.1,577.9,381.1,577.9,381.1,577.9
			c-2.5,0-4.9,0.6-7,1.8c-3.4,1.9-5.8,5-6.9,8.7c-1.1,3.7-0.6,7.7,1.3,11c2.6,4.6,7.4,7.5,12.7,7.5c2.4,0,4.9-0.6,7-1.8
			c7-3.9,9.5-12.7,5.7-19.7C391.3,580.8,386.4,577.9,381.1,577.9L381.1,577.9z"/>
	</g>
	<g>
		<path class="st19" d="M380.6,580.9c0.9,0.8,1.6,1.7,2.2,2.8c3.1,5.6,1.1,12.6-4.5,15.7c-1.6,0.9-3.3,1.3-5.1,1.4
			c3.6,3.3,9,4.2,13.5,1.7c5.6-3.1,7.6-10.1,4.5-15.7C389,582.9,384.8,580.7,380.6,580.9z"/>
	</g>
	<g>
		<path class="st18" d="M285.8,518.8c-4.9,0-9.5-2.7-11.9-7c-1.8-3.2-2.2-6.8-1.2-10.3c1-3.5,3.3-6.4,6.5-8.1l71.9-39.8
			c2-1.1,4.3-1.7,6.6-1.7c4.9,0,9.5,2.7,11.9,7c3.6,6.6,1.3,14.8-5.3,18.5l-71.9,39.8C290.3,518.2,288.1,518.8,285.8,518.8z"/>
		<g>
			<path class="st1" d="M357.6,453.3c4.2,0,8.4,2.2,10.6,6.2c3.2,5.8,1.1,13.2-4.7,16.4l-71.9,39.8c-1.9,1-3.9,1.5-5.9,1.5
				c-4.2,0-8.4-2.2-10.6-6.2c-3.2-5.8-1.1-13.2,4.7-16.4l71.9-39.8C353.6,453.8,355.6,453.3,357.6,453.3 M357.6,450.3
				C357.6,450.3,357.6,450.3,357.6,450.3c-2.5,0-5.1,0.7-7.3,1.9L278.4,492c-3.5,2-6.1,5.2-7.2,9c-1.1,3.9-0.6,7.9,1.3,11.5
				c2.7,4.8,7.7,7.8,13.2,7.8c2.5,0,5.1-0.7,7.3-1.9l71.9-39.8c7.3-4,9.9-13.2,5.9-20.5C368.1,453.3,363.1,450.3,357.6,450.3
				L357.6,450.3z"/>
		</g>
	</g>
	<path class="st20" d="M351.8,454.8l-18.6,10.3c6.6-0.3,13.4,13,13,20.4l17.3-9.6c5.8-3.2,7.9-10.6,4.7-16.4
		C364.9,453.7,357.6,451.6,351.8,454.8z"/>
</g>
<g id="hand_1_">
	<g>
		<path class="st3" d="M567.5,621.3c-22,0-39.8-17.9-39.8-39.8c0-22,17.9-39.8,39.8-39.8s39.8,17.9,39.8,39.8
			C607.4,603.5,589.5,621.3,567.5,621.3z"/>
		<g>
			<path class="st1" d="M567.5,543.2c21.2,0,38.3,17.2,38.3,38.3s-17.2,38.3-38.3,38.3c-21.2,0-38.3-17.2-38.3-38.3
				S546.4,543.2,567.5,543.2 M567.5,540.2c-22.8,0-41.3,18.5-41.3,41.3c0,22.8,18.5,41.3,41.3,41.3c22.8,0,41.3-18.5,41.3-41.3
				C608.9,558.7,590.3,540.2,567.5,540.2L567.5,540.2z"/>
		</g>
	</g>
	<path class="st4" d="M605.9,581.5c0-0.1,0-0.1,0-0.2c-12.4,18.8-34.1,20.1-48,11.7c-14.8-8.9-18.6-25.6-16.4-39.5
		c-7.5,7-12.2,16.9-12.2,28c0,21.2,17.2,38.3,38.3,38.3C588.7,619.8,605.9,602.7,605.9,581.5z"/>
	<g>
		<path class="st3" d="M351.6,577.2c-22,0-39.8-17.9-39.8-39.8c0-22,17.9-39.8,39.8-39.8c22,0,39.8,17.9,39.8,39.8
			C391.5,559.3,373.6,577.2,351.6,577.2z"/>
		<g>
			<path class="st1" d="M351.6,499c21.2,0,38.3,17.2,38.3,38.3c0,21.2-17.2,38.3-38.3,38.3c-21.2,0-38.3-17.2-38.3-38.3
				C313.3,516.1,330.5,499,351.6,499 M351.6,496c-22.8,0-41.3,18.5-41.3,41.3c0,22.8,18.5,41.3,41.3,41.3
				c22.8,0,41.3-18.5,41.3-41.3C393,514.5,374.4,496,351.6,496L351.6,496z"/>
		</g>
	</g>
	<path class="st4" d="M390,537.3c0-0.1,0-0.1,0-0.2c-12.4,18.8-34.1,20.1-48,11.7c-14.8-8.9-18.6-25.6-16.4-39.5
		c-7.5,7-12.2,16.9-12.2,28c0,21.2,17.2,38.3,38.3,38.3C372.8,575.7,390,558.5,390,537.3z"/>
</g>
</svg>
