<?xml version="1.0" encoding="utf-8"?>
<!-- Generator: Adobe Illustrator 19.1.0, SVG Export Plug-In . SVG Version: 6.00 Build 0)  -->
<svg version="1.1" id="Layer_1" xmlns="http://www.w3.org/2000/svg" xmlns:xlink="http://www.w3.org/1999/xlink" x="0px" y="0px"
	 viewBox="214 36.9 1024 768" style="enable-background:new 214 36.9 1024 768;" xml:space="preserve">
<style type="text/css">
	.st0{fill:#EFB886;}
	.st1{fill:#B77E53;}
	.st2{fill:#9E8869;}
	.st3{fill:#BFBFBF;}
	.st4{fill:#444444;}
	.st5{fill:#424242;}
	.st6{fill:#282828;}
	.st7{fill:#232323;}
	.st8{fill:#FFFFFF;}
	.st9{fill:#AF180C;}
	.st10{fill:#AAAAAA;}
	.st11{fill:#A0A0A0;}
	.st12{fill:#7F7F7F;}
	.st13{fill:#E5A71C;}
	.st14{fill:#EAB959;}
	.st15{fill:#A57411;}
	.st16{fill:#AFAFAF;}
	.st17{fill:#E82A2A;}
	.st18{fill:#B71616;}
	.st19{fill:#A51717;}
</style>
<g>
	<g>
		<path class="st0" d="M827,654c-0.2,0-0.3,0-0.5-0.1c-0.3-0.1-1.5-0.6-3.4-1.4c-12.2-5.5-52.4-27.3-56.6-77.8
			c-0.1-0.7,0.4-1.3,1-1.5c0.2-0.1,0.3-0.1,0.5-0.1c0.5,0,1,0.3,1.3,0.7l10.7,16.9c1.3-1.6,3.5-4,7.1-6.5c0.3-0.2,0.6-0.3,0.9-0.3
			c0.2,0,0.4,0,0.5,0.1c0.5,0.2,0.8,0.6,0.9,1c9.2,35.7,42.9,48.7,44.3,49.2c0.8,0.3,1.2,1.1,0.9,1.9l-6.2,16.8
			C828.2,653.6,827.6,654,827,654z"/>
		<g>
			<path d="M768.1,574.6l11,17.3c0.1,1.1,0.2,1.6,0.4,1.6c0.7,0,2.5-3.9,8.5-8.1c9.3,36.4,43.6,49.6,45.2,50.2l-6.2,16.8
				c-0.3-0.1-1.5-0.5-3.3-1.4C811.9,645.8,772.2,624.3,768.1,574.6 M768.1,571.6c-0.3,0-0.6,0.1-1,0.2c-1.3,0.4-2.1,1.7-2,3.1
				c4.3,51.3,45,73.5,57.4,79c1.8,0.8,3,1.3,3.5,1.4c0.3,0.1,0.7,0.2,1,0.2c0.4,0,0.9-0.1,1.3-0.3c0.7-0.3,1.3-0.9,1.6-1.7l6.2-16.8
				c0.6-1.6-0.2-3.3-1.8-3.9c-1.4-0.5-34.4-13.2-43.4-48.2c-0.2-1-0.9-1.7-1.9-2.1c-0.3-0.1-0.7-0.2-1-0.2c-0.6,0-1.2,0.2-1.7,0.5
				c-2.7,1.9-4.7,3.7-6,5.2l-9.7-15.2C770,572.1,769.1,571.6,768.1,571.6L768.1,571.6z"/>
		</g>
	</g>
	<g>
		<path class="st1" d="M773.7,574.1c5.9,46.7,43.7,67.1,55.2,72.3c0.1,0,0.2,0.1,0.2,0.1l-2.2,6c-0.3-0.1-1.5-0.5-3.3-1.4
			c-11.9-5.3-51.6-26.8-55.7-76.5L773.7,574.1z"/>
	</g>
	<g>
		<path class="st0" d="M618.6,654c-0.6,0-1.2-0.4-1.4-1l-6.2-16.8c-0.3-0.8,0.1-1.6,0.9-1.9c1.4-0.5,35.1-13.4,44.3-49.2
			c0.1-0.5,0.5-0.9,0.9-1c0.2-0.1,0.3-0.1,0.5-0.1c0.3,0,0.6,0.1,0.9,0.3c3.6,2.5,5.8,4.9,7.1,6.5l10.7-16.9
			c0.3-0.4,0.8-0.7,1.3-0.7c0.2,0,0.3,0,0.5,0.1c0.7,0.2,1.1,0.9,1,1.5c-4.2,50.5-44.3,72.3-56.6,77.8c-1.8,0.8-3,1.3-3.4,1.4
			C619,653.9,618.8,654,618.6,654z"/>
		<g>
			<path d="M677.6,574.6c-4.1,49.7-43.8,71.2-55.7,76.5c-1.8,0.8-3,1.3-3.3,1.4l-6.2-16.8c1.6-0.6,35.9-13.9,45.2-50.2
				c6,4.1,7.8,8.1,8.5,8.1c0.2,0,0.3-0.5,0.4-1.6L677.6,574.6 M677.6,571.6c-1,0-2,0.5-2.5,1.4l-9.7,15.2c-1.4-1.5-3.3-3.4-6-5.2
				c-0.5-0.4-1.1-0.5-1.7-0.5c-0.4,0-0.7,0.1-1,0.2c-0.9,0.3-1.6,1.1-1.9,2.1c-9,35-42,47.6-43.4,48.2c-1.5,0.6-2.3,2.3-1.8,3.9
				l6.2,16.8c0.3,0.7,0.8,1.4,1.6,1.7c0.4,0.2,0.8,0.3,1.3,0.3c0.4,0,0.7-0.1,1-0.2c0.4-0.2,1.6-0.6,3.5-1.4
				c12.4-5.6,53.2-27.7,57.4-79c0.1-1.4-0.7-2.7-2-3.1C678.2,571.6,677.9,571.6,677.6,571.6L677.6,571.6z"/>
		</g>
	</g>
	<g>
		<path class="st1" d="M671.9,574.1c-5.9,46.7-43.7,67.1-55.2,72.3c-0.1,0-0.2,0.1-0.2,0.1l2.2,6c0.3-0.1,1.5-0.5,3.3-1.4
			c11.9-5.3,51.6-26.8,55.7-76.5L671.9,574.1z"/>
	</g>
	<ellipse class="st2" cx="729" cy="771.7" rx="157.9" ry="25.3"/>
	<g>
		<polygon class="st3" points="641.9,743.6 664.9,669.7 782.1,669.7 805.1,743.6 		"/>
		<g>
			<path d="M781,671.2l22.1,70.9H643.9l22.1-70.9H781 M783.2,668.2H781H666h-2.2l-0.7,2.1l-22.1,70.9l-1.2,3.9h4.1H803h4.1l-1.2-3.9
				l-22.1-70.9L783.2,668.2L783.2,668.2z"/>
		</g>
	</g>
	<g>
		<path class="st4" d="M736.8,777.6c-0.8,0-1.5-0.7-1.5-1.5v-41.9c0-6.8-5.5-12.3-12.3-12.3c-6.8,0-12.3,5.5-12.3,12.3v41.9
			c0,0.8-0.7,1.5-1.5,1.5h-32.7c-0.8,0-1.4-0.6-1.5-1.3l-9.5-80.7c0-0.1,0-0.1,0-0.2v-18.9c0-0.8,0.7-1.5,1.5-1.5h113.4
			c0.8,0,1.5,0.7,1.5,1.5v18.9c0,0.8-0.7,1.5-1.5,1.5h-0.1l-9.3,79.4c-0.1,0.8-0.7,1.3-1.5,1.3H736.8z"/>
		<path d="M780.4,676.5v18.9H779l-9.5,80.7h-32.7v-41.9c0-7.6-6.2-13.8-13.8-13.8c-7.6,0-13.8,6.2-13.8,13.8v41.9h-32.7l-9.5-80.7
			v-18.9H780.4 M780.4,673.5H667c-1.7,0-3,1.3-3,3v18.9c0,0.1,0,0.2,0,0.3l9.5,80.7c0.2,1.5,1.5,2.7,3,2.7h32.7c1.7,0,3-1.3,3-3
			v-41.9c0-5.9,4.8-10.8,10.8-10.8c5.9,0,10.8,4.8,10.8,10.8v41.9c0,1.7,1.3,3,3,3h32.7c1.5,0,2.8-1.1,3-2.7l9.2-78.3
			c1-0.5,1.7-1.5,1.7-2.7v-18.9C783.4,674.8,782.1,673.5,780.4,673.5L780.4,673.5z"/>
	</g>
	<g>
		<path class="st5" d="M665.5,677v-34.5l-8.9-61.3l14.9-12.2c5.7-7.6,14.4-12,23.9-12h55.2c9.4,0,18.3,4.5,23.9,12l14.8,12.1
			l-8.9,61.1V677H665.5z"/>
		<g>
			<path d="M750.6,558.6c9.4,0,17.7,4.6,22.8,11.6l14.3,11.7l-8.8,60.4v33.2c-20,0-85.8,0-111.9,0v-33.1l-8.8-60.5l14.4-11.7
				c5.2-7,13.4-11.5,22.8-11.5H750.6 M750.6,555.6h-55.2c-9.9,0-19,4.5-25,12.4l-14.1,11.5l-1.3,1.1l0.2,1.7l8.8,60.3v32.9v3h3H779
				h3v-3v-33l8.7-60.2l0.2-1.7l-1.3-1.1l-14-11.5C769.7,560.3,760.4,555.6,750.6,555.6L750.6,555.6z"/>
		</g>
	</g>
	<path class="st6" d="M766.4,708c0,11.9-7.7,25-25.4,27.7c10,6.8,21,10.1,31.9,11.4l6.1-51.7h-21.2C762.5,699,766.4,703.4,766.4,708
		z"/>
	<path class="st7" d="M787.7,581.9l-14.3-11.7c-5.2-7-13.5-11.6-22.8-11.6h-22.5l-1.2,19.7c0,0,54.8-15,33.9,97
		c6.6,0.5,12.6,0,18.2-1.1v-31.9L787.7,581.9z"/>
	<g>
		<path class="st8" d="M648.9,727.8c-0.3,0-0.6-0.1-0.8-0.2c-0.6-0.4-0.8-1.1-0.6-1.7l15.5-49.6c0.2-0.6,0.8-1.1,1.4-1.1h41.8
			c0.6,0,1.2,0.4,1.4,1s0,1.2-0.4,1.7l-57.3,49.6C649.6,727.7,649.2,727.8,648.9,727.8z"/>
		<g>
			<path d="M706.2,676.7l-57.3,49.6l15.5-49.6H706.2 M706.2,673.7h-41.8c-1.3,0-2.5,0.9-2.9,2.1L646,725.4c-0.4,1.3,0.1,2.7,1.2,3.4
				c0.5,0.3,1.1,0.5,1.6,0.5c0.7,0,1.4-0.2,2-0.7l57.3-49.6c0.9-0.8,1.3-2.1,0.8-3.3C708.6,674.5,707.4,673.7,706.2,673.7
				L706.2,673.7z"/>
		</g>
	</g>
	<g>
		<path class="st8" d="M798.1,727.8c-0.4,0-0.7-0.1-1-0.4l-57.3-49.6c-0.5-0.4-0.6-1.1-0.4-1.7s0.8-1,1.4-1h41.8
			c0.7,0,1.2,0.4,1.4,1.1l15.5,49.6c0.2,0.6,0,1.3-0.6,1.7C798.7,727.7,798.4,727.8,798.1,727.8z"/>
		<g>
			<path d="M782.6,676.7l15.5,49.6l-57.3-49.6H782.6 M782.6,673.7h-41.8c-1.3,0-2.4,0.8-2.8,2c-0.4,1.2-0.1,2.5,0.8,3.3l57.3,49.6
				c0.6,0.5,1.3,0.7,2,0.7c0.6,0,1.1-0.2,1.6-0.5c1.1-0.7,1.6-2.1,1.2-3.4l-15.5-49.6C785.1,674.5,783.9,673.7,782.6,673.7
				L782.6,673.7z"/>
		</g>
	</g>
	<g>
		<path class="st9" d="M723.5,715.6c-0.2,0-0.5-0.1-0.7-0.2l-19.1-9.5c-0.5-0.3-0.8-0.8-0.8-1.3v-27.9c0-0.8,0.7-1.5,1.5-1.5h38.1
			c0.8,0,1.5,0.7,1.5,1.5v27.9c0,0.6-0.3,1.1-0.8,1.3l-19.1,9.5C723.9,715.5,723.7,715.6,723.5,715.6z"/>
		<path d="M742.6,676.7v27.9l-19.1,9.5l-19.1-9.5v-27.9H742.6 M742.6,673.7h-38.1c-1.7,0-3,1.3-3,3v27.9c0,1.1,0.6,2.2,1.7,2.7
			l19.1,9.5c0.4,0.2,0.9,0.3,1.3,0.3c0.5,0,0.9-0.1,1.3-0.3l19.1-9.5c1-0.5,1.7-1.5,1.7-2.7v-27.9
			C745.6,675.1,744.2,673.7,742.6,673.7L742.6,673.7z"/>
	</g>
	<g>
		<path class="st10" d="M723.5,715.6c-0.2,0-0.5-0.1-0.7-0.2l-19.1-9.5c-0.5-0.3-0.8-0.8-0.8-1.3v-27.9c0-0.8,0.7-1.5,1.5-1.5h4.1
			c0.8,0,1.5,0.7,1.5,1.5v24.2l13.5,6.5l13.5-6.5v-24.2c0-0.8,0.7-1.5,1.5-1.5h4.1c0.8,0,1.5,0.7,1.5,1.5v27.9
			c0,0.6-0.3,1.1-0.8,1.3l-19.1,9.5C723.9,715.5,723.7,715.6,723.5,715.6z"/>
		<g>
			<path d="M742.6,676.7v27.9l-19.1,9.5l-19.1-9.5v-27.9h4.1v25.1l15,7.3l15-7.3v-25.1H742.6 M742.6,673.7h-4.1c-1.7,0-3,1.3-3,3
				V700l-12,5.8l-12-5.8v-23.2c0-1.7-1.3-3-3-3h-4.1c-1.7,0-3,1.3-3,3v27.9c0,1.1,0.6,2.2,1.7,2.7l19.1,9.5c0.4,0.2,0.9,0.3,1.3,0.3
				c0.5,0,0.9-0.1,1.3-0.3l19.1-9.5c1-0.5,1.7-1.5,1.7-2.7v-27.9C745.6,675.1,744.2,673.7,742.6,673.7L742.6,673.7z"/>
		</g>
	</g>
	<g>
		<path class="st10" d="M723.5,687.9c-0.1,0-0.3,0-0.4-0.1l-56.4-15.1c-0.7-0.2-1.1-0.8-1.1-1.4v-13.5c0-0.8,0.7-1.5,1.5-1.5H779
			c0.8,0,1.5,0.7,1.5,1.5v13.5c0,0.7-0.5,1.3-1.1,1.4l-55.5,15.1C723.7,687.9,723.6,687.9,723.5,687.9z"/>
		<g>
			<path d="M779,657.8v13.5l-55.5,15.1L667,671.2v-13.5H779 M779,654.8H667c-1.7,0-3,1.3-3,3v13.5c0,1.4,0.9,2.5,2.2,2.9l56.4,15.1
				c0.3,0.1,0.5,0.1,0.8,0.1c0.3,0,0.5,0,0.8-0.1l55.5-15.1c1.3-0.4,2.2-1.5,2.2-2.9v-13.5C782,656.1,780.6,654.8,779,654.8
				L779,654.8z"/>
		</g>
	</g>
	<g>
		<path class="st5" d="M723.7,680.2c-4.5,0-8.1-3.6-8.1-8.1c0-4.5,3.6-8.1,8.1-8.1c4.5,0,8.1,3.6,8.1,8.1
			C731.9,676.6,728.2,680.2,723.7,680.2z"/>
		<path d="M723.7,665.5c3.7,0,6.6,3,6.6,6.6c0,3.7-3,6.6-6.6,6.6c-3.7,0-6.6-3-6.6-6.6C717.1,668.4,720.1,665.5,723.7,665.5
			 M723.7,662.5c-5.3,0-9.6,4.3-9.6,9.6c0,5.3,4.3,9.6,9.6,9.6c5.3,0,9.6-4.3,9.6-9.6C733.4,666.8,729,662.5,723.7,662.5
			L723.7,662.5z"/>
	</g>
	<g>
		<polygon class="st11" points="672.2,739.7 676.5,776.1 709.2,776.1 709.2,739.7 		"/>
	</g>
	<g>
		<polygon class="st11" points="773.8,739.7 769.5,776.1 736.8,776.1 736.8,739.7 		"/>
	</g>
	<path class="st12" d="M743.7,680.6l0.5,0.1l34.7-9.5v-13.5h-38.2C747.4,657.8,758.2,671.7,743.7,680.6z"/>
	<g>
		<path class="st8" d="M667,649c-0.3,0-0.7-0.1-0.9-0.3c-0.4-0.3-0.6-0.7-0.6-1.2v-4.9l-1.7-11.6c-0.1-0.8,0.4-1.5,1.1-1.7
			l98.8-23.8c0.1,0,0.2,0,0.4,0c0.3,0,0.7,0.1,0.9,0.3c0.4,0.3,0.6,0.7,0.6,1.2v17.2c0,0.7-0.5,1.3-1.1,1.5l-97.1,23.4
			C667.3,648.9,667.2,649,667,649z"/>
		<path d="M764.1,606.9v17.2L667,647.5v-5.1l-1.7-11.7L764.1,606.9 M764.1,603.9c-0.2,0-0.5,0-0.7,0.1l-98.8,23.8
			c-1.5,0.4-2.5,1.8-2.3,3.3l1.7,11.5v4.8c0,0.9,0.4,1.8,1.1,2.4c0.5,0.4,1.2,0.6,1.9,0.6c0.2,0,0.5,0,0.7-0.1l97.1-23.4
			c1.3-0.3,2.3-1.5,2.3-2.9v-17.2c0-0.9-0.4-1.8-1.1-2.4C765.4,604.1,764.8,603.9,764.1,603.9L764.1,603.9z"/>
	</g>
	<g>
		<path class="st8" d="M781,629.9c-0.1,0-0.3,0-0.4-0.1l-119-31.7c-0.7-0.2-1.1-0.8-1.1-1.4v-17.2c0-0.5,0.2-0.9,0.6-1.2
			c0.3-0.2,0.6-0.3,0.9-0.3c0.1,0,0.3,0,0.4,0.1l121.4,32.4c0.7,0.2,1.2,0.9,1.1,1.7l-2.4,16.5c-0.1,0.4-0.3,0.8-0.7,1
			C781.6,629.8,781.3,629.9,781,629.9z"/>
		<path d="M662,579.5l121.4,32.4l-2.4,16.5l-119-31.7V579.5 M662,576.5c-0.7,0-1.3,0.2-1.8,0.6c-0.7,0.6-1.2,1.4-1.2,2.4v17.2
			c0,1.4,0.9,2.5,2.2,2.9l119,31.7c0.3,0.1,0.5,0.1,0.8,0.1c0.6,0,1.2-0.2,1.7-0.5c0.7-0.5,1.2-1.2,1.3-2.1l2.4-16.5
			c0.2-1.5-0.7-2.9-2.2-3.3l-121.4-32.4C662.5,576.5,662.3,576.5,662,576.5L662,576.5z"/>
	</g>
	<g>
		<path class="st13" d="M636.3,599.1c-0.8,0-1.5-0.7-1.5-1.5v-10.4c0-11.3,9.2-20.4,20.4-20.4h27.4c11.3,0,20.4,9.2,20.4,20.4v10.4
			c0,0.8-0.7,1.5-1.5,1.5H636.3z"/>
		<g>
			<path d="M682.7,568.3c10.4,0,18.9,8.5,18.9,18.9v10.4h-65.3v-10.4c0-10.4,8.5-18.9,18.9-18.9H682.7 M682.7,565.3h-27.4
				c-12.1,0-21.9,9.8-21.9,21.9v10.4c0,1.7,1.3,3,3,3h65.3c1.7,0,3-1.3,3-3v-10.4C704.6,575.2,694.8,565.3,682.7,565.3L682.7,565.3z
				"/>
		</g>
	</g>
	<g>
		<path class="st13" d="M636.3,599.1c-0.8,0-1.5-0.7-1.5-1.5v-10.4c0-11.3,9.2-20.4,20.4-20.4h27.4c11.3,0,20.4,9.2,20.4,20.4v10.4
			c0,0.8-0.7,1.5-1.5,1.5H636.3z"/>
		<g>
			<path d="M682.7,568.3c10.4,0,18.9,8.5,18.9,18.9v10.4h-65.3v-10.4c0-10.4,8.5-18.9,18.9-18.9H682.7 M682.7,565.3h-27.4
				c-12.1,0-21.9,9.8-21.9,21.9v10.4c0,1.7,1.3,3,3,3h65.3c1.7,0,3-1.3,3-3v-10.4C704.6,575.2,694.8,565.3,682.7,565.3L682.7,565.3z
				"/>
		</g>
	</g>
	<g>
		<path class="st14" d="M656.7,590.2c10.8-3.8,14.3-12.1,12.1-21.9h-13.6c-10.4,0-18.9,8.5-18.9,18.9v2.5
			C641.5,591.7,648.7,593,656.7,590.2z"/>
	</g>
	<g>
		<path class="st13" d="M744.2,599.1c-0.8,0-1.5-0.7-1.5-1.5v-10.4c0-11.3,9.2-20.4,20.4-20.4h27.4c11.3,0,20.4,9.2,20.4,20.4v10.4
			c0,0.8-0.7,1.5-1.5,1.5H744.2z"/>
		<g>
			<path d="M790.5,568.3c10.4,0,18.9,8.5,18.9,18.9v10.4h-65.3v-10.4c0-10.4,8.5-18.9,18.9-18.9H790.5 M790.5,565.3h-27.4
				c-12.1,0-21.9,9.8-21.9,21.9v10.4c0,1.7,1.3,3,3,3h65.3c1.7,0,3-1.3,3-3v-10.4C812.5,575.2,802.6,565.3,790.5,565.3L790.5,565.3z
				"/>
		</g>
	</g>
	<path class="st15" d="M809.5,587.2c0-0.8-0.1-1.6-0.2-2.4c-6.7,4.4-16.1,6.8-27.1,5.7c-12.3-1.2-22.2-11.9-28.1-20
		c-5.9,3.2-9.9,9.4-9.9,16.6v10.4h65.3V587.2z"/>
	<g>
		<path class="st8" d="M716.9,604.6c-0.2,0-0.4,0-0.5-0.1l-40.5-15.4c-0.4-0.1-0.7-0.4-0.8-0.8l-20.6-45.7c-0.2-0.5-0.2-1,0.1-1.4
			c0.3-0.4,0.7-0.7,1.3-0.7c0,0,134.2-0.7,134.2-0.7c0.5,0,1,0.3,1.3,0.7c0.3,0.4,0.3,1,0.1,1.5l-23.2,47.2
			c-0.2,0.4-0.5,0.7-0.9,0.8l-49.9,14.6C717.2,604.5,717.1,604.6,716.9,604.6z"/>
		<g>
			<path d="M790,541.2l-23.3,47.2l-49.9,14.6l-40.5-15.4l-20.6-45.7L790,541.2 M790,538.2C790,538.2,790,538.2,790,538.2l-134.3,0.7
				c-1,0-2,0.5-2.5,1.4s-0.6,1.9-0.2,2.9l20.6,45.7c0.3,0.7,0.9,1.3,1.7,1.6l40.5,15.4c0.3,0.1,0.7,0.2,1.1,0.2c0.3,0,0.6,0,0.8-0.1
				l49.9-14.6c0.8-0.2,1.5-0.8,1.8-1.6l23.3-47.2c0.5-0.9,0.4-2-0.1-2.9C792,538.8,791.1,538.2,790,538.2L790,538.2z"/>
		</g>
	</g>
	<g>
		<path class="st8" d="M721.6,592.1c-0.1,0-0.2,0-0.3,0l-39.8-8.8c-0.4-0.1-0.8-0.4-1-0.8l-24.8-47.5c-0.2-0.5-0.2-1,0-1.5
			c0.3-0.4,0.8-0.7,1.3-0.7c0,0,134.2-0.7,134.2-0.7c0.5,0,1,0.3,1.3,0.7c0.3,0.5,0.3,1,0,1.5l-25.4,44.2c-0.2,0.3-0.5,0.6-0.9,0.7
			L722,592.1C721.8,592.1,721.7,592.1,721.6,592.1z"/>
		<g>
			<path d="M791.2,533.6l-25.4,44.2l-44.3,12.8l-39.8-8.8L657,534.4L791.2,533.6 M791.2,530.6C791.2,530.6,791.2,530.6,791.2,530.6
				L657,531.4c-1,0-2,0.6-2.6,1.5c-0.5,0.9-0.6,2-0.1,2.9l24.8,47.5c0.4,0.8,1.1,1.3,2,1.5l39.8,8.8c0.2,0,0.4,0.1,0.6,0.1
				c0.3,0,0.6,0,0.8-0.1l44.3-12.8c0.7-0.2,1.4-0.7,1.8-1.4l25.4-44.2c0.5-0.9,0.5-2.1,0-3C793.3,531.2,792.3,530.6,791.2,530.6
				L791.2,530.6z"/>
		</g>
	</g>
	<g>
		<path class="st8" d="M709.2,746c-0.1,0-0.2,0-0.3,0l-37.2-6.5c-0.7-0.1-1.2-0.6-1.2-1.3l-1.2-10.5c-0.1-0.5,0.1-0.9,0.5-1.3
			c0.3-0.3,0.7-0.4,1-0.4c0.1,0,0.2,0,0.3,0l38.4,6.7c0.7,0.1,1.2,0.7,1.2,1.5c0,0,0,0.1,0,0.1l0,10.2c0,0.4-0.2,0.9-0.5,1.1
			C709.9,745.9,709.6,746,709.2,746z"/>
		<path d="M670.8,727.5l38.4,6.7c0,0,0,0,0,0v10.3L672,738L670.8,727.5 M670.8,724.5c-0.8,0-1.5,0.3-2.1,0.8c-0.7,0.7-1,1.6-0.9,2.5
			l1.2,10.5c0.2,1.3,1.2,2.4,2.5,2.6l37.2,6.5c0.2,0,0.3,0,0.5,0c0.7,0,1.4-0.2,1.9-0.7c0.7-0.6,1.1-1.4,1.1-2.3v-10.2
			c0,0,0-0.1,0-0.1c0-1.5-1-2.7-2.5-3l-38.4-6.7C671.1,724.5,671,724.5,670.8,724.5L670.8,724.5z"/>
	</g>
	<g>
		<path class="st8" d="M674.3,759c-0.3,0-0.6-0.1-0.8-0.3c-0.4-0.2-0.6-0.6-0.6-1.1l-1.2-10.2c-0.1-0.7,0.4-1.4,1.1-1.6l36.1-9.5
			c0.1,0,0.3,0,0.4,0c0.3,0,0.7,0.1,0.9,0.3c0.4,0.3,0.6,0.7,0.6,1.2v10.5c0,0.7-0.5,1.3-1.1,1.5l-34.9,9.2
			C674.6,759,674.4,759,674.3,759z"/>
		<path d="M709.2,737.8v10.5l-34.9,9.2l-1.2-10.2L709.2,737.8 M709.2,734.8c-0.3,0-0.5,0-0.8,0.1l-36.1,9.5
			c-1.4,0.4-2.4,1.8-2.2,3.2l1.2,10.2c0.1,0.9,0.6,1.6,1.3,2.1c0.5,0.3,1.1,0.5,1.7,0.5c0.3,0,0.5,0,0.8-0.1l34.9-9.2
			c1.3-0.3,2.2-1.5,2.2-2.9v-10.5c0-0.9-0.4-1.8-1.2-2.4C710.5,735,709.9,734.8,709.2,734.8L709.2,734.8z"/>
	</g>
	<g>
		<path class="st8" d="M736.7,746c-0.4,0-0.7-0.1-1-0.4c-0.3-0.3-0.5-0.7-0.5-1.1c0,0,0-10.3,0-10.3c0-0.7,0.5-1.4,1.2-1.5l38.4-6.7
			c0.1,0,0.2,0,0.3,0c0.4,0,0.8,0.1,1,0.4c0.3,0.3,0.5,0.8,0.5,1.3l-1.2,10.5c-0.1,0.7-0.6,1.2-1.2,1.3L737,746
			C736.9,746,736.8,746,736.7,746z"/>
		<path d="M775.1,727.5l-1.2,10.5l-37.2,6.5v-10.3c0,0,0,0,0,0L775.1,727.5 M775.1,724.5c-0.2,0-0.3,0-0.5,0l-38.4,6.7
			c-1.4,0.3-2.5,1.5-2.5,3c0,0,0,0.1,0,0.1v10.2c0,0.9,0.4,1.7,1.1,2.3c0.5,0.5,1.2,0.7,1.9,0.7c0.2,0,0.3,0,0.5,0l37.2-6.5
			c1.3-0.2,2.3-1.3,2.5-2.6l1.2-10.5c0.1-0.9-0.2-1.9-0.9-2.5C776.6,724.8,775.9,724.5,775.1,724.5L775.1,724.5z"/>
	</g>
	<g>
		<path class="st8" d="M771.6,759c-0.1,0-0.3,0-0.4,0l-34.9-9.2c-0.7-0.2-1.1-0.8-1.1-1.5v-10.5c0-0.5,0.2-0.9,0.6-1.2
			c0.3-0.2,0.6-0.3,0.9-0.3c0.1,0,0.3,0,0.4,0l36.1,9.5c0.7,0.2,1.2,0.9,1.1,1.6l-1.2,10.2c-0.1,0.4-0.3,0.8-0.6,1.1
			C772.2,758.9,771.9,759,771.6,759z"/>
		<path d="M736.7,737.8l36.1,9.5l-1.2,10.2l-34.9-9.2V737.8 M736.7,734.8c-0.7,0-1.3,0.2-1.8,0.6c-0.7,0.6-1.2,1.4-1.2,2.4v10.5
			c0,1.4,0.9,2.6,2.2,2.9l34.9,9.2c0.3,0.1,0.5,0.1,0.8,0.1c0.6,0,1.2-0.2,1.7-0.5c0.7-0.5,1.2-1.3,1.3-2.1l1.2-10.2
			c0.2-1.5-0.8-2.9-2.2-3.2l-36.1-9.5C737.2,734.8,737,734.8,736.7,734.8L736.7,734.8z"/>
	</g>
	<g>
		<path class="st10" d="M670.6,777.6c-0.8,0-1.5-0.7-1.5-1.5c0-10.6,6.9-19.3,15.5-19.3h16.7c8.5,0,15.4,8.7,15.4,19.3
			c0,0.8-0.7,1.5-1.5,1.5H670.6z"/>
		<g>
			<path d="M701.2,758.3c7.7,0,13.9,8,13.9,17.8h-44.6c0-9.8,6.2-17.8,14-17.8H701.2 M701.2,755.3h-16.7c-9.3,0-17,9.3-17,20.8
				c0,1.7,1.3,3,3,3h44.6c1.7,0,3-1.3,3-3C718.2,764.6,710.6,755.3,701.2,755.3L701.2,755.3z"/>
		</g>
	</g>
	<path class="st12" d="M715.2,776.1c0-9.8-6.2-17.8-13.9-17.8h-4c5.2,1.2,7.8,4,8.8,7c1.1,3.3,0.9,7.3-1.2,10.8H715.2z"/>
	<g>
		<path class="st10" d="M730.8,777.6c-0.8,0-1.5-0.7-1.5-1.5c0-10.6,6.9-19.3,15.4-19.3h16.7c8.5,0,15.4,8.7,15.4,19.3
			c0,0.8-0.7,1.5-1.5,1.5H730.8z"/>
		<g>
			<path d="M761.4,758.3c7.7,0,13.9,8,13.9,17.8h-44.6c0-9.8,6.2-17.8,13.9-17.8H761.4 M761.4,755.3h-16.7
				c-9.3,0-16.9,9.3-16.9,20.8c0,1.7,1.3,3,3,3h44.6c1.7,0,3-1.3,3-3C778.4,764.6,770.8,755.3,761.4,755.3L761.4,755.3z"/>
		</g>
	</g>
	<path class="st12" d="M775.4,776.1c0-9.8-6.2-17.8-13.9-17.8h-4c5.2,1.2,7.8,4,8.8,7c1.1,3.3,0.9,7.3-1.2,10.8H775.4z"/>
</g>
<g>
	<g>
		<path class="st8" d="M600.2,687c-14.2,0-27.1-8.3-32.9-21.3c-8.1-18.1,0-39.5,18.1-47.6c4.7-2.1,9.7-3.2,14.8-3.2
			c14.2,0,27.1,8.3,32.9,21.3c8.1,18.1,0,39.5-18.1,47.6C610.3,685.9,605.3,687,600.2,687z"/>
		<g>
			<path d="M600.2,616.4c13.2,0,25.8,7.6,31.5,20.4c7.8,17.4,0.1,37.8-17.3,45.6c-4.6,2.1-9.4,3-14.1,3c-13.2,0-25.8-7.6-31.5-20.4
				c-7.8-17.4-0.1-37.8,17.3-45.6C590.6,617.4,595.4,616.4,600.2,616.4 M600.2,613.4v3V613.4c-5.3,0-10.5,1.1-15.4,3.3
				c-18.9,8.5-27.3,30.7-18.8,49.6c6,13.5,19.5,22.2,34.2,22.2c5.3,0,10.5-1.1,15.4-3.3c9.1-4.1,16.1-11.5,19.7-20.9
				c3.6-9.4,3.3-19.6-0.9-28.7C628.4,622.1,614.9,613.4,600.2,613.4L600.2,613.4z"/>
		</g>
	</g>
	<path class="st16" d="M631.7,636.8c0-0.1-0.1-0.1-0.1-0.2c-3.2,20-20.6,29.1-35.1,27.4c-15.5-1.8-24.7-14.2-28.1-26.4
		c-3.6,8.5-3.8,18.4,0.3,27.5c7.8,17.4,28.3,25.2,45.6,17.3C631.7,674.6,639.5,654.2,631.7,636.8z"/>
	<g>
		<path class="st8" d="M845.4,687c-5.1,0-10.1-1.1-14.7-3.2c-18.1-8.1-26.2-29.5-18.1-47.6c5.8-12.9,18.7-21.3,32.9-21.3
			c5.1,0,10.1,1.1,14.8,3.2c8.8,3.9,15.5,11.1,18.9,20.1c3.4,9,3.1,18.8-0.8,27.6C872.5,678.6,859.6,687,845.4,687
			C845.4,687,845.4,687,845.4,687z"/>
		<g>
			<path d="M845.5,616.4c4.7,0,9.5,1,14.1,3c17.4,7.8,25.2,28.3,17.3,45.6c-5.8,12.8-18.3,20.4-31.5,20.4c-4.7,0-9.5-1-14.1-3
				c-17.4-7.8-25.2-28.3-17.3-45.6C819.7,624,832.3,616.4,845.5,616.4 M845.5,613.4c-14.8,0-28.2,8.7-34.2,22.1
				c-4.1,9.1-4.4,19.3-0.9,28.7c3.6,9.4,10.6,16.8,19.7,20.9c4.9,2.2,10.1,3.3,15.4,3.3c14.8,0,28.2-8.7,34.2-22.2
				c8.5-18.9,0-41.1-18.8-49.6C855.9,614.5,850.8,613.4,845.5,613.4L845.5,613.4z"/>
		</g>
	</g>
	<path class="st16" d="M813.9,636.8c0-0.1,0.1-0.1,0.1-0.2c3.2,20,20.6,29.1,35.1,27.4c15.5-1.8,24.7-14.2,28.1-26.4
		c3.6,8.5,3.8,18.4-0.3,27.5c-7.8,17.4-28.3,25.2-45.6,17.3C813.9,674.6,806.1,654.2,813.9,636.8z"/>
</g>
<g>
	<g>
		<path class="st0" d="M738.3,583.4c-40.2,0-81.3-21.7-112.9-59.5c-32.9-39.4-51.1-90.3-51.1-143.3c0-22.1,5.6-43.2,16.6-62.7
			l0.1-0.1c7.4-11.1,29.3-20.5,47.9-20.5c3.8,0,7.5,0.4,10.8,1.1c9.1,2,37.9,3.3,73.5,3.3c35.6,0,64.5-1.3,73.5-3.3
			c3.4-0.7,7-1.1,10.8-1.1c18.6,0,40.6,9.4,48,20.6l0.1,0.1c11,19.5,16.5,40.6,16.5,62.7c0,55.5-12.7,106.4-35.8,143.2
			C811.7,562.7,777.9,583.4,738.3,583.4z"/>
		<path d="M807.5,298.7c19,0,39.9,9.6,46.7,19.9c10.4,18.6,16.3,39.6,16.3,61.9c0,111.2-50.9,201.3-132.3,201.3
			c-81.4,0-162.5-90.1-162.5-201.3c0-22.3,5.9-43.4,16.4-62c6.8-10.3,27.7-19.8,46.7-19.8c3.6,0,7.1,0.3,10.5,1.1
			c10,2.2,42,3.3,73.9,3.3s63.8-1.1,73.9-3.3C800.4,299.1,803.9,298.7,807.5,298.7 M807.5,295.7c-3.9,0-7.7,0.4-11.1,1.2
			c-8.8,2-38.2,3.3-73.2,3.3c-35,0-64.4-1.3-73.2-3.3c-3.5-0.8-7.2-1.2-11.1-1.2c-19.3,0-41.4,9.5-49.2,21.1l-0.1,0.1l-0.1,0.1
			c-11.1,19.8-16.8,41.1-16.8,63.5c0,27.2,4.8,54,14.1,79.4c8.9,24,21.4,45.9,37.3,64.9c31.9,38.2,73.5,60,114.1,60
			c20.4,0,39.4-5.5,56.6-16.3c16.3-10.3,30.7-25.1,42.6-44.1c23.3-37,36.1-88.1,36.1-144c0-22.3-5.6-43.6-16.7-63.4l-0.1-0.1
			l-0.1-0.1C849,305.3,827,295.7,807.5,295.7L807.5,295.7z"/>
	</g>
	<g>
		<path class="st1" d="M854.3,318.6c-8.1-12.2-36.1-23.5-57.2-18.8c-0.5,0.1-1.1,0.3-1.6,0.4c10.8,3.1,67.8,17,67.8,80.6
			c0,126.7-64.8,201.1-124.9,201.1c81.4,0,132.3-90.1,132.3-201.3C870.6,358.2,864.7,337.2,854.3,318.6z"/>
	</g>
	<g>
		<path class="st17" d="M515.1,197.3c-0.5,0-0.9-0.2-1.2-0.6c-0.4-0.5-0.4-1.2-0.1-1.7c15.5-25.2,16.8-45.3,18.1-64.8
			c1.1-16.5,2.2-33.5,12-52.9c5.6-11.1,15.2-20.1,27.6-26.1c10.5-5.1,22.9-7.9,34.7-7.9c18.7,0,31.3,6.7,31.3,16.6
			c0.1,1.2,3.5,11.2,5.9,17.9c0.1,0.3,0.1,0.7,0,1c-0.1,0.2-9,22.9-29.1,48.7c-18.6,23.8-50.8,55.2-98.8,69.7
			C515.4,197.2,515.2,197.3,515.1,197.3z"/>
		<path d="M606.2,44.8c16.6,0,29.8,5.7,29.8,15.1c0,1.4,6,18.4,6,18.4s-34.7,89.6-126.9,117.5c29-47,8.9-76.2,30.1-117.8
			C557.2,54.4,584.6,44.8,606.2,44.8 M606.2,41.8c-12.1,0-24.7,2.9-35.4,8c-12.7,6.1-22.5,15.4-28.2,26.7
			c-10,19.6-11.1,36.8-12.2,53.5c-1.2,19.3-2.5,39.3-17.8,64.2c-0.7,1.1-0.6,2.4,0.2,3.4c0.6,0.8,1.5,1.2,2.4,1.2
			c0.3,0,0.6,0,0.9-0.1c21.4-6.5,41.5-16.8,59.7-30.6c14.6-11.1,28-24.4,39.9-39.6c20.2-25.9,28.9-48.1,29.3-49
			c0.3-0.7,0.3-1.4,0-2.1c-2.6-7.5-5.5-16-5.8-17.6C638.8,49,625.7,41.8,606.2,41.8L606.2,41.8z"/>
	</g>
	<g>
		<path class="st18" d="M627,209.3c-29.1,0-54.2-8.8-54.4-8.8c-0.5-0.2-0.9-0.6-1-1.2c-0.1-0.5,0.1-1.1,0.6-1.4l116.6-89.9
			c0.3-0.2,0.6-0.3,0.9-0.3c0.4,0,0.8,0.2,1.1,0.5c0.8,0.9,19.9,21.2,18.4,46c-0.8,13.4-7.6,25.5-20.1,35.8
			C673.4,202.7,652.6,209.3,627,209.3z"/>
		<g>
			<path d="M689.7,109.1c0,0,41.6,43.9-1.6,79.6c-17.8,14.7-40.6,19.1-61.1,19.1c-29.2,0-53.9-8.8-53.9-8.8L689.7,109.1
				 M689.7,106.1c-0.6,0-1.3,0.2-1.8,0.6l-116.6,89.9c-0.9,0.7-1.3,1.8-1.1,2.8c0.2,1.1,0.9,2,2,2.4c1,0.4,25.6,8.9,54.9,8.9
				c25.9,0,47.1-6.7,63-19.8c12.9-10.6,19.8-23,20.6-36.9c1.5-25.4-18-46.2-18.8-47.1C691.3,106.4,690.5,106.1,689.7,106.1
				L689.7,106.1z"/>
		</g>
	</g>
	<g>
		<path class="st17" d="M509.2,230.1c-0.6,0-1.2-0.4-1.4-1c-0.2-0.6,0-1.3,0.5-1.7c19-13.8,56.1-61.1,59.5-102.6
			c1.4-16.8,8.8-34.9,19.9-48.4c12.6-15.3,28.7-23.7,45.4-23.7c11.4,0,23,3.8,34.6,11.3c14.7,9.6,25.1,26.4,27.8,44.9
			c3,20.4-3.6,41.3-18.4,58.7C644.6,205.9,581.9,229.2,509.2,230.1C509.2,230.1,509.2,230.1,509.2,230.1z"/>
		<path d="M633.2,54.2c10.5,0,21.8,3.3,33.7,11.1c27.4,17.9,41.5,63.2,9,101.4c-32.5,38.2-95.5,61-166.8,61.9
			c18.6-13.5,56.7-61.5,60.1-103.7C572,92.4,597.6,54.2,633.2,54.2 M633.2,51.2C633.2,51.2,633.2,51.2,633.2,51.2
			c-17.2,0-33.8,8.6-46.6,24.3c-11.3,13.7-18.9,32.1-20.3,49.2c-1,12.7-6,33.6-23.9,61.2c-12.6,19.4-26.6,34.2-35,40.3
			c-1.1,0.8-1.5,2.1-1.1,3.4c0.4,1.2,1.6,2.1,2.8,2.1c0,0,0,0,0,0c73.1-0.9,136.3-24.4,169-63c15.1-17.8,21.8-39.1,18.8-59.9
			c-2.8-19-13.4-36.1-28.4-46C656.8,55.1,644.9,51.2,633.2,51.2L633.2,51.2z"/>
	</g>
	<path class="st19" d="M676,166.7c32.5-38.2,18.4-83.5-9-101.4c-16.3-10.6-31.6-12.9-45-9.8c26.7,15.4,12.3,72.1-15.1,120.7
		c-27.5,48.8-97.7,52.4-97.7,52.4C580.5,227.8,643.5,204.9,676,166.7z"/>
	<g>
		<path class="st8" d="M705.5,272.7c-12.3,0-23.6-6.1-30.3-16.4L610,156.5c-5.3-8.1-7.1-17.8-5.1-27.2c2-9.5,7.5-17.6,15.6-22.9
			c5.9-3.9,12.7-5.9,19.7-5.9c12.3,0,23.6,6.1,30.3,16.4l65.1,99.8c10.9,16.7,6.2,39.2-10.5,50.1
			C719.3,270.6,712.5,272.7,705.5,272.7C705.5,272.7,705.5,272.7,705.5,272.7z"/>
		<g>
			<path d="M640.3,102c11.3,0,22.4,5.5,29.1,15.7l65.1,99.8c10.5,16,6,37.5-10.1,48c-5.8,3.8-12.4,5.6-18.9,5.6
				c-11.3,0-22.4-5.5-29.1-15.7l-65.1-99.8c-10.5-16-6-37.5,10.1-48C627.2,103.8,633.8,102,640.3,102 M640.3,99
				c-7.3,0-14.4,2.1-20.6,6.1c-8.4,5.5-14.2,14-16.3,23.8c-2.1,9.8-0.2,19.9,5.3,28.3l65.1,99.8c7,10.7,18.8,17.1,31.6,17.1
				c7.3,0,14.4-2.1,20.6-6.1c17.4-11.4,22.3-34.8,11-52.1l-65.1-99.8C664.9,105.4,653.1,99,640.3,99L640.3,99z"/>
		</g>
	</g>
	<g>
		<path class="st16" d="M621.4,107.6c-3.8,2.5-7,5.7-9.5,9.2c13.5-2.6,27.8,2.9,35.7,15.1l65.1,99.8c8,12.2,7.2,27.5-0.6,38.8
			c4.2-0.8,8.4-2.5,12.3-5c16-10.5,20.6-32,10.1-48l-65.1-99.8C658.9,101.7,637.4,97.2,621.4,107.6z"/>
	</g>
	<g>
		<path class="st17" d="M607.1,451.3c-1.4,0-4.4-1.2-9.5-3.3c-4.5-1.9-10.6-4.4-13.1-4.6c-0.1,0.4-0.4,0.8-0.9,1
			c-0.2,0.1-0.4,0.1-0.6,0.1c-0.5,0-1-0.2-1.2-0.7c-19-29.5-29-63.9-29-99.5c0-98.4,76.4-178.4,170.4-178.4
			c72.4,0,137.1,48.1,160.9,119.6c0.1,0.4,0.1,0.9-0.1,1.2c7.9,25.1,9,48.6,3.2,70c-4.6,17.2-12.4,27.7-15.5,31.4
			c-0.3,0.3-0.7,0.5-1.2,0.5c-0.2,0-0.4,0-0.5-0.1c-0.6-0.2-1-0.8-1-1.4c0-2.2,0.1-4.5,0.1-6.8c0-0.1,0-0.3,0.1-0.4
			c4-14.9,1.2-28.8-8.4-41.2c-19.9-25.9-63.6-38.1-72-38.1c-8.9,0-54.4,22-96.8,51.3c-31,21.4-83,62.6-83,97.4
			C609,450.5,608.4,451.3,607.1,451.3z"/>
		<g>
			<path d="M723.2,167.5c73.8,0,136.5,49.6,159.5,118.6c-0.2,0-0.4-0.1-0.6-0.1c19.3,59.7-5.8,94.3-11.6,101.3
				c0-2.3,0.1-4.5,0.1-6.8c15.3-57.2-70.7-81.2-81.8-81.2c-18.6,0-181.2,87.4-181.2,150.2c0,0.2-0.1,0.2-0.4,0.2
				c-2.7,0-18.4-7.9-22.9-7.9c-0.9,0-1.3,0.3-1.2,1c0,0,0,0.1,0,0.1c-18.1-28.2-28.7-62.2-28.7-98.7
				C554.3,246.7,629.9,167.5,723.2,167.5 M723.2,164.5c-23.2,0-45.7,4.8-66.9,14.2c-20.5,9.1-38.8,22-54.6,38.6
				c-32.4,34-50.3,79.1-50.3,127.1c0,35.9,10.1,70.6,29.2,100.3c0.6,0.9,1.5,1.4,2.5,1.4c0.4,0,0.8-0.1,1.2-0.2
				c0.4-0.2,0.8-0.4,1.1-0.8c2.7,0.6,8,2.8,11.7,4.3c6,2.5,8.5,3.4,10.1,3.4c2.2,0,3.4-1.7,3.4-3.2c0-25.4,29.2-59.5,82.3-96.2
				c45.1-31.1,88.3-51,95.9-51c6,0,50.3,10.8,70.9,37.5c9.2,12,12,25.4,8.1,39.9c-0.1,0.3-0.1,0.5-0.1,0.8c0,2,0,4.1-0.1,6.7
				c0,1.3,0.8,2.4,1.9,2.9c0.3,0.1,0.7,0.2,1,0.2c0.9,0,1.7-0.4,2.3-1.1c3.2-3.8,11.1-14.6,15.8-32c5.8-21.5,4.8-45.1-3.1-70.3
				c0.2-0.6,0.1-1.2,0-1.8c-11.6-34.9-33-64.9-61.7-86.6C794.4,176.3,759.6,164.5,723.2,164.5L723.2,164.5z"/>
		</g>
	</g>
	<path class="st19" d="M778.2,322c25.2-7.2,27.1-18.1,43.1-18.1c11.2,0,25.3,2.3,32.9,14.8c11.1,18.2,16.3,39.6,16.3,61.9
		c0,2.3,0,4.5-0.1,6.8c5.8-7,30.9-41.6,11.6-101.3c0.2,0,0.4,0.1,0.6,0.1c-23-69.1-85.7-118.6-159.5-118.6
		c-20.7,0-40.5,3.9-58.9,11.1C705.3,182.2,802.8,220.9,778.2,322z"/>
	<g>
		<path class="st8" d="M607.1,451.3c-1.4,0-4.4-1.2-9.5-3.3c-1.5-0.6-3-1.2-4.5-1.8c-0.4-0.1-0.7-0.4-0.8-0.8
			c-9.4-22.5-14.2-46.6-14.2-71.4c0-98.4,76.4-178.4,170.4-178.4c42,0,82.4,16.2,113.7,45.5c0.1,0.1,0.2,0.2,0.2,0.3
			c9.3,13.7,16.6,28.6,21.8,44.2c0.1,0.4,0.1,0.9-0.1,1.2c11,34.9,6.7,61.1,1,77c-0.2,0.5-0.6,0.9-1.1,1c-0.1,0-0.2,0-0.3,0
			c-0.4,0-0.8-0.2-1.1-0.5c-3.8-4.2-8.5-8.2-13.9-12c-0.2-0.2-0.4-0.4-0.5-0.7c-13.6-35.6-71.1-50.9-79.3-50.9
			c-3.4,0-14.7,3.8-35.5,14.5c-20.1,10.3-41.8,23.4-61.3,36.8c-31,21.4-83,62.6-83,97.4C609,450.5,608.4,451.3,607.1,451.3z"/>
		<g>
			<path d="M748.4,197.2c43.3,0,82.7,17.1,112.6,45.1c9,13.4,16.4,28.1,21.6,43.8c-0.2,0-0.4-0.1-0.6-0.1
				c11.1,34.2,7.6,60.1,1.5,77.4c-4.2-4.5-9-8.6-14.1-12.2c-13.8-36.2-71.7-51.8-80.7-51.8c-18.6,0-181.2,87.4-181.2,150.2
				c0,0.2-0.1,0.2-0.4,0.2c-1.6,0-7.8-2.8-13.5-5c-9-21.7-14.1-45.6-14.1-70.8C579.6,276.4,655.2,197.2,748.4,197.2 M748.4,194.2
				c-23.2,0-45.7,4.8-66.9,14.2c-20.5,9.1-38.8,22-54.6,38.6c-32.4,34-50.3,79.1-50.3,127.1c0,25,4.8,49.2,14.3,71.9
				c0.3,0.7,0.9,1.3,1.7,1.6c1.5,0.6,3,1.2,4.5,1.8c6,2.5,8.5,3.4,10.1,3.4c2.2,0,3.4-1.7,3.4-3.2c0-25.4,29.2-59.5,82.3-96.2
				c45.1-31.1,88.3-51,95.9-51c3.6,0,19.9,3.6,37.2,12c14.7,7.2,33.7,19.5,40.7,37.9c0.2,0.6,0.6,1,1.1,1.4
				c5.3,3.7,9.9,7.7,13.7,11.8c0.6,0.6,1.4,1,2.2,1c0.2,0,0.4,0,0.6-0.1c1-0.2,1.9-0.9,2.2-1.9c5.7-16,10.1-42.4-0.8-77.5
				c0.2-0.6,0.1-1.2,0-1.8c-5.3-15.8-12.6-30.8-22-44.6c-0.1-0.2-0.3-0.4-0.4-0.5C831.5,210.5,790.8,194.2,748.4,194.2L748.4,194.2z
				"/>
		</g>
	</g>
	<path class="st16" d="M882.1,286c0.2,0,0.4,0.1,0.6,0.1c-5.2-15.8-12.6-30.5-21.6-43.8c-29.9-28.1-69.3-45.1-112.6-45.1
		c-1.1,0-2.2,0-3.3,0c30.6,11.4,71.6,38.6,45.1,93.2c1.7,3.6,3.5,6.9,5.2,10c16.1,3.5,52.7,16.4,69,41c11.8-2.4,19.6-7.7,19.6-7.7
		l5.4-2.5C889.6,318.2,887.7,303.2,882.1,286z"/>
	<path class="st1" d="M646.1,417.5c0,0,14.2,13.7,28.8,19.4c-2.8-6.6-9-29.8-6.6-44c9,14.7,27.9,26.5,27.9,26.5
		c-4.7-9.5-3.8-23.6-3.8-23.6c8,13.7,30.3,37.4,66.2,48.7c-9-8.5-12.8-68.6-12.8-68.6c10.4,17,29.3,37.8,55.3,48.2
		c-7.6-8.5-11.4-59.6-11.4-59.6c8.5,20.8,33.6,43,39.7,46.8c-5.7-12.3,7.1-53.9,7.1-53.9c6.1,9,16.6,31.2,11.8,56.3
		c6.6-6.6,26.5-44,26.5-44c9-24.6-30.9-45.4-30.9-45.4l-115.2-44l-94.1,42.6l-35.9,41.6L646.1,417.5z"/>
	<path d="M675.2,420.3c0-7.5,6.1-13.5,13.5-13.5c7.5,0,13.5,6.1,13.5,13.5c0,7.5-6.1,13.5-13.5,13.5
		C681.2,433.9,675.2,427.8,675.2,420.3z"/>
	<path d="M814.3,420.3c0-7.5,6.1-13.5,13.5-13.5c7.5,0,13.5,6.1,13.5,13.5c0,7.5-6.1,13.5-13.5,13.5
		C820.4,433.9,814.3,427.8,814.3,420.3z"/>
	<g>
		<path class="st17" d="M709.8,549.1c-25.6,0-87.9-3.9-114.3-40.1c-13.7-18.7-15.7-43.4-6.2-73.3c0.2-0.6,0.7-1,1.3-1
			c2.2-0.2,4.4-0.2,6.5-0.2c32.9,0,44.1,18,44.6,18.8c0.4,0.8,38.5,73.2,101.4,90.5c0.7,0.2,1.1,0.8,1.1,1.5c0,0.7-0.5,1.3-1.2,1.4
			C734.8,548.2,722.3,549.1,709.8,549.1z"/>
		<path d="M597.2,435.9c32.5,0,43.3,18.1,43.3,18.1s38,73.5,102.3,91.2c-7,1.3-18.8,2.4-33,2.4c-56.3,0-149.1-17.6-119-111.4
			C593,436,595.1,435.9,597.2,435.9 M597.2,432.9v3V432.9c-2.2,0-4.4,0.1-6.6,0.2c-1.2,0.1-2.3,0.9-2.7,2.1
			c-9.7,30.4-7.6,55.5,6.4,74.6c10.9,14.9,28.7,25.9,53,32.8c23,6.5,46.7,7.9,62.5,7.9c12.6,0,25.1-0.9,33.5-2.4
			c1.4-0.3,2.4-1.4,2.5-2.8c0.1-1.4-0.9-2.7-2.2-3c-32.4-8.9-58-32.8-73.7-51.2c-17.2-20.1-26.7-38.3-26.8-38.5
			c0-0.1-0.1-0.1-0.1-0.2C642.5,451.7,630.9,432.9,597.2,432.9L597.2,432.9z"/>
	</g>
	<path class="st19" d="M740.6,545.6c-134.1-13.3-134.7-84.2-130.9-108.6c-5.4-0.9-11.7-1.3-18.9-0.8
		C553.9,551.3,701.8,551.6,740.6,545.6z"/>
	<g>
		<path class="st17" d="M820.1,535.4c-1.9,0-3.6-0.1-5.1-0.3c-0.7-0.1-1.2-0.6-1.3-1.2s0.2-1.3,0.8-1.6
			c41-20.5,63.5-102.3,63.8-103.2c0.1-0.5,0.5-0.9,1-1c0.2,0,0.3-0.1,0.5-0.1c0.3,0,0.7,0.1,0.9,0.3c0.3,0.3,31.3,25.4,19.1,54.8
			c-7.6,18.2-21.1,32.7-39,41.8C842,534.6,824.9,535.4,820.1,535.4C820.1,535.4,820.1,535.4,820.1,535.4z"/>
		<path d="M879.8,429.5c0,0,30.6,24.4,18.7,53c-17.1,41.1-58.8,51.4-78.3,51.4c-1.8,0-3.5-0.1-4.9-0.3
			C857.3,512.6,879.8,429.5,879.8,429.5 M879.8,426.5c-0.3,0-0.6,0-0.9,0.1c-1,0.3-1.7,1.1-2,2.1c-0.2,0.8-22.6,82-63,102.2
			c-1.2,0.6-1.8,1.9-1.6,3.2c0.2,1.3,1.3,2.3,2.6,2.5c1.6,0.2,3.3,0.3,5.3,0.3c4.9,0,22.3-0.8,41.4-10.6
			c18.2-9.4,31.9-24.1,39.7-42.6c5.3-12.7,3.5-26.5-5.1-40c-6.4-10-14.1-16.2-14.5-16.5C881.1,426.7,880.4,426.5,879.8,426.5
			L879.8,426.5z"/>
	</g>
	<path class="st19" d="M898.4,482.5c8.3-19.8-3.9-37.6-12.1-46.7c10,69.1-71.1,97.8-71.1,97.8C831.6,535.6,879.6,527.5,898.4,482.5z
		"/>
	<g>
		<path class="st17" d="M701,489.4c-26.7,0-79.1-14.7-106.9-46.4c-14.2-16.2-20.1-34.4-17.4-54.2c7.1-54.1,36.2-62.2,53-62.2
			c7.6,0,12.9,1.6,13.1,1.7c0.7,0.2,1.1,0.9,1,1.7c0,0.3-4.2,28.7,1.6,62.1c5.4,30.6,20.5,71.9,62.2,94.3c0.6,0.3,0.9,1,0.8,1.6
			c-0.1,0.6-0.7,1.1-1.3,1.2C705.2,489.3,703.2,489.4,701,489.4z"/>
		<path d="M629.6,328.1c7.5,0,12.7,1.6,12.7,1.6S625.1,443.7,707,487.7c-1.8,0.2-3.8,0.3-6,0.3c-41.1,0-131.5-32.9-122.8-98.9
			C585.1,336.3,613,328.1,629.6,328.1 M629.6,325.1C629.6,325.1,629.6,325.1,629.6,325.1c-17.2,0-47.2,8.2-54.5,63.5
			c-2.7,20.3,3.3,38.9,17.8,55.4c15.8,18,37.9,29.1,53.6,35.2c18.7,7.3,39,11.7,54.4,11.7c2.2,0,4.3-0.1,6.3-0.3
			c1.3-0.1,2.4-1.1,2.7-2.4c0.3-1.3-0.4-2.6-1.5-3.2c-18.2-9.8-32.8-23.9-43.5-42.1c-8.6-14.6-14.6-31.8-18-51.2
			c-5.8-33.1-1.7-61.2-1.6-61.5c0.2-1.5-0.7-2.9-2.1-3.3C643,326.9,637.5,325.1,629.6,325.1L629.6,325.1z"/>
	</g>
	<g>
		<path class="st17" d="M699.8,411.8c-0.4,0-0.8-0.2-1.1-0.4c-32.8-32.8-23.8-76.3-23.7-76.8c0-0.1,0-0.2,0.1-0.2
			c0.3-0.7,7.4-17.5,38.5-17.5c6.8,0,14.4,0.8,22.6,2.5c0.5,0.1,1,0.5,1.1,1s0,1.1-0.4,1.5c-25.8,25.5-37.1,71.7-35.7,88.3
			c0.1,0.6-0.3,1.2-0.9,1.5C700.2,411.8,700,411.8,699.8,411.8z"/>
		<path d="M713.7,318.4c6.3,0,13.7,0.7,22.3,2.4c-26.1,25.8-37.6,72.7-36.2,89.5c-32.6-32.6-23.3-75.4-23.3-75.4
			S683.1,318.4,713.7,318.4 M713.7,315.4c-32.2,0-39.6,17.7-39.9,18.4c-0.1,0.2-0.1,0.3-0.1,0.5c-0.1,0.5-2.4,11.4-0.6,26.5
			c1.6,14,7.3,34.3,24.7,51.7c0.6,0.6,1.3,0.9,2.1,0.9c0.4,0,0.9-0.1,1.3-0.3c1.1-0.5,1.8-1.7,1.7-3c-0.6-7.4,1.5-22.6,7.6-40.2
			c4.8-13.7,13.5-32.9,27.7-47c0.8-0.8,1.1-1.9,0.8-3c-0.3-1.1-1.2-1.9-2.3-2.1C728.3,316.2,720.6,315.4,713.7,315.4L713.7,315.4z"
			/>
	</g>
	<path class="st19" d="M705.6,318.8c-23.7,2.6-29.1,16.1-29.1,16.1s-9.3,42.8,23.3,75.4C679.3,372.1,692.7,338.6,705.6,318.8z"/>
	<g>
		<path class="st17" d="M671.4,421.1c-0.3,0-0.5-0.1-0.7-0.2c-33.2-18.6-47.5-40.8-43.6-67.8c1.6-10.9,15.3-46.6,34.4-46.6
			c7.5,0,14.8,5.5,21.7,16.3c12.6,19.8,3.2,46.3-4.3,67.6c-4.4,12.4-8.2,23.1-6.1,28.6c0.2,0.6,0.1,1.3-0.4,1.7
			C672.1,421,671.8,421.1,671.4,421.1z"/>
		<path d="M661.5,308c6.4,0,13.3,4.3,20.4,15.6c19.7,31-16.4,80.2-10.5,96c-40.2-22.5-45.7-46.7-42.9-66.2
			C630.2,342.2,643.6,308,661.5,308 M661.5,305c-20.3,0-34.2,36.3-35.9,47.9c-4,27.7,10.5,50.3,44.4,69.3c0.5,0.3,1,0.4,1.5,0.4
			c0.7,0,1.4-0.2,2-0.7c1-0.8,1.3-2.2,0.9-3.3c-1.9-5,2-16,6.1-27.6c7.6-21.6,17.1-48.5,4.1-68.9C677.3,310.7,669.6,305,661.5,305
			L661.5,305z"/>
	</g>
	<path class="st19" d="M653.7,333.8c5.1-12.2,10.8-19.2,16.7-22.8c-22.2-14.5-40,29.5-41.9,42.4c-2.8,19.5,2.7,43.7,42.9,66.2
		C671.4,419.6,637.6,372.5,653.7,333.8z"/>
	<g>
		<path class="st17" d="M769.2,438.1c-0.2,0-0.4,0-0.6-0.1c-43-17-72.9-45.7-84.4-80.7c-8.2-25-6-52,5.6-70.5
			c7.3-11.6,22.7-18.5,41.3-18.5c12.1,0,25.1,2.8,38.6,8.2c0.4,0.2,0.7,0.4,0.8,0.8c0.2,0.4,0.2,0.8,0,1.2
			c-16.2,38.4-19.2,123.3-0.1,157.3c0.3,0.6,0.2,1.2-0.2,1.7C770.1,437.9,769.7,438.1,769.2,438.1z"/>
		<path d="M731.2,269.8c11.1,0,24,2.4,38,8.1c-19.9,47.2-15.9,130.3,0,158.7c-91.4-36.2-100.5-113.4-78.1-149
			C697.8,277.1,712,269.8,731.2,269.8 M731.2,266.8c-19.1,0-35,7.2-42.6,19.2c-11.9,18.8-14.1,46.3-5.8,71.7
			c5.4,16.6,14.8,31.7,28,45.1c14.9,15.1,34.1,27.4,57.3,36.5c0.4,0.1,0.7,0.2,1.1,0.2c0.8,0,1.7-0.4,2.3-1c0.8-1,1-2.3,0.4-3.4
			c-7.6-13.5-12.6-40.6-13.1-70.8c-0.5-32.9,4.3-64,13.2-85.2c0.3-0.7,0.3-1.6,0-2.3c-0.3-0.7-0.9-1.3-1.6-1.6
			C756.7,269.6,743.5,266.8,731.2,266.8L731.2,266.8z"/>
	</g>
	<path class="st19" d="M769.2,278c-9.9-4-19.9-5.3-29.3-5c-26.5,116.5,29.3,163.6,29.3,163.6C753.3,408.2,749.3,325.2,769.2,278z"/>
	<g>
		<path class="st17" d="M811.2,415c-0.3,0-0.6-0.1-0.9-0.3c-28.5-19.6-50.3-44.6-63-72.1c-11-23.7-14.9-48.5-11-69.7
			c3.8-20.6,17.1-32.8,35.6-32.8c22.6,0,48.3,18.8,50.6,46.7c1.8,22-2.4,43.9-6.5,65.1c-4.4,22.9-8.5,44.5-3.4,61.1
			c0.2,0.6,0,1.3-0.5,1.7C811.8,414.9,811.5,415,811.2,415z"/>
		<path d="M771.9,241.7c22.2,0,47,18.7,49.1,45.3c3.7,46.4-19.7,94.4-9.8,126.5c-61.6-42.5-80.6-101.3-73.4-140.2
			C741.9,251,756.3,241.7,771.9,241.7 M771.9,238.7c-19.2,0-33.1,12.7-37.1,34.1c-4,21.5-0.1,46.6,11.1,70.6
			c12.9,27.8,34.9,52.9,63.5,72.7c0.5,0.4,1.1,0.5,1.7,0.5c0.6,0,1.2-0.2,1.8-0.6c1-0.8,1.5-2.1,1.1-3.3c-5-16.3-0.9-37.7,3.4-60.4
			c4.1-21.3,8.3-43.3,6.5-65.5C821.7,258,795.2,238.7,771.9,238.7L771.9,238.7z"/>
	</g>
	<g>
		<path class="st19" d="M814.4,352.3c-3.2-22.5-5.6-45.9,6.6-65.3c-0.4-2.5-1-5.7-1.7-9.2c-5.3-17.9-20.9-30.9-37.2-34.8
			c-31,79.5,3.9,146.2,29.1,170.6C806,396.6,810,375.4,814.4,352.3z"/>
	</g>
	<path class="st19" d="M598.8,340.2c-9.3,8.8-17.3,23.8-20.6,48.8c-9.1,69.5,91.4,102.2,128.8,98.7
		C602.4,461.5,593.8,385.6,598.8,340.2z"/>
	<g>
		<path class="st17" d="M847.2,466.4c-0.7,0-1.3-0.5-1.5-1.2s0.2-1.4,0.8-1.7c21-10.4,22.9-31.8,24.6-50.6
			c1.2-14,2.3-26.1,11.2-30.9c1.2-0.7,2.5-1,3.9-1c4.9,0,10.6,4,15.2,10.7c6,8.6,10.6,22.4,5.7,35.4
			C899,449.2,868.2,466.4,847.2,466.4z"/>
		<path d="M886.4,382.5c11,0,27,24.1,19.5,44.1c-8.2,22-39.3,38.3-58.6,38.3c37.5-18.6,16.3-70.9,35.9-81.5
			C884.1,382.8,885.2,382.5,886.4,382.5 M886.4,379.5c-1.7,0-3.2,0.4-4.7,1.2c-9.6,5.2-10.7,17.7-12,32.1
			c-1.6,18.4-3.5,39.3-23.8,49.4c-1.2,0.6-1.9,2-1.6,3.4s1.5,2.3,2.9,2.3c10.3,0,23.4-4.2,35.1-11.3c13-7.9,22.4-18.2,26.4-28.9
			c5.1-13.5,0.3-27.9-5.9-36.8C897.9,383.8,891.7,379.5,886.4,379.5L886.4,379.5z"/>
	</g>
	<path class="st19" d="M894.1,385.8c-1,33.8-13.5,68.7-46.9,79c19.4,0,50.4-16.3,58.6-38.3C911.7,411.1,903.3,393.1,894.1,385.8z"/>
	<g>
		<path class="st17" d="M859.1,419.9c-0.3,0-0.5-0.1-0.8-0.2c-0.6-0.3-0.8-1-0.7-1.6c12.7-61.1-19.7-101.6-20-102
			c-0.3-0.3-0.4-0.8-0.3-1.2c0.1-0.4,0.4-0.8,0.8-1c0.7-0.4,18.3-9.5,34.9-9.5c16.7,0,26.6,9.4,28.5,27.2
			c5.3,48.4-23,72.4-38.3,85.3c-1.1,0.9-2.2,1.8-3.1,2.7C859.8,419.8,859.5,419.9,859.1,419.9z"/>
		<path d="M873,305.8c12.8,0,24.8,5.7,27,25.9c5.5,51.1-26.4,74.1-40.9,86.7c13-62.5-20.3-103.2-20.3-103.2S856.6,305.8,873,305.8
			 M873,302.8c-17,0-34.8,9.3-35.6,9.7c-0.8,0.4-1.4,1.2-1.5,2.1c-0.2,0.9,0,1.8,0.6,2.5c0.1,0.1,8.2,10.2,14.6,27.6
			c5.9,16,11.6,41.7,5.1,73.1c-0.3,1.3,0.3,2.5,1.4,3.2c0.5,0.3,1,0.4,1.5,0.4c0.7,0,1.4-0.2,2-0.7c1-0.8,2-1.7,3.1-2.7
			c15.4-13.1,44.1-37.4,38.8-86.6C900.4,307.8,885.3,302.8,873,302.8L873,302.8z"/>
	</g>
	<path class="st19" d="M900,331.7c-2.6-23.5-18.4-27.4-33.3-25.5c39.8,51-7.6,112.2-7.6,112.2C873.6,405.9,905.6,382.8,900,331.7z"
		/>
	<g>
		<path class="st17" d="M839.5,405.1c-0.3,0-0.7-0.1-1-0.3c-31.2-26-38.3-55.9-41-79.1c-1.2-10.1,2.3-20.5,9.5-28.6
			c6.8-7.6,15.8-12.2,24.1-12.2c11.2,0,18.7,8.1,20.8,22.2c3.2,22.1-1.7,42.7-6,60.9c-3.2,13.6-6,25.4-5,35.4
			c0.1,0.6-0.2,1.2-0.8,1.5C840,405,839.8,405.1,839.5,405.1z"/>
		<path d="M831.2,286.4c9.1,0,17.1,6,19.3,20.9c5.5,38.1-13.4,72.3-10.9,96.3c-31.3-26.1-37.9-56.2-40.5-78.1
			C796.6,304.2,815.5,286.4,831.2,286.4 M831.2,283.4c-8.7,0-18.1,4.7-25.2,12.7c-7.5,8.5-11.1,19.3-9.9,29.8
			c2.8,23.4,10,53.7,41.5,80c0.6,0.5,1.2,0.7,1.9,0.7c0.5,0,1-0.1,1.4-0.4c1.1-0.6,1.7-1.7,1.6-3c-1-9.8,1.8-21.4,4.9-34.9
			c4.3-18.3,9.2-39.1,6-61.5C850.4,285.6,836.9,283.4,831.2,283.4L831.2,283.4z"/>
	</g>
	<path class="st19" d="M850.5,307.3c-2.4-16.9-12.4-22.3-23-20.6c-6,21.1-11.8,63.2,12.1,116.9C837.1,379.5,856,345.4,850.5,307.3z"
		/>
</g>
</svg>
